<svg width="125" height="28" viewBox="0 0 125 28" fill="none" xmlns="http://www.w3.org/2000/svg">
<g clip-path="url(#clip0_181_406)">
<path d="M44.6188 17.898L42.8433 14.2998H40.5853L42.7098 9.80605L48.0638 20.5417H53.0526L44.3471 4.10754H41.0564L32.6758 20.5385L37.6502 20.5401L38.9046 17.898H44.6188Z" fill="white"/>
<mask id="mask0_181_406" style="mask-type:luminance" maskUnits="userSpaceOnUse" x="-419" y="-251" width="1609" height="357">
<path d="M-418.631 105.844H1189.66V-250.137H-418.631V105.844Z" fill="white"/>
</mask>
<g mask="url(#mask0_181_406)">
<path d="M70.9588 14.6203C73.5176 13.8315 74.7222 11.9114 74.7222 9.57047C74.7222 6.57622 72.6507 4.14765 68.3904 4.14765H59.7861V20.5817H63.7746V7.61838H68.6638C70.1113 7.62156 70.7127 8.50438 70.7127 9.56249C70.7127 10.6174 70.0807 11.4652 68.6348 11.4652H65.2124L70.3911 20.5802H74.4825C74.4825 20.5802 70.9395 14.6235 70.9604 14.6203M58.0331 4.11419H53.9079V20.5451H58.0331V4.11419ZM104.337 4.06955V13.3089C104.337 16.1326 102.672 17.3182 100.625 17.3182C98.5745 17.3182 96.9228 16.1374 96.9228 13.3121V4.06955H92.7896V13.3359C92.7896 19.2448 96.2924 20.9674 100.625 20.9674C104.959 20.9674 108.47 19.2448 108.47 13.3344L108.469 4.06955H104.335H104.337ZM86.0654 17.0712H80.2434V13.8348H86.067C87.0239 13.8475 87.7975 14.5582 87.7975 15.4426C87.7975 16.3302 87.0223 17.0712 86.0654 17.0712ZM80.2434 7.57855H85.9624C86.7473 7.58652 87.4099 8.18406 87.4099 8.96808C87.4099 9.74891 86.7151 10.3736 85.9303 10.3672H80.2434V7.57855ZM89.3543 12.1042C90.4318 11.3536 90.8371 10.1106 90.8371 8.7418C90.8371 6.16824 88.6515 4.10461 85.9672 4.10461H76.2533V20.5388H86.35V20.5451C89.1838 20.5451 91.5447 18.3763 91.5447 15.7247C91.5434 14.9817 91.3391 14.2529 90.9534 13.6158C90.5677 12.9786 90.0151 12.4552 89.3543 12.1042ZM118.844 10.474C115.498 9.7537 114.368 9.43497 114.368 8.38324C114.368 7.45421 115.579 6.9889 117.493 6.9889C119.299 6.9889 121.478 7.75065 122.761 8.51236L124.064 5.16593C122.125 4.36757 119.791 3.60264 116.705 3.60264C112.658 3.60264 110.13 5.94516 110.13 8.81192C110.13 11.6803 112.213 12.9392 116.336 13.8077C119.537 14.477 120.405 14.8785 120.405 15.8665C120.405 16.8513 119.119 17.2146 117.387 17.2146C115.143 17.2146 112.983 16.4752 110.947 15.6052L109.717 18.8687C112.15 19.9874 114.677 20.8814 117.687 20.8814C122.704 20.8814 124.751 18.5054 124.751 15.7374C124.751 13.2754 123.028 11.3759 118.844 10.474ZM43.9558 27.7128H47.0566V26.9543H44.8291V26.2468H47.0502V25.4866H44.8307V24.8779H47.0566V24.1194H43.9558V27.7128ZM41.2025 27.0658L38.4153 24.1003H37.6643V27.7144H38.269V24.7489L41.0609 27.7128H41.8072V24.1003H41.2025V27.0658ZM92.4695 25.7639L90.9159 24.078H90.1648L92.1607 26.2643V27.6937H92.7654V26.2643L94.7613 24.078H94.0102L92.4679 25.7655L92.4695 25.7639ZM53.5187 24.1194H51.7495V26.3472H52.6325V24.8779H53.5187C54.0236 24.8779 54.4354 25.3496 54.4354 25.8962C54.4354 26.4842 54.0381 26.9543 53.5187 26.9543H51.3459L49.8534 24.1194H49.1361L47.3155 27.7128H48.3979L48.6681 27.1343V27.136H49.9145L49.5366 26.3759H49.0203L49.4947 25.3719L50.6591 27.7128H53.5187C54.5592 27.7128 55.344 26.9368 55.344 25.9376C55.344 24.9066 54.5865 24.1194 53.5187 24.1194ZM34.044 26.3615L34.9768 24.6134L35.9032 26.3615H34.044ZM35.3548 24.1003H34.5941L32.6609 27.7144H33.3219L33.7449 26.9049H36.1991L36.6237 27.7144H37.2831L35.3548 24.1003ZM79.6081 25.7703H77.4257V24.623H79.5663C80.06 24.623 80.3093 24.8158 80.3093 25.2158C80.3093 25.5759 80.0681 25.7703 79.6081 25.7703ZM80.9269 25.2062C80.9269 24.5226 80.4605 24.0764 79.7127 24.0764H76.8194V27.6937H77.4257V26.3153H79.5985C80.4669 26.3153 80.9269 25.9217 80.9269 25.2078M73.2956 26.2643L71.5426 24.078H70.7899V27.6953H71.3963V24.7377H71.4124L73.2908 27.0929L75.1854 24.7377H75.2014V27.6937H75.8045V24.078H75.0551L73.2956 26.2643ZM89.1291 27.0436L86.342 24.0764H85.5909V27.6937H86.1956V24.7265L88.9876 27.6937H89.7354V24.0764H89.1291V27.0436ZM57.5747 25.5185C56.8478 25.364 56.6017 25.2954 56.6017 25.0675C56.6017 24.8683 56.8655 24.7696 57.282 24.7696C57.6744 24.7696 58.1473 24.9321 58.4255 25.0962L58.7102 24.3792C58.2056 24.1595 57.661 24.0445 57.1099 24.0413C56.2302 24.0413 55.6818 24.5449 55.6818 25.1616C55.6818 25.7783 56.1337 26.0492 57.0295 26.2356C57.7259 26.379 57.9141 26.4651 57.9141 26.6786C57.9141 26.8906 57.6358 26.9687 57.2579 26.9687C56.7706 26.9687 56.301 26.8093 55.8587 26.6229L55.5917 27.324C56.1225 27.563 56.6693 27.7559 57.3238 27.7559C58.4142 27.7559 58.8597 27.2459 58.8597 26.6499C58.8597 26.1209 58.485 25.713 57.5747 25.5185ZM81.871 26.3392L82.8006 24.5927L83.7269 26.3392H81.871ZM82.4178 24.078L80.4878 27.6937H81.1472L81.5718 26.8842H84.0245L84.449 27.6937H85.1084L83.1785 24.078H82.4178ZM67.7294 27.2475C66.6824 27.2475 66.0085 26.693 66.0085 25.8803C66.0085 25.0915 66.713 24.5114 67.7294 24.5114C68.1877 24.5114 68.6011 24.6405 68.8922 24.8508C69.0625 24.9641 69.2016 25.1178 69.2968 25.2978C69.392 25.4779 69.4403 25.6786 69.4374 25.8819C69.4374 26.6898 68.7732 27.2491 67.7294 27.2491M69.328 24.4541C68.9227 24.1481 68.3502 23.9648 67.7294 23.9648C67.1022 23.9648 66.5344 24.1481 66.1259 24.4541C65.6322 24.8238 65.3813 25.3018 65.3813 25.8819C65.3813 26.4699 65.6274 26.9495 66.1163 27.3144C66.5135 27.614 67.0941 27.7989 67.7294 27.7989C68.363 27.7989 68.9292 27.6188 69.3328 27.3192C69.8202 26.9527 70.0678 26.4699 70.0678 25.8819C70.0678 25.3066 69.8153 24.8238 69.328 24.4541ZM62.8579 24.513C63.527 24.513 64.0271 24.6915 64.4099 25.0962L64.9599 24.9018C64.4807 24.2883 63.7553 23.9616 62.8579 23.9616C62.2323 23.9616 61.663 24.1433 61.2609 24.4477C60.7655 24.8174 60.5211 25.2954 60.5211 25.8755C60.5211 26.4651 60.7623 26.9495 61.2496 27.3144C61.6485 27.614 62.2227 27.7925 62.8579 27.7925C63.765 27.7925 64.4035 27.5487 64.9342 26.9352L64.4147 26.6515C64.0287 27.0643 63.5479 27.2443 62.8917 27.2443C61.8141 27.2443 61.1499 26.6898 61.1499 25.8739C61.1499 25.0931 61.8415 24.513 62.8579 24.513ZM4.24588 13.9989H2.30469C2.35081 15.646 3.04369 17.2103 4.23594 18.359C5.42819 19.5077 7.02571 20.1501 8.68869 20.1497C10.3517 20.1493 11.9489 19.506 13.1405 18.3567C14.3322 17.2074 15.0243 15.6428 15.0696 13.9957H17.2343C17.234 15.5645 16.7375 17.0938 15.8147 18.3687C14.8919 19.6435 13.589 20.5997 12.0894 21.103C10.5897 21.6063 8.96855 21.6313 7.45379 21.1745C5.93904 20.7178 4.60681 19.8021 3.64437 18.5564C4.64007 20.0995 6.1138 21.2812 7.84455 21.9243C9.5753 22.5675 11.4698 22.6374 13.2441 22.1237C15.0183 21.6099 16.5767 20.5401 17.6855 19.0747C18.7944 17.6093 19.3939 15.8272 19.3942 13.9957H21.559C21.5595 16.0195 20.9177 17.9923 19.7243 19.6348C18.531 21.2773 16.8465 22.5063 14.9093 23.1479C12.9721 23.7896 10.8803 23.8113 8.92997 23.2101C6.97962 22.6089 5.2695 21.4151 4.04163 19.7978C5.30311 21.7126 7.15503 23.1725 9.32164 23.9601C11.4882 24.7477 13.8536 24.8209 16.0656 24.1688C18.2776 23.5167 20.2179 22.1741 21.5975 20.341C22.9771 18.5079 23.7223 16.2823 23.7221 13.9957H25.6617C25.6158 12.3486 24.9231 10.7842 23.731 9.63539C22.5389 8.48654 20.9414 7.84382 19.2785 7.84402C17.6155 7.84423 16.0182 8.48731 14.8264 9.63646C13.6346 10.7856 12.9423 12.3502 12.8968 13.9973H10.732C10.7335 12.4291 11.2306 10.9008 12.1536 9.62688C13.0766 8.353 14.3791 7.3976 15.8783 6.8948C17.3774 6.392 18.9978 6.36705 20.5119 6.82351C22.0261 7.27997 23.3579 8.19491 24.3204 9.4398C23.3254 7.89568 21.8519 6.7129 20.121 6.06895C18.39 5.425 16.495 5.35462 14.7203 5.86835C12.9456 6.38208 11.3868 7.45221 10.278 8.91818C9.16914 10.3842 8.57003 12.1669 8.57053 13.9989H6.40739C6.40705 11.9755 7.0489 10.0032 8.2421 8.36121C9.43531 6.71918 11.1194 5.49053 13.0562 4.8491C14.993 4.20767 17.0843 4.18598 19.0342 4.78705C20.9841 5.38812 22.6938 6.58151 23.9215 8.1984C22.6598 6.28441 20.8081 4.82526 18.642 4.03808C16.4759 3.2509 14.1111 3.17776 11.8997 3.8296C9.68822 4.48144 7.74831 5.8234 6.36864 7.65573C4.98898 9.48805 4.24334 11.7128 4.24266 13.9989" fill="white"/>
<path d="M13.9833 25.7893C12.4205 25.789 10.8729 25.4838 9.42905 24.891C7.98521 24.2982 6.67335 23.4294 5.56836 22.3343C4.46338 21.2391 3.58692 19.9391 2.98902 18.5083C2.39112 17.0775 2.08349 15.5441 2.0837 13.9955C2.08392 12.4469 2.39196 10.9136 2.99025 9.48296C3.58854 8.05235 4.46536 6.75252 5.57064 5.65766C6.67593 4.56281 7.98804 3.69439 9.43204 3.10197C10.8761 2.50955 12.4237 2.20476 13.9866 2.20497C17.143 2.20539 20.1699 3.44819 22.4016 5.65995C24.6332 7.8717 25.8866 10.8712 25.8862 13.9987C25.8858 17.1262 24.6315 20.1254 22.3993 22.3366C20.1671 24.5477 17.1398 25.7897 13.9833 25.7893ZM13.9833 0.197105C12.1543 0.197105 10.3432 0.554064 8.65345 1.24758C6.96367 1.94109 5.42829 2.9576 4.13498 4.23905C2.84168 5.5205 1.81579 7.04181 1.11586 8.7161C0.415925 10.3904 0.0556641 12.1849 0.0556641 13.9971C0.0556641 17.6571 1.52304 21.1672 4.13498 23.7552C6.74693 26.3432 10.2895 27.7971 13.9833 27.7971C17.6772 27.7971 21.2198 26.3432 23.8317 23.7552C26.4437 21.1672 27.911 17.6571 27.911 13.9971C27.911 12.1849 27.5508 10.3904 26.8508 8.7161C26.1509 7.04181 25.125 5.5205 23.8317 4.23905C22.5384 2.9576 21.003 1.94109 19.3132 1.24758C17.6235 0.554064 15.8124 0.197105 13.9833 0.197105Z" fill="white"/>
</g>
</g>
<defs>
<clipPath id="clip0_181_406">
<rect width="124.8" height="27.6" fill="white" transform="translate(0 0.200012)"/>
</clipPath>
</defs>
</svg>
