<svg width="126" height="28" viewBox="0 0 126 28" fill="none" xmlns="http://www.w3.org/2000/svg">
<path fill-rule="evenodd" clip-rule="evenodd" d="M19.1462 1.21821C18.3039 1.77871 17.1045 2.63964 16.481 3.13134C15.3682 4.00874 15.3417 4.02296 15.048 3.90047C12.6347 2.89455 10.4968 2.69158 8.25124 3.25529C6.40801 3.71796 4.8855 4.59876 3.5336 5.98462C2.24438 7.30607 1.39658 8.88497 0.964861 10.7684C0.70771 11.8899 0.756823 13.858 1.0718 15.0593C1.35737 16.1484 2.09605 17.7043 2.71105 18.5118C2.93266 18.8028 3.11406 19.0892 3.11406 19.1481C3.11406 19.2071 2.9589 19.6174 2.76918 20.06C1.6972 22.5614 1.31024 24.904 1.73721 26.3067C1.88177 26.7816 2.41766 27.4263 2.85166 27.6476C3.29407 27.8732 4.39496 27.8443 5.1374 27.5874C6.77358 27.0214 8.65989 25.6048 10.0047 23.9322C10.4278 23.4058 10.3832 23.4166 9.50154 24.0532C8.57453 24.7226 7.66614 25.2118 6.84933 25.4816C5.9547 25.7772 5.48773 25.7903 4.91778 25.5357C4.32911 25.2727 4.10929 24.7805 4.10642 23.7181C4.10434 22.9554 4.41536 21.4587 4.70667 20.8294L4.82114 20.5822L5.37297 20.9296C9.05754 23.2492 13.9175 22.9023 17.2178 20.0842C17.7403 19.638 17.7525 19.6392 18.058 20.1618C18.1229 20.2725 18.4455 20.2765 20.0069 20.1857C22.7552 20.026 25.7705 19.9043 29.8986 19.7867C33.6718 19.6792 35.2416 19.6027 35.1677 19.5301C35.1445 19.5072 34.0163 19.4023 32.6605 19.2968C28.6707 18.9866 26.5492 18.7089 24.1004 18.1766C22.506 17.8299 19.9097 17.0387 19.8014 16.8665C19.7788 16.8302 19.8894 16.4307 20.0474 15.9786C21.1736 12.7566 20.6416 9.46077 18.5558 6.7366C17.9909 5.99885 16.8685 4.93729 16.3828 4.68159C16.1836 4.57664 16.1896 4.55949 16.5759 4.12752C16.9888 3.66583 18.754 2.00332 20.0474 0.857764C20.4552 0.496634 20.7638 0.200597 20.7333 0.200013C20.7027 0.199428 19.9885 0.657613 19.1462 1.21821ZM12.7849 4.29064C13.5056 4.46088 14.3031 4.73665 14.3031 4.81548C14.3031 4.83419 13.3095 5.83124 12.0951 7.03108C8.80059 10.286 6.54089 13.1706 4.35525 16.9107C4.04206 17.4467 3.76788 17.9039 3.74599 17.9268C3.62945 18.0484 2.7663 16.5723 2.44568 15.7032C2.08139 14.7154 1.92584 13.82 1.92584 12.7101C1.92584 10.4789 2.69778 8.5021 4.19207 6.90655C5.64804 5.35211 7.50276 4.37513 9.51244 4.10423C10.4121 3.98301 11.8232 4.0633 12.7849 4.29064ZM15.8696 5.67592C16.6124 6.17659 17.6803 7.32088 18.2025 8.17567C19.1833 9.78107 19.6537 11.8091 19.4507 13.5565C19.3118 14.7524 18.8195 16.3748 18.5955 16.3748C18.3793 16.3748 16.433 15.2574 15.6805 14.7012C15.1807 14.3319 14.7591 14.0421 14.7437 14.0573C14.7282 14.0725 15.2638 15.0935 15.9339 16.3261L17.1523 18.5673L16.8417 18.892C16.3695 19.3857 15.4168 20.0633 14.6992 20.4161C11.8187 21.8318 8.47611 21.6412 5.81231 19.9095C5.52635 19.7235 5.29246 19.5091 5.29246 19.4329C5.29246 19.3566 5.49852 18.8895 5.75043 18.3948C7.23491 15.4793 9.69077 11.876 12.3074 8.77407C13.3347 7.5564 15.3012 5.36351 15.366 5.36351C15.3881 5.36351 15.6147 5.50412 15.8696 5.67592ZM37.6915 6.11871C37.53 6.31973 35.7863 8.58893 33.8166 11.1615L30.2355 15.8388L36.0081 15.8667C39.4999 15.8835 42.0826 15.8557 42.5446 15.7961C44.0772 15.5987 45.0459 14.9491 46.3091 13.2716C47.0954 12.2273 47.2049 11.876 46.9017 11.3703L46.7006 11.0349L47.1617 10.8662C47.7822 10.6393 48.2296 10.3669 48.7534 9.89712C49.3043 9.40298 50.5942 7.71154 50.6818 7.36843C50.8311 6.78289 50.4336 6.08616 49.8196 5.85726C49.6337 5.78788 47.6153 5.75329 43.763 5.75329H37.9852L37.6915 6.11871ZM56.5248 5.89809C55.721 6.07018 54.9831 6.45002 54.3765 7.00389C54.1028 7.25394 52.7497 8.93953 51.3696 10.7496C48.9369 13.9405 48.8606 14.0542 48.8606 14.4897C48.8606 15.0845 49.1466 15.5307 49.6566 15.7315C50.0002 15.8668 50.6672 15.8874 54.6799 15.8868C57.3125 15.8864 59.5845 15.8435 59.9507 15.7873C60.8493 15.6494 61.8717 15.1345 62.4968 14.5052C63.2169 13.7802 67.6832 7.92211 67.8322 7.50729C68.0591 6.87527 67.7358 6.14248 67.1179 5.88844C66.6526 5.69706 57.4245 5.70544 56.5248 5.89809ZM68.8505 10.6986C66.7702 13.4186 65.0253 15.6988 64.9728 15.7657C64.8967 15.8629 66.0131 15.8875 70.4804 15.8875H76.0835L76.8297 14.9178C77.2402 14.3845 77.576 13.924 77.576 13.8946C77.576 13.8653 76.3506 13.8412 74.853 13.8412C73.0593 13.8412 72.13 13.8071 72.13 13.7413C72.13 13.6864 72.4473 13.2259 72.8352 12.7181L73.5404 11.7949H76.3781H79.2158L79.9724 10.7961L80.729 9.79724L77.9643 9.77132C76.4437 9.7571 75.1995 9.72318 75.1995 9.6958C75.1995 9.66852 75.5169 9.2307 75.9047 8.72291L76.61 7.79963H79.4472H82.2845L82.8187 7.09315C83.1125 6.70464 83.4619 6.24412 83.5952 6.06998L83.8376 5.75329H78.2351H72.6327L68.8505 10.6986ZM83.3191 10.7324C81.2223 13.4707 79.492 15.7508 79.4739 15.7993C79.4546 15.8507 80.5912 15.8852 82.1969 15.882L84.9529 15.8765L88.6661 11.0121C90.7083 8.33664 92.4403 6.05887 92.5151 5.95042C92.6505 5.75407 92.6404 5.75329 89.8911 5.75348L87.1313 5.75377L83.3191 10.7324ZM92.4928 10.8006L88.6457 15.8388L90.3605 15.8656C91.3036 15.8803 92.1266 15.8729 92.1892 15.8492C92.2519 15.8256 93.1625 14.6844 94.2127 13.3133C95.2628 11.9422 96.1498 10.8204 96.1836 10.8204C96.2176 10.8204 96.5117 11.9603 96.8373 13.3537L97.4292 15.8869L99.6076 15.8871L101.786 15.8875L102.039 15.5708C102.178 15.3966 103.926 13.1165 105.924 10.5037L109.557 5.75329H107.74H105.924L103.954 8.32982C102.87 9.74696 101.958 10.8761 101.926 10.839C101.894 10.802 101.607 9.6425 101.288 8.26249L100.708 5.75329L98.524 5.75787L96.34 5.76245L92.4928 10.8006ZM114.312 5.8596C113.573 6.0007 112.527 6.57124 111.973 7.13642C111.694 7.42076 110.368 9.08833 109.027 10.842C106.66 13.9365 106.588 14.044 106.588 14.4812C106.588 15.0152 106.797 15.4027 107.221 15.655C107.509 15.8271 107.828 15.8406 112.232 15.8669C117.349 15.8974 117.955 15.856 118.916 15.4099C119.76 15.0181 120.234 14.6084 121.095 13.5245L121.849 12.5744L122.512 12.5724L123.174 12.5703L123.867 11.6299C124.248 11.1126 124.596 10.6312 124.639 10.56C124.705 10.4534 124.118 10.4306 121.312 10.4306H117.905L116.743 11.9446C116.104 12.7773 115.479 13.5242 115.355 13.6043C115.179 13.7176 114.866 13.744 113.953 13.7226C112.818 13.696 112.776 13.6874 112.745 13.4752C112.697 13.1428 116.519 8.11096 116.956 7.93137C117.367 7.76211 119.174 7.75081 119.342 7.91656C119.531 8.10229 119.483 8.31608 119.155 8.75488L118.85 9.16385H121.61H124.369L124.751 8.66123C124.96 8.38478 125.237 8.00592 125.366 7.81931C125.821 7.15971 125.587 6.24684 124.879 5.91602C124.567 5.77034 124.018 5.75436 119.644 5.76401C116.956 5.76985 114.557 5.81292 114.312 5.8596ZM44.385 7.91656C44.593 8.12129 44.5148 8.40096 44.0974 8.94489C43.5478 9.6615 43.2972 9.74852 41.784 9.74852C41.1014 9.74852 40.5431 9.72552 40.5431 9.69736C40.5431 9.6692 40.8604 9.2307 41.2483 8.72291L41.9535 7.79963H43.1098C43.8772 7.79963 44.3062 7.83899 44.385 7.91656ZM61.6142 7.91656C61.6796 7.98087 61.733 8.11915 61.733 8.2239C61.733 8.4869 57.9909 13.391 57.6238 13.6093C57.4085 13.7372 57.0647 13.7965 56.3752 13.8243C55.3387 13.8662 54.9998 13.7709 54.9998 13.4376C54.9998 13.1343 58.8331 8.13045 59.203 7.95076C59.5842 7.76562 61.4342 7.73941 61.6142 7.91656ZM41.4367 11.9439C41.597 12.1341 41.4972 12.3566 40.9428 13.0461C40.3619 13.7684 40.1068 13.8528 38.603 13.8198L37.3637 13.7925L38.1224 12.7937L38.8812 11.7949H40.0961C41.0656 11.7949 41.3363 11.825 41.4367 11.9439Z" fill="white"/>
</svg>
