<svg width="60" height="60" viewBox="0 0 60 60" fill="none" xmlns="http://www.w3.org/2000/svg">
<path fill-rule="evenodd" clip-rule="evenodd" d="M25.9358 7.28782C23.6353 11.2951 21.736 14.603 21.7151 14.6386C21.5048 14.9979 21.4164 15.1702 21.4164 15.2208C21.4164 15.2852 21.6361 15.7075 21.7685 15.8977C21.8124 15.9607 21.8483 16.0226 21.8483 16.0352C21.8483 16.0478 21.9042 16.1517 21.9726 16.2661C22.1747 16.6043 22.5184 17.1936 22.6355 17.4026C22.6954 17.5095 23.0311 18.0925 23.3814 18.6982C24.1597 20.0439 24.1615 20.0469 24.2602 20.2205C24.304 20.2977 24.4525 20.5552 24.5901 20.7928C24.7277 21.0303 24.8765 21.2878 24.9207 21.365C25.0158 21.5314 24.9572 21.4296 25.971 23.1896C26.4157 23.9616 26.8872 24.7778 27.0189 25.0035C27.3125 25.5064 27.1987 25.3097 28.4552 27.4867C29.031 28.4844 29.5509 29.3881 29.6105 29.4949C29.6702 29.6018 29.7603 29.7573 29.8108 29.8404C30.0077 30.1649 30.0571 30.2535 30.0816 30.3263C30.0956 30.3678 30.1229 30.4019 30.1423 30.4019C30.1774 30.4019 30.3561 30.1723 30.3561 30.1272C30.3561 30.1141 30.4172 30.0005 30.4917 29.8747C30.5663 29.749 30.661 29.5878 30.7022 29.5165C30.7434 29.4453 30.9474 29.0955 31.1554 28.7392C31.3636 28.3829 31.5721 28.0233 31.619 27.9402C31.6658 27.8571 31.7187 27.7696 31.7365 27.7459C31.7543 27.7221 31.8272 27.5958 31.8985 27.4652C31.9698 27.3345 32.1598 27.0041 32.3208 26.731C32.6595 26.1563 32.6187 26.2266 33.2494 25.1331C33.5165 24.6699 33.7496 24.2715 33.7673 24.2477C33.785 24.224 33.8482 24.1171 33.9076 24.0102C33.967 23.9033 34.1859 23.5243 34.3939 23.168C34.602 22.8117 34.9414 22.2287 35.1482 21.8724C35.3549 21.5161 35.773 20.7971 36.0772 20.2745C36.8012 19.0311 36.7057 19.1953 37.3195 18.1368C37.9068 17.124 38.5558 16.0126 38.7192 15.7399C38.7761 15.6449 38.8636 15.4874 38.9136 15.3899L39.0046 15.2126L38.4311 14.2238C38.1157 13.68 37.8241 13.1767 37.7832 13.1055C37.7423 13.0342 37.4609 12.5484 37.1578 12.0258C36.8548 11.5032 36.5732 11.0174 36.5319 10.9461C36.4906 10.8749 36.2089 10.389 35.9059 9.86644C35.6029 9.34387 35.3165 8.8483 35.2694 8.76517C35.2224 8.68203 35.1693 8.59458 35.1515 8.57082C35.1337 8.54707 35.0604 8.42075 34.9886 8.29011C34.8865 8.10427 33.5927 5.86157 33.2072 5.20224C33.1655 5.13098 32.8837 4.64512 32.581 4.12256C32.2783 3.6 31.9939 3.10926 31.9491 3.03209C31.9043 2.95491 31.8288 2.82371 31.7813 2.74058C31.5895 2.40493 31.5186 2.28266 31.1551 1.6609C30.9469 1.30461 30.7178 0.906207 30.6461 0.775566C30.5744 0.644925 30.4798 0.486472 30.4359 0.423419C30.392 0.360366 30.3561 0.295326 30.3561 0.278915C30.3561 0.232575 30.1811 -0.0020167 30.1481 1.30927e-05C30.1319 0.00100639 28.2363 3.2805 25.9358 7.28782ZM12.386 30.8013C12.2865 30.9735 12.1372 31.2311 12.0542 31.3736C11.8478 31.7278 11.2879 32.6955 11.1876 32.8713C11.1202 32.9892 9.66946 35.5043 9.41086 35.9514C9.36966 36.0227 9.20019 36.3142 9.03426 36.5992C8.86834 36.8842 8.68337 37.2049 8.62317 37.3118C8.52544 37.4854 7.60577 39.0799 6.75498 40.5508C6.58327 40.8477 6.03873 41.7903 5.54493 42.6454C5.05113 43.5005 4.57944 44.3167 4.49673 44.4592C4.41403 44.6018 4.28779 44.8253 4.21619 44.9559C4.14459 45.0865 4.07138 45.2129 4.05355 45.2366C3.95659 45.3657 3.80328 45.6828 3.8266 45.7061C3.8415 45.7211 7.78456 45.7333 12.589 45.7333H21.3243L21.5359 45.377C21.7312 45.0484 21.8048 44.922 22.0269 44.5348C22.0712 44.4576 22.144 44.3313 22.1887 44.2541C22.2334 44.1769 22.5896 43.5599 22.9803 42.8829C23.3709 42.206 23.842 41.391 24.0271 41.0718C24.2122 40.7527 24.3976 40.432 24.4391 40.3592C24.4806 40.2865 24.9186 39.5273 25.4125 38.6722C25.9064 37.8171 26.3777 37.0008 26.4599 36.8583C26.5422 36.7158 26.6459 36.5361 26.6905 36.4589C26.7351 36.3816 26.8105 36.2505 26.858 36.1673C26.9753 35.9619 28.8872 32.651 29.1086 32.2697C29.1534 32.1925 29.229 32.0613 29.2765 31.9782C29.4658 31.6469 29.5348 31.5274 29.8104 31.0549C29.9681 30.7846 30.097 30.5465 30.097 30.5258C30.097 30.5046 26.2769 30.4882 21.3319 30.4882H12.5669L12.386 30.8013ZM30.2266 30.5253C30.2266 30.5457 30.4236 30.9004 30.6644 31.3135C30.9053 31.7266 31.1362 32.1229 31.1776 32.1941C31.2189 32.2654 31.4617 32.6832 31.7171 33.1227C31.9725 33.5621 32.2152 33.9799 32.2563 34.0512C32.2974 34.1224 32.5014 34.4722 32.7095 34.8285C32.9176 35.1848 33.1217 35.5346 33.1631 35.6059C33.2044 35.6772 33.4867 36.163 33.7902 36.6856C34.0937 37.2081 34.5112 37.9272 34.718 38.2835C34.9248 38.6398 35.2646 39.2228 35.4732 39.5791C35.6818 39.9354 35.8862 40.2852 35.9273 40.3565C36.0231 40.5224 36.9066 42.0424 37.0067 42.2135C37.0736 42.3279 38.063 44.0336 38.2593 44.3729C38.8694 45.4277 39.0168 45.6733 39.0556 45.7002C39.1097 45.7376 56.5444 45.7452 56.5817 45.7078C56.5957 45.6939 56.5476 45.5821 56.4748 45.4595C56.4021 45.3369 56.294 45.1502 56.2345 45.0446C56.1751 44.9389 56.068 44.7543 55.9964 44.6343C55.9249 44.5143 55.5075 43.7942 55.0688 43.0341C54.6301 42.274 54.2371 41.5938 54.1955 41.5225C54.1539 41.4513 53.6487 40.5767 53.0728 39.5791C52.4969 38.5815 51.9891 37.7021 51.9445 37.6249C51.8998 37.5477 51.8267 37.4214 51.7821 37.3442C51.7374 37.267 51.2297 36.3876 50.6538 35.39C50.0779 34.3923 49.5726 33.5178 49.5309 33.4466C49.4892 33.3753 49.1056 32.7099 48.6783 31.9679C48.2511 31.2259 47.8771 30.5894 47.8473 30.5535C47.7993 30.4957 46.7945 30.4882 39.0099 30.4882C34.1443 30.4882 30.2266 30.5048 30.2266 30.5253Z" fill="white"/>
<path fill-rule="evenodd" clip-rule="evenodd" d="M44.9178 50.078C43.4713 50.2821 42.6638 51.1546 42.6638 52.5133C42.6638 52.8644 42.7819 53.3854 42.926 53.6698C43.2057 54.222 43.7882 54.7299 44.8015 55.3052C46.4117 56.2193 46.8693 56.5921 46.9787 57.0787C47.0648 57.4622 46.8554 57.9556 46.5235 58.1515C46.1396 58.378 45.4163 58.4325 45.0765 58.2606C44.7097 58.0749 44.4265 57.7385 44.3141 57.355C44.2159 57.0198 44.1758 56.8355 44.1756 56.718L44.1753 56.5992H43.3764H42.5774L42.5776 56.718C42.5777 56.7833 42.6063 57.0117 42.6412 57.2254C42.8363 58.4225 43.2988 59.1228 44.1537 59.5157C44.6282 59.7338 44.8545 59.7734 45.6221 59.7728C46.2118 59.7723 46.3634 59.7577 46.6561 59.6735C47.6595 59.3849 48.3485 58.7487 48.6057 57.8732C48.6599 57.6888 48.6812 57.4709 48.6795 57.1175C48.6775 56.6989 48.6592 56.5677 48.5632 56.2828C48.2731 55.4224 47.8404 55.0272 46.1187 54.0501C44.9978 53.4139 44.6322 53.1361 44.4592 52.7889C44.2196 52.308 44.4039 51.8419 44.9318 51.5937C45.2314 51.4529 45.7985 51.4492 46.0844 51.5862C46.4629 51.7676 46.7521 52.1756 46.8579 52.6774C46.8845 52.8036 46.9257 52.9311 46.9496 52.9607C46.9998 53.023 48.4732 53.0402 48.511 52.979C48.5343 52.9412 48.4376 52.2777 48.3714 52.0214C48.2501 51.5516 48.0233 51.1568 47.6759 50.811C47.1723 50.3096 46.5967 50.0893 45.7085 50.058C45.4234 50.0479 45.0677 50.0569 44.9178 50.078ZM20.5088 50.1463C19.3099 50.2838 18.5865 50.8062 18.2331 51.7898C18.1756 51.95 18.1576 52.1381 18.1571 52.5828C18.1566 53.0845 18.1703 53.2034 18.2554 53.4347C18.4197 53.8811 18.5636 54.0985 18.9511 54.4857C19.3974 54.9316 19.761 55.1883 20.8111 55.7988C22.169 56.5884 22.4136 56.815 22.4434 57.3104C22.4701 57.7553 22.238 58.122 21.8045 58.3198C21.6028 58.4118 21.5016 58.4285 21.135 58.4302C20.7628 58.4319 20.6736 58.4177 20.4891 58.3273C20.0283 58.1015 19.7354 57.6361 19.6666 57.0203L19.6389 56.772H18.8375H18.036L18.0661 57.0775C18.2267 58.7067 19.0184 59.6841 20.3793 59.9334C20.7746 60.0058 21.336 60.022 21.5885 59.9682C22.0994 59.8594 22.2231 59.8267 22.4522 59.74C22.782 59.6153 23.1237 59.3946 23.3936 59.1322C23.6752 58.8584 23.8382 58.6097 23.9929 58.2176C24.1037 57.9367 24.1118 57.8728 24.1124 57.2686C24.113 56.7522 24.0974 56.5771 24.0354 56.4052C23.7163 55.5202 23.0536 54.9295 21.3942 54.0512C20.5288 53.5932 20.074 53.2581 19.924 52.9681C19.7609 52.6526 19.8121 52.1725 20.0361 51.9174C20.2503 51.6734 20.5117 51.5766 20.9623 51.5744C21.3641 51.5724 21.4873 51.6098 21.7713 51.8198C22.0103 51.9964 22.2219 52.4304 22.2729 52.8483L22.3011 53.0795L23.1388 53.0912L23.9764 53.103L23.9483 52.7666C23.8865 52.0251 23.5923 51.3389 23.1469 50.8974C22.642 50.3969 22.0458 50.171 21.1586 50.1441C20.8844 50.1358 20.592 50.1368 20.5088 50.1463ZM0.599609 54.9789V59.7519H1.37344C1.79904 59.7519 2.17801 59.7401 2.21558 59.7257C2.277 59.7021 2.2839 59.3936 2.2839 56.681C2.2839 54.6489 2.29837 53.6625 2.32817 53.6625C2.35249 53.6625 2.39131 53.7123 2.41441 53.773C2.43756 53.8338 2.50506 53.9893 2.56453 54.1185C2.72575 54.4691 2.86844 54.7835 2.96514 55.0013C3.12087 55.352 3.24188 55.6197 3.50212 56.189C3.89184 57.0415 4.00719 57.2953 4.22715 57.7839C4.31352 57.9759 4.32777 57.9887 4.37087 57.9135C4.42002 57.8278 5.07081 56.472 5.22978 56.1242C5.27866 56.0173 5.4157 55.7258 5.53438 55.4764C5.65305 55.227 5.80369 54.9063 5.86916 54.7638C6.23556 53.9658 6.38978 53.6625 6.42908 53.6625C6.45849 53.6625 6.47305 54.6621 6.47305 56.681C6.47305 59.3936 6.47996 59.7021 6.54137 59.7257C6.6429 59.7646 8.04061 59.7561 8.10353 59.7162C8.14655 59.6889 8.15544 58.708 8.14672 54.9554L8.13575 50.2291L7.21694 50.2175L6.29818 50.2058L6.14297 50.5414C6.05763 50.726 5.86575 51.149 5.71662 51.4816C5.5675 51.8141 5.39488 52.198 5.33304 52.3345C5.27124 52.4711 5.17087 52.6946 5.11002 52.8312C4.5837 54.0129 4.37321 54.456 4.3317 54.4698C4.30782 54.4778 4.26213 54.4112 4.23013 54.3218C4.19813 54.2323 4.11637 54.0372 4.04848 53.8882C3.98059 53.7391 3.92501 53.6084 3.92501 53.5977C3.92501 53.5871 3.86744 53.4526 3.79705 53.2989C3.72665 53.1453 3.49159 52.6055 3.27461 52.0994C3.05769 51.5933 2.85384 51.121 2.82171 51.0497C2.78954 50.9784 2.69548 50.7647 2.61273 50.5746L2.46227 50.2291L1.53094 50.2175L0.599609 50.2059V54.9789ZM9.73237 50.2606C9.72084 50.2908 9.71644 52.4338 9.72253 55.0229L9.73367 59.7303L10.4678 59.7426C10.8716 59.7494 11.2458 59.7441 11.2994 59.7309L11.3968 59.707L11.3857 54.9681L11.3748 50.2291L10.564 50.2174C9.93898 50.2083 9.74848 50.2182 9.73237 50.2606ZM12.1835 50.9222L12.1953 51.6375L13.1886 51.6459L14.1819 51.6543L14.2035 55.6923L14.2251 59.7303L14.9593 59.7426C15.3631 59.7494 15.7372 59.7442 15.7906 59.731L15.8878 59.7071V55.6915C15.8878 53.4829 15.8927 51.6719 15.8986 51.6671C15.9046 51.6623 16.3661 51.6477 16.9243 51.6348L17.9392 51.6111V50.9201V50.2291L15.0554 50.218L12.1717 50.2069L12.1835 50.9222ZM24.8889 50.2658C24.8766 50.2978 24.8735 51.9254 24.882 53.8827C24.8972 57.3776 24.8992 57.4474 24.9912 57.778C25.1938 58.5059 25.5986 59.0683 26.154 59.3936C26.7889 59.7655 27.1998 59.8601 28.1745 59.8585C28.8063 59.8574 28.9566 59.8436 29.2523 59.7591C30.039 59.5343 30.6628 59.0453 30.9789 58.4056C31.3398 57.6755 31.3512 57.5223 31.3382 53.5761L31.3272 50.2291L30.4958 50.2174L29.6645 50.2057L29.6636 53.4996C29.6631 55.4544 29.6453 56.9146 29.6197 57.0912C29.5401 57.6419 29.3032 58.0006 28.8655 58.2328C28.6682 58.3375 28.6067 58.3474 28.1529 58.3478C27.6984 58.3483 27.6343 58.338 27.3973 58.227C27.0106 58.046 26.8366 57.8598 26.6713 57.4499C26.5824 57.2295 26.5805 57.1624 26.5671 53.7705C26.5596 51.8703 26.5538 50.2912 26.5542 50.2615C26.5554 50.1797 24.9203 50.1839 24.8889 50.2658ZM32.4714 50.2473C32.4713 50.2729 32.4712 52.4065 32.471 54.9886C32.4709 59.2211 32.4776 59.687 32.5391 59.7214C32.5772 59.7427 33.4401 59.7509 34.4937 59.74C36.6295 59.7178 36.7597 59.7022 37.395 59.3933C37.8224 59.1855 38.3127 58.7334 38.4869 58.3864C38.7368 57.8885 38.7946 57.6462 38.7949 57.0959C38.7952 56.5275 38.7221 56.2169 38.4897 55.7999C38.3124 55.4819 37.8507 55.0483 37.5107 54.8807C37.352 54.8025 37.2222 54.7223 37.2222 54.7024C37.2222 54.6825 37.2844 54.6405 37.3604 54.609C37.5485 54.5311 38.0011 54.0754 38.1393 53.8248C38.402 53.3485 38.4469 53.1637 38.4469 52.5612C38.4469 52.0771 38.4331 51.9641 38.3467 51.7407C38.1025 51.1093 37.6417 50.6591 37.0181 50.4423C36.4433 50.2425 36.416 50.2402 34.4043 50.22C33.0369 50.2063 32.4716 50.2142 32.4714 50.2473ZM39.7902 50.2615C39.7789 50.2912 39.7746 52.4338 39.7807 55.0229L39.7918 59.7303H40.6124H41.433L41.4439 54.9689L41.4549 50.2075H40.6328C40.0149 50.2075 39.8056 50.2209 39.7902 50.2615ZM49.5571 50.275C49.517 50.3793 49.5265 59.6355 49.5667 59.6988C49.5934 59.7409 49.8025 59.751 50.4622 59.742L51.3228 59.7303L51.334 57.6465L51.3452 55.5627H53.0723C54.0221 55.5627 54.8037 55.5676 54.8091 55.5735C54.8145 55.5795 54.829 56.5172 54.8415 57.6573L54.8641 59.7303H55.6847H56.5052V54.9797V50.2291L55.6307 50.2174L54.7562 50.2058L54.7555 52.0313C54.7551 53.0354 54.7393 53.8814 54.7202 53.9114C54.6931 53.954 54.325 53.9634 53.0258 53.9545L51.366 53.9432L51.3444 52.0862L51.3228 50.2291L50.4532 50.2175C49.6885 50.2072 49.5804 50.2142 49.5571 50.275ZM58.1607 50.2507C58.1528 50.2744 58.1513 52.4224 58.1575 55.0238L58.1687 59.7537L58.9997 59.742L59.8306 59.7303L59.8416 54.9689L59.8526 50.2075H59.0139C58.4934 50.2075 58.1697 50.2239 58.1607 50.2507ZM36.0719 51.7578C36.3946 51.8991 36.5232 52.0091 36.6499 52.2519C36.7515 52.4468 36.766 52.5239 36.7647 52.8636C36.7632 53.2928 36.6904 53.4956 36.4596 53.7137C36.2271 53.9335 35.9733 54.0059 35.3508 54.0303L34.7822 54.0525L34.7704 54.8018L34.7586 55.5511L35.4182 55.5753C36.2131 55.6044 36.513 55.6986 36.7652 55.9983C36.9712 56.2431 37.0203 56.4124 37.021 56.8799C37.0215 57.2624 37.008 57.3401 36.9034 57.559C36.8377 57.6964 36.7073 57.8728 36.61 57.9561C36.3001 58.2214 36.1462 58.2536 35.0953 58.2732L34.1559 58.2908V54.9906C34.1559 53.1754 34.1705 51.6751 34.1883 51.6565C34.2061 51.6379 34.59 51.6324 35.0413 51.6443C35.7545 51.663 35.8893 51.6779 36.0719 51.7578Z" fill="white"/>
</svg>
