<svg width="126" height="24" viewBox="0 0 126 24" fill="none" xmlns="http://www.w3.org/2000/svg">
<path fill-rule="evenodd" clip-rule="evenodd" d="M0.852539 9.35039V18.7008L4.5941 18.6883L8.33566 18.6758L8.34819 15.2061L8.36067 11.7363H9.18913H10.0175V15.2183V18.7002H13.7743H17.531L17.5119 15.3278C17.4906 11.5779 17.4903 11.5752 17.156 10.8762C16.8761 10.2908 16.0732 9.51674 15.4166 9.19918C15.2893 9.13757 15.185 9.07436 15.185 9.05868C15.185 9.04305 15.2564 8.98973 15.3435 8.94025C15.6984 8.73868 16.4229 8.15143 16.633 7.89494C17.2123 7.18784 17.5259 6.09246 17.5244 4.78111C17.5232 3.7676 17.2711 2.90359 16.7426 2.10221C15.9344 0.876766 14.8548 0.217097 13.3813 0.0482601C13.134 0.0199176 10.5251 0.000633079 6.90972 0.000389587L0.852539 0V9.35039ZM49.5538 2.14273V4.28546H46.7543H43.9548L43.887 4.51678C43.8497 4.64398 43.3719 6.33138 42.8252 8.26655C42.2786 10.2017 41.8193 11.785 41.8047 11.785C41.7901 11.785 41.331 10.1469 40.7845 8.14481C40.238 6.14267 39.7724 4.45532 39.7498 4.39503L39.7087 4.28546H36.295C34.4174 4.28546 32.8813 4.29091 32.8813 4.29763C32.8813 4.30435 34.1 7.50929 35.5895 11.4198C37.079 15.3303 38.3003 18.5626 38.3035 18.6028C38.3067 18.643 37.8745 19.8483 37.3431 21.2812C36.8117 22.7142 36.3668 23.9141 36.3544 23.9478C36.3364 23.9966 37.034 24.0065 39.8102 23.9965L43.2887 23.984L46.3847 15.8879L49.4806 7.79189L49.493 13.246L49.5054 18.7002H53.064H56.6225V13.5625V8.42482H57.8418H59.0611L59.0484 6.36732L59.0356 4.30981L57.8291 4.29681L56.6225 4.28375V2.1419V0H53.0881H49.5538V2.14273ZM59.7425 9.35009V18.7002H63.3013H66.86V13.5625V8.42482H67.6156H68.3713V13.5628V18.7008L71.9666 18.6883L75.5619 18.6758V12.9538C75.5619 7.62018 75.5559 7.20644 75.4744 6.85936C75.1313 5.39948 73.8331 4.19809 72.2469 3.87235C71.7472 3.76974 70.6943 3.76945 70.1019 3.87177C68.9091 4.07776 67.909 4.46623 67.1997 4.99928L66.86 5.25461V2.62728V0H63.3013H59.7425V9.35009ZM25.1788 3.53818C23.1809 3.72947 21.7993 4.15076 20.6036 4.93334C19.3107 5.77953 18.7679 6.65035 18.7079 7.97436L18.6808 8.57092H22.0273H25.3738V7.69435V6.81778H26.1302H26.8865L26.8736 8.19351L26.8606 9.56924L25.3006 9.60328C22.4942 9.66449 21.6984 9.75127 20.7113 10.1037C20.065 10.3344 19.6136 10.6144 19.174 11.0569C18.8715 11.3615 18.758 11.5209 18.5813 11.8893C18.2841 12.5092 18.2066 12.8504 18.1736 13.6843C18.1249 14.9114 18.3114 15.9566 18.7297 16.8009C19.0374 17.4222 19.6438 18.0462 20.233 18.3479C21.0317 18.7569 21.98 18.9306 23.1313 18.879C24.7579 18.806 26.0177 18.1991 26.9234 17.0522L27.1288 16.7922L27.129 17.2714C27.1292 17.5349 27.1434 17.9642 27.1608 18.2254L27.1922 18.7002H30.477H33.7617L33.7476 13.4773L33.7335 8.25438L33.6024 7.77826C33.3358 6.81052 32.7761 5.89168 32.098 5.30866C30.9519 4.3233 29.5682 3.7547 27.8356 3.55713C27.4372 3.51169 25.593 3.49854 25.1788 3.53818ZM82.6306 3.53497C82.5502 3.54568 82.2431 3.57807 81.9481 3.60694C80.0619 3.79171 78.6804 4.34443 77.8012 5.26605C76.6116 6.51312 76.0516 8.40846 76.0548 11.1763C76.0571 13.089 76.3046 14.3867 76.9006 15.6111C77.9003 17.6647 79.652 18.6033 82.9475 18.851C83.8627 18.9197 85.7328 18.8815 86.4575 18.7793C89.4647 18.3549 91.1174 17.104 91.9349 14.6334C92.0446 14.3016 92.21 13.5823 92.21 13.4365C92.21 13.4101 90.7334 13.3921 88.5781 13.3921H84.9462V14.4391V15.4861H84.1906H83.435V13.7573V12.0285H87.8774H92.3199L92.2937 10.9206C92.2516 9.13329 92.0045 7.92815 91.4492 6.80102C90.5756 5.02796 88.9997 4.0445 86.36 3.62511C85.9802 3.56472 85.452 3.54013 84.3125 3.52966C83.4679 3.52192 82.7111 3.5243 82.6306 3.53497ZM99.1081 3.55771C97.1675 3.75114 95.9243 4.14964 95.0188 4.86843C93.8453 5.79998 93.0946 7.52137 92.8886 9.75332C92.815 10.5507 92.8569 12.5981 92.9611 13.2851C93.2543 15.2203 93.8996 16.586 94.9287 17.4493C96.1705 18.491 98.2876 18.9538 101.472 18.8797C105.3 18.7907 107.111 17.9681 108.173 15.8375C108.566 15.0478 108.801 14.2186 108.963 13.0457C109.066 12.2999 109.08 10.2064 108.987 9.47184C108.739 7.52293 108.177 6.17189 107.217 5.22237C106.348 4.36328 105.332 3.93658 103.461 3.64488C102.922 3.56088 102.539 3.5414 101.18 3.52893C100.282 3.5207 99.3494 3.53365 99.1081 3.55771ZM10.0175 5.60032V7.64565H9.21316H8.40878V5.60032V3.55498H9.21316H10.0175V5.60032ZM120.412 3.80033C118.889 3.90323 117.68 4.34677 116.872 5.09975L116.647 5.30934L116.616 5.12614C116.6 5.02533 116.586 4.7292 116.586 4.46808L116.585 3.99327H113.197H109.809V11.3471V18.7008L113.331 18.6884L116.853 18.6758L116.866 13.5503L116.878 8.42482H117.609H118.34V13.5625V18.7002H121.996H125.652V13.2523C125.652 7.32332 125.653 7.33057 125.378 6.64592C124.786 5.167 123.142 3.9733 121.462 3.80106C121.187 3.77286 120.959 3.75299 120.955 3.75694C120.951 3.76088 120.707 3.78041 120.412 3.80033ZM84.9219 8.23003V9.61793L84.1784 9.63138L83.435 9.64482V8.23003V6.81524L84.1784 6.82868L84.9219 6.84213V8.23003ZM101.667 11.1519V15.4861H100.936H100.205V11.1519V6.81778H100.936H101.667V11.1519ZM26.885 13.4164V15.0478H26.0807H25.2763V13.4489C25.2763 12.5694 25.2909 11.8353 25.3088 11.8175C25.3266 11.7996 25.6886 11.785 26.1132 11.785H26.885V13.4164Z" fill="white"/>
</svg>
