<svg width="74" height="54" viewBox="0 0 74 54" fill="none" xmlns="http://www.w3.org/2000/svg">
<path fill-rule="evenodd" clip-rule="evenodd" d="M43.9611 28.2438C41.0393 28.5606 38.4902 29.7247 36.4718 31.6639C36.0866 32.0339 35.6084 32.5362 35.4091 32.7801C33.4128 35.2232 32.4149 38.3451 32.6554 41.3951C33.0073 45.8596 35.4507 49.5631 39.372 51.5759C43.1147 53.4969 47.2377 53.5246 50.9714 51.6536C53.4648 50.4041 55.4746 48.4052 56.6029 46.0525C56.8658 45.5043 57.0938 44.9286 57.0938 44.8127C57.0939 44.7527 56.5556 44.7368 54.599 44.7389L52.1041 44.7417L51.7367 45.236C49.8076 47.8324 46.0371 48.9906 42.8329 47.9708C39.9887 47.0656 37.8964 44.6628 37.4078 41.7406C37.2812 40.9837 37.3123 39.5893 37.4721 38.8585C38.0715 36.1167 39.9525 34.0131 42.5835 33.1422C45.0268 32.3335 47.6788 32.6795 49.8387 34.0887C50.3822 34.4433 51.5844 35.6134 51.8285 36.0254L51.9816 36.2838L54.2316 36.2854L56.4817 36.2871V32.5217V28.7564H54.5531H52.6245V29.9324V31.1084L52.3643 30.8579C51.0992 29.64 49.2127 28.7397 47.1754 28.3815C46.4898 28.261 44.5638 28.1785 43.9611 28.2438ZM21.2465 28.3938C17.8775 28.8588 15.3226 31.2452 14.9074 34.3147C14.7531 35.4556 14.9434 36.8522 15.3864 37.8292C16.1451 39.5023 17.7705 40.8634 20.0086 41.6995C20.3379 41.8225 21.1369 42.0754 21.7841 42.2615C23.5476 42.7685 24.0699 42.9484 24.6696 43.2551C26.019 43.9453 26.6257 45.0205 26.427 46.369C26.1916 47.9664 24.9156 49.0278 23.1139 49.1251C21.2304 49.2268 19.751 48.1333 19.3545 46.3465C19.3007 46.1042 19.2567 45.8218 19.2567 45.719V45.5321H17.1444H15.0322V49.0525V52.573H16.8689H18.7057V51.8383C18.7057 51.4342 18.7133 51.1036 18.7225 51.1036C18.7318 51.1036 18.9021 51.2575 19.1011 51.4456C20.555 52.8206 22.4943 53.3025 24.9507 52.8995C27.8612 52.4219 30.1585 50.3501 30.8648 47.5657C31.2499 46.048 31.1799 44.5171 30.666 43.2124C30.0727 41.7064 28.859 40.5006 27.0918 39.6617C26.2502 39.2621 25.4851 39.0013 23.6589 38.4914C21.4762 37.8819 20.7789 37.573 20.1638 36.9433C19.2293 35.9867 19.2502 34.1924 20.2077 33.1687C20.8449 32.4875 21.6408 32.1674 22.7159 32.1597C23.432 32.1547 23.7451 32.2264 24.3673 32.5381C25.1907 32.9507 25.9267 34.1183 25.9295 35.0166L25.9303 35.2462H28.0119H30.0936V32.0319V28.8176H28.318H26.5425V29.4606V30.1037L26.3192 29.8565C25.7929 29.274 24.6612 28.6808 23.6955 28.4813C23.1007 28.3585 21.8315 28.3131 21.2465 28.3938ZM70.8533 28.7582C69.8474 29.0108 69.1893 30.0398 69.3933 31.041C69.5938 32.0251 70.3268 32.6383 71.3059 32.6412C71.7199 32.6424 71.8203 32.6183 72.191 32.4291C73.5948 31.7123 73.6083 29.6597 72.2139 28.9544C71.778 28.734 71.2518 28.6581 70.8533 28.7582ZM58.6858 30.7156V32.6135H60.0021H61.3185V40.6953V48.777H60.0021H58.6858V50.675V52.573H63.645H68.6043V50.675V48.777H67.2877H65.9711L65.9866 40.7106L66.0022 32.6442L67.3032 32.6276L68.6043 32.6111V30.7143V28.8176H63.645H58.6858V30.7156ZM71.8821 29.1645C72.0714 29.2291 72.2877 29.3727 72.47 29.555C73.1099 30.1948 73.1074 31.1774 72.4644 31.8206C71.9372 32.3476 71.2261 32.4543 70.5535 32.1072C69.3776 31.5002 69.3776 29.8697 70.5535 29.2628C71.0047 29.0299 71.4008 29.0006 71.8821 29.1645ZM70.441 30.685V31.8788H70.6247H70.8084V31.389V30.8992H71.0223C71.2 30.8992 71.265 30.939 71.4066 31.1345C71.5003 31.2638 71.6287 31.4842 71.6918 31.6243C71.7937 31.8503 71.8299 31.8788 72.0141 31.8788H72.2217L72.057 31.588C71.9664 31.428 71.8143 31.1962 71.719 31.0729L71.5458 30.8485L71.755 30.7251C72.2112 30.4559 72.1556 29.7382 71.6655 29.571C71.5477 29.5309 71.2239 29.4964 70.9461 29.4945L70.441 29.4911V30.685ZM71.6148 29.9597C71.754 30.0857 71.7583 30.273 71.6254 30.4199C71.5493 30.5041 71.4352 30.5319 71.1662 30.5319H70.8084V30.1952V29.8584H71.1556C71.3928 29.8584 71.5383 29.8906 71.6148 29.9597Z" fill="white"/>
<path fill-rule="evenodd" clip-rule="evenodd" d="M3.27362 1.02517C2.09706 1.19831 1.10294 2.04561 0.763939 3.1642C0.645284 3.55579 0.64357 3.78478 0.659366 17.4693L0.675346 31.3764L1.44066 30.7945C11.5358 23.1186 33.1502 11.5961 55.9923 1.71316C56.8847 1.32707 57.6262 0.999699 57.6403 0.985679C57.6896 0.936331 3.61036 0.975577 3.27362 1.02517ZM59.972 1.59156C50.6685 5.81053 43.0738 10.2216 38.3252 14.1642C37.3388 14.9831 35.8076 16.5085 35.3361 17.142C34.5835 18.1529 34.2574 18.889 34.2574 19.5767C34.2574 20.8638 35.3854 21.7164 37.5636 22.0755C38.6242 22.2504 40.0017 22.2662 54.2627 22.2663L68.9109 22.2665L68.91 13.0368C68.909 2.86364 68.9291 3.40793 68.5267 2.65119C68.1778 1.99504 67.5674 1.48344 66.7804 1.1876C66.4465 1.06209 66.3175 1.0556 63.8292 1.03937L61.2271 1.02241L59.972 1.59156Z" fill="white"/>
</svg>
