<svg width="126" height="56" viewBox="0 0 126 56" fill="none" xmlns="http://www.w3.org/2000/svg">
<path fill-rule="evenodd" clip-rule="evenodd" d="M111.303 0.181505C111.248 0.228546 107.99 4.7732 104.062 10.2808C100.134 15.7884 96.8842 20.3313 96.84 20.3762C96.7824 20.4346 95.6079 20.6879 92.7018 21.2689C90.47 21.7149 85.0818 22.7917 80.7279 23.6617C72.6348 25.2789 72.6834 25.2679 72.6834 25.4725C72.6834 25.5025 72.7119 25.5657 72.7467 25.613C72.7933 25.6763 75.3009 26.3407 82.2763 28.1379C87.4828 29.4793 91.8033 30.5714 91.8773 30.5647C91.987 30.5549 92.8566 29.6425 96.5684 25.6434C99.0744 22.9434 101.156 20.7163 101.194 20.6945C101.327 20.6174 101.526 20.6787 101.573 20.811C101.611 20.9202 100.667 22.8896 94.3237 35.9294C90.3124 44.1754 86.9646 51.0611 86.8841 51.231C86.7643 51.484 86.7473 51.5605 86.7903 51.6542C86.8573 51.8003 87.0226 51.8535 87.1469 51.7689C87.1996 51.7331 90.4271 47.2525 94.3191 41.8121L101.395 31.9204L113.44 29.4371C121.367 27.8027 125.513 26.9277 125.57 26.8773C125.682 26.7774 125.679 26.6563 125.562 26.5512C125.502 26.497 122.108 25.6023 116.082 24.0519C110.919 22.7237 106.645 21.6157 106.584 21.5896C106.509 21.5575 106.474 21.5005 106.474 21.4123C106.474 21.3408 107.647 16.6112 109.08 10.902C110.514 5.19285 111.687 0.448654 111.687 0.359409C111.687 0.248964 111.657 0.181017 111.592 0.146579C111.462 0.0773127 111.419 0.0824906 111.303 0.181505ZM3.20935 33.9036C1.79916 34.246 0.81334 35.3286 0.57612 36.7953C0.504703 37.2366 0.535346 37.846 0.651816 38.3017C0.954797 39.4875 1.88095 40.4052 3.12145 40.7489C3.49074 40.8512 3.61621 40.856 6.62772 40.8817L9.75098 40.9084L9.98328 41.044C10.3969 41.2855 10.5972 41.8041 10.462 42.2836C10.3788 42.5789 10.0674 42.9061 9.80016 42.979C9.66466 43.016 8.34674 43.0328 5.56556 43.033C1.7818 43.0332 1.52294 43.0386 1.45206 43.1187C1.29791 43.2929 0.224741 45.3821 0.252481 45.454C0.277664 45.5191 0.850721 45.5259 5.18812 45.5125C10.686 45.4955 10.3158 45.5192 11.1282 45.1318C11.9924 44.7196 12.6002 43.9928 12.9076 43.0038C13.0492 42.5483 13.0353 41.4203 12.882 40.9328C12.6849 40.3058 12.454 39.9247 11.9913 39.4625C11.6522 39.1237 11.49 39.0033 11.1528 38.8401C10.3664 38.4597 10.518 38.4742 6.99661 38.444L3.84876 38.4171L3.61188 38.3013C3.19228 38.0962 2.98049 37.6049 3.0886 37.0877C3.15559 36.7672 3.3632 36.5137 3.67661 36.3696C3.89415 36.2696 3.97108 36.2674 8.17705 36.2434L12.4562 36.219L13.0615 35.077C13.3945 34.4489 13.6552 33.9049 13.641 33.868C13.6193 33.8118 12.8073 33.8016 8.60895 33.8045C3.81408 33.8079 3.5862 33.8121 3.20935 33.9036ZM18.8483 33.8621C18.8354 33.8957 18.8306 36.5279 18.8376 39.7116L18.8502 45.5001H20.1782H21.5062L21.5308 40.9188C21.5523 36.9184 21.5648 36.3315 21.6292 36.2899C21.6757 36.2599 22.8928 36.247 24.9246 36.2551C28.0715 36.2675 28.1514 36.2702 28.3676 36.3696C28.7867 36.5623 29.0417 36.9783 28.9947 37.3927C28.9372 37.8986 28.5947 38.2874 28.1167 38.3892C27.9672 38.421 27.1542 38.4418 26.0412 38.4423C25.0348 38.4427 24.1875 38.4592 24.1582 38.4789C24.065 38.5418 22.9508 40.6927 22.9673 40.7778C22.9819 40.853 23.2006 40.8595 25.7123 40.8595C28.829 40.8595 28.8551 40.8568 29.6617 40.4559C30.5392 40.0198 31.1701 39.2124 31.4235 38.2014C31.5688 37.6216 31.5376 36.7345 31.3518 36.1691C30.959 34.9731 30.0094 34.1369 28.7507 33.8788C28.4194 33.8108 27.774 33.801 23.6217 33.801C19.867 33.801 18.8669 33.8138 18.8483 33.8621ZM36.6045 33.8612C36.5914 33.8953 36.5865 36.5279 36.5935 39.7116L36.6061 45.5001H37.9095H39.2129V39.6628V33.8254L37.9206 33.8124C36.9133 33.8023 36.623 33.813 36.6045 33.8612ZM44.9171 33.8605C44.9039 33.8949 44.8988 36.5279 44.9058 39.7116L44.9184 45.5001L46.2218 45.5131C47.4036 45.525 47.531 45.5184 47.5867 45.4427C47.6348 45.3774 47.6482 44.3816 47.6482 40.8562C47.6482 37.0416 47.6588 36.3443 47.7175 36.2959C47.7693 36.2533 48.6008 36.2425 51.0006 36.2533L54.2144 36.2678L54.4987 36.4065C55.4024 36.8472 55.1923 38.1746 54.1849 38.3892C54.0348 38.4211 53.2236 38.4416 52.103 38.4416C50.5482 38.4416 50.2578 38.4525 50.2071 38.5133C50.0768 38.6692 49.023 40.714 49.0367 40.7844C49.0494 40.85 49.2959 40.8626 50.9771 40.8839C52.0363 40.8974 52.9145 40.9199 52.9286 40.934C52.9428 40.948 53.4456 41.9592 54.046 43.181C54.6465 44.4027 55.1726 45.4302 55.2153 45.4642C55.2744 45.5114 55.6073 45.523 56.622 45.5131C57.8628 45.5009 57.9523 45.4942 57.9684 45.4111C57.9778 45.3622 57.4498 44.2489 56.7949 42.9371C56.1399 41.6253 55.6183 40.5292 55.6357 40.5013C55.6531 40.4734 55.8189 40.3504 56.0042 40.2281C56.4043 39.9639 56.903 39.4483 57.1371 39.0568C57.5034 38.4442 57.7232 37.5295 57.6651 36.8595C57.5403 35.4212 56.6698 34.3811 55.2214 33.9396L54.8538 33.8276L49.8975 33.8127C45.9011 33.8008 44.9364 33.81 44.9171 33.8605ZM63.2137 33.8613C63.2006 33.8953 63.1957 36.5279 63.2026 39.7116L63.2153 45.5001L64.4997 45.5131C65.541 45.5236 65.7948 45.5134 65.8402 45.459C65.8817 45.4094 65.893 43.8823 65.8838 39.6087L65.8713 33.8254L64.5543 33.8124C63.5273 33.8023 63.2322 33.813 63.2137 33.8613ZM71.6158 33.8399C71.5206 33.9001 70.3661 36.1095 70.3932 36.1797C70.413 36.2308 70.8795 36.2434 72.7589 36.2434C74.2786 36.2434 75.1333 36.2611 75.1951 36.294C75.2881 36.3434 75.2902 36.4456 75.2902 40.8519C75.2902 44.3807 75.3036 45.3774 75.3517 45.4428C75.4075 45.5184 75.5334 45.525 76.692 45.5132L77.9708 45.5001L77.9954 40.9188C78.0169 36.9176 78.0294 36.3317 78.0938 36.2912C78.1371 36.264 79.0009 36.2443 80.1842 36.2434C81.2933 36.2426 82.225 36.2258 82.2547 36.206C82.3429 36.1473 83.455 34.0132 83.455 33.9027V33.801L77.5651 33.8017C74.3256 33.8022 71.6484 33.8194 71.6158 33.8399ZM26.3117 51.0942C25.2532 51.3696 24.5682 52.0922 24.4221 53.0873C24.2396 54.3316 25.0328 55.4256 26.3541 55.7517C26.5391 55.7974 26.877 55.8314 27.1455 55.8314C28.776 55.8314 29.8923 54.8484 29.8923 53.4126C29.8923 52.7014 29.6683 52.184 29.1566 51.7135C28.8122 51.3968 28.3599 51.1663 27.8878 51.067C27.423 50.9692 26.7475 50.9808 26.3117 51.0942ZM34.4318 51.0671C33.8209 51.2383 33.5002 51.4611 33.3106 51.846C33.1935 52.0837 33.1792 52.1628 33.1954 52.4815C33.2111 52.7909 33.2362 52.877 33.3625 53.0555C33.539 53.3048 33.7373 53.4455 34.1145 53.5888C34.352 53.679 34.5418 53.6998 35.4099 53.7303C36.3433 53.7631 36.4464 53.7757 36.6636 53.8828C36.8454 53.9725 36.9159 54.0414 36.9677 54.1797C37.1728 54.7272 36.3876 55.1149 35.2462 55.0299C34.5568 54.9785 34.0175 54.8041 33.4699 54.4553C33.3016 54.3481 33.2186 54.3203 33.1748 54.3566C33.0673 54.4457 32.8257 54.9336 32.8535 55.0054C32.8977 55.1197 33.7213 55.5224 34.196 55.6618C34.7403 55.8216 35.755 55.8798 36.3271 55.784C36.7774 55.7085 37.3152 55.4473 37.5143 55.2074C37.986 54.639 37.8778 53.7386 37.2895 53.3366C36.878 53.0555 36.5997 52.9907 35.5978 52.943C35.0973 52.9192 34.5934 52.8875 34.4779 52.8725C34.2071 52.8375 34.0287 52.6825 33.9914 52.45C33.9656 52.2892 33.9819 52.2485 34.1313 52.1002C34.3546 51.8784 34.6264 51.8076 35.2535 51.8081C35.8422 51.8084 36.214 51.8916 36.7729 52.1477C36.9728 52.2394 37.1662 52.3143 37.2025 52.3143C37.284 52.3143 37.5814 51.7428 37.5467 51.6529C37.5108 51.5601 36.8678 51.2642 36.4339 51.141C35.9451 51.0022 34.8127 50.9604 34.4318 51.0671ZM49.3451 51.062C48.9764 51.1583 48.736 51.272 48.507 51.4584C47.9101 51.9442 47.9321 52.8936 48.551 53.3625C48.9006 53.6273 49.2076 53.692 50.3042 53.7321C51.3621 53.7707 51.521 53.8017 51.7428 54.0118C51.8503 54.1136 51.8781 54.1841 51.8781 54.3544C51.8781 54.8154 51.4153 55.0245 50.4025 55.0209C49.5428 55.0178 48.9623 54.8543 48.3539 54.4437C48.2508 54.3741 48.1407 54.3171 48.1094 54.3171C48.0255 54.3171 47.7239 54.9207 47.7604 55.0153C47.8021 55.1231 48.8244 55.6081 49.2221 55.7088C49.6509 55.8173 50.7794 55.8611 51.2177 55.7862C51.8551 55.6773 52.3177 55.4019 52.5378 55.0001C52.8136 54.4969 52.7425 53.8681 52.3677 53.4959C51.9603 53.0914 51.512 52.969 50.2796 52.926C49.7926 52.909 49.3227 52.8727 49.2352 52.8454C49.0309 52.7817 48.8775 52.587 48.8789 52.3932C48.8811 52.0899 49.1459 51.9101 49.7209 51.8215C50.3298 51.7276 51.0056 51.8404 51.676 52.1477C51.8759 52.2394 52.0693 52.3143 52.1056 52.3143C52.1845 52.3143 52.485 51.7442 52.4517 51.6579C52.4139 51.5601 51.7307 51.2485 51.3096 51.1371C50.8169 51.0066 49.7177 50.9646 49.3451 51.062ZM80.05 51.0714C79.4322 51.2201 78.9571 51.6002 78.8314 52.0465C78.6942 52.533 78.8792 53.0927 79.2649 53.3581C79.6787 53.6429 79.9027 53.6909 80.9957 53.7288C81.8473 53.7583 82.0384 53.7789 82.2254 53.8615C82.4994 53.9826 82.5717 54.0669 82.6033 54.303C82.6694 54.7947 81.9325 55.1044 80.8708 55.0312C80.1649 54.9824 79.572 54.7893 79.0589 54.441C78.9539 54.3698 78.8386 54.3227 78.8025 54.3365C78.7664 54.3502 78.6682 54.4966 78.5843 54.6617C78.4401 54.9454 78.4363 54.9669 78.5149 55.0531C78.6492 55.2005 79.4629 55.5772 79.8891 55.6892C80.3803 55.8185 81.4262 55.869 81.9029 55.7866C82.6406 55.659 83.1022 55.3663 83.3054 54.8971C83.3954 54.6893 83.4123 54.5739 83.3982 54.2642C83.3832 53.937 83.3605 53.8565 83.2319 53.6738C83.0515 53.4175 82.698 53.173 82.3558 53.0678C82.1955 53.0185 81.7139 52.968 81.0449 52.9305C79.8572 52.8638 79.7152 52.8251 79.6213 52.5425C79.4677 52.0802 79.9224 51.8076 80.8482 51.807C81.4465 51.8066 81.8212 51.8907 82.3823 52.1513C82.5903 52.248 82.7949 52.3139 82.837 52.2979C82.9401 52.2585 83.1823 51.7589 83.145 51.6624C83.0797 51.4933 82.1868 51.1404 81.586 51.0463C81.1462 50.9774 80.3892 50.9898 80.05 51.0714ZM2.80824 51.1306C2.77696 51.1503 2.18354 52.1627 1.48949 53.3804C0.470913 55.1675 0.238857 55.6078 0.285829 55.664C0.352426 55.7437 0.852885 55.7603 0.970093 55.6867C1.00993 55.6617 1.17702 55.4147 1.34139 55.1379L1.64034 54.6346H3.08638H4.53243L4.83138 55.1379C4.99575 55.4147 5.16284 55.6617 5.20268 55.6867C5.28388 55.7377 5.7414 55.7498 5.86131 55.704C5.90411 55.6877 5.93913 55.6528 5.93913 55.6265C5.93913 55.5467 3.47342 51.2199 3.39055 51.1542C3.30742 51.0883 2.90115 51.0718 2.80824 51.1306ZM9.05009 51.1255C9.00213 51.1447 8.98861 51.6482 8.98861 53.4122C8.98861 55.4299 8.99702 55.6776 9.06642 55.704C9.10921 55.7203 10.027 55.7337 11.1059 55.7337C12.9949 55.7337 13.0694 55.7302 13.1184 55.6392C13.1884 55.5094 13.1827 55.0337 13.1103 54.9619C13.0668 54.9187 12.6218 54.9033 11.4134 54.9033H9.77557V54.3426V53.7819L10.6978 53.7686L11.62 53.7553V53.3646V52.9738L10.6978 52.9605L9.77557 52.9472V52.4354V51.9236H11.3934C13.2272 51.9236 13.071 51.9647 13.071 51.4816C13.071 51.2475 13.0534 51.1849 12.9759 51.1437C12.8796 51.0926 9.17522 51.0754 9.05009 51.1255ZM16.6246 51.1229C16.5767 51.1441 16.5631 51.6496 16.5631 53.4122C16.5631 55.4299 16.5715 55.6776 16.6409 55.704C16.7521 55.7464 17.2159 55.7393 17.2874 55.6942C17.3303 55.6671 17.3516 55.4107 17.3612 54.8034L17.3747 53.9507L18.2377 53.9375L19.1007 53.9242L19.6395 54.6918C20.4282 55.8156 20.3379 55.7337 20.7876 55.7337C21.1957 55.7337 21.3128 55.6813 21.2335 55.5341C21.2077 55.4864 20.9432 55.1046 20.6455 54.6857C20.348 54.2669 20.1046 53.9082 20.1047 53.8886C20.1048 53.8691 20.1996 53.8144 20.3154 53.7671C20.8415 53.5522 21.1599 53.0761 21.1547 52.5118C21.1518 52.1977 21.0435 51.8661 20.882 51.6773C20.7358 51.5064 20.4332 51.322 20.1429 51.227C19.8612 51.1348 19.6949 51.1246 18.26 51.1108C17.3944 51.1025 16.6584 51.1079 16.6246 51.1229ZM40.6762 51.1255C40.6424 51.1391 40.6157 51.1868 40.6169 51.2315C40.6181 51.2763 41.0601 51.7966 41.5992 52.3876L42.5793 53.4623L42.5807 54.5394C42.5817 55.3103 42.5989 55.6331 42.6411 55.6751C42.7181 55.7516 43.2822 55.7516 43.3592 55.6751C43.4015 55.6331 43.4183 55.3115 43.4186 54.5394L43.419 53.4623L44.4004 52.3876C44.9401 51.7966 45.3826 51.2749 45.3837 51.2284C45.3849 51.1779 45.3358 51.1314 45.262 51.113C45.1305 51.0802 44.4688 51.1047 44.4384 51.1435C44.3019 51.3176 43.0075 52.7042 42.9836 52.7019C42.9657 52.7001 42.6854 52.4018 42.3608 52.039C41.5009 51.0779 41.5204 51.0924 41.0925 51.097C40.8974 51.0991 40.71 51.1119 40.6762 51.1255ZM55.6019 51.1272C55.5252 51.147 55.5157 51.1986 55.5281 51.5245L55.5424 51.8991L56.4154 51.9125L57.2885 51.9258V53.8001C57.2885 55.906 57.2534 55.7337 57.6819 55.7337C58.1105 55.7337 58.0754 55.906 58.0754 53.8001V51.9258L58.9485 51.9125L59.8215 51.8991L59.8358 51.5268C59.8492 51.1744 59.844 51.1528 59.7374 51.1245C59.6084 51.0901 55.7356 51.0927 55.6019 51.1272ZM63.1292 51.1459C63.0492 51.1922 63.0431 51.3525 63.0431 53.4061C63.0431 55.0601 63.058 55.6312 63.1022 55.6751C63.1713 55.7437 67.0568 55.76 67.1647 55.692C67.2099 55.6635 67.2243 55.5464 67.2139 55.2898L67.1993 54.9277L65.5393 54.9148L63.8793 54.902V54.3409V53.7798H64.7548C65.3701 53.7798 65.6478 53.7623 65.6893 53.7212C65.7663 53.6447 65.7663 53.0845 65.6893 53.008C65.6478 52.9668 65.3701 52.9494 64.7548 52.9494H63.8793V52.4371V51.9249L65.4901 51.912L67.1009 51.8991L67.1155 51.5371C67.1259 51.2804 67.1115 51.1633 67.0663 51.1348C66.9713 51.075 63.2337 51.0855 63.1292 51.1459ZM70.6054 51.1459C70.5254 51.1922 70.5193 51.3525 70.5193 53.4061C70.5193 55.0601 70.5341 55.6312 70.5783 55.6751C70.6607 55.7569 71.23 55.7517 71.2995 55.6685C71.3361 55.6247 71.3582 55.1092 71.367 54.0977L71.38 52.5921L72.1853 53.8462C72.6283 54.536 73.011 55.1128 73.0359 55.1281C73.0608 55.1434 73.1103 55.1319 73.1459 55.1026C73.1814 55.0733 73.5623 54.4997 73.9921 53.8279L74.7738 52.6064L74.7868 54.1049C74.7955 55.1111 74.8177 55.6247 74.8543 55.6685C74.9239 55.7517 75.4931 55.7569 75.5755 55.6751C75.6197 55.6312 75.6345 55.06 75.6345 53.4053C75.6345 51.2693 75.6313 51.1925 75.5394 51.1437C75.4212 51.0809 75.0181 51.0775 74.9035 51.1384C74.8566 51.1633 74.434 51.7788 73.9646 52.5062C73.495 53.2335 73.0977 53.8284 73.0816 53.8282C73.0655 53.828 72.6874 53.2619 72.2414 52.5703C71.7954 51.8788 71.3814 51.2635 71.3214 51.203C71.2351 51.116 71.1581 51.0934 70.9519 51.0946C70.8086 51.0954 70.6527 51.1185 70.6054 51.1459ZM27.5444 51.8237C28.1792 51.927 28.7328 52.3174 28.9671 52.8272C29.131 53.1839 29.1221 53.7139 28.9466 54.0484C28.8198 54.2901 28.507 54.6211 28.2692 54.765C27.9013 54.9877 27.2611 55.0893 26.7627 55.0041C26.097 54.8904 25.6266 54.5727 25.3706 54.0641C25.2443 53.8129 25.2197 53.7071 25.2197 53.4134C25.2197 53.1197 25.2443 53.0139 25.3706 52.7627C25.7318 52.0448 26.5996 51.67 27.5444 51.8237ZM19.8792 51.9773C19.9853 52.0065 20.1375 52.0954 20.2173 52.1746C20.3495 52.3059 20.3603 52.3413 20.3381 52.5702C20.2899 53.0687 20.0405 53.1447 18.4543 53.1447H17.3501V52.5341V51.9236L18.5182 51.9238C19.2087 51.924 19.7653 51.9458 19.8792 51.9773ZM3.57711 53.8181C3.30718 53.8258 2.86682 53.8258 2.59847 53.8181L2.11055 53.8042L2.48023 53.1447C2.68356 52.7821 2.90548 52.3895 2.97331 52.2725L3.09671 52.0596L3.58222 52.9319L4.06778 53.8042L3.57711 53.8181ZM93.9017 52.8232C93.4477 52.9644 93.0517 53.3685 92.8983 53.8469C92.7999 54.1539 92.8564 54.7814 93.0089 55.0742C93.2945 55.6231 93.7619 55.9008 94.3987 55.9C94.9149 55.8994 95.221 55.7693 95.5514 55.4103C95.8415 55.095 95.9557 54.7878 95.9528 54.3309C95.9502 53.9445 95.9012 53.7535 95.7296 53.4627C95.3934 52.8929 94.5861 52.6105 93.9017 52.8232ZM94.9603 53.1427C95.6361 53.4852 95.8474 54.4605 95.3913 55.133C95.0646 55.6148 94.3896 55.7801 93.8467 55.5115C93.408 55.2943 93.1836 54.8981 93.18 54.334C93.1747 53.5297 93.761 52.9536 94.513 53.0242C94.657 53.0377 94.8583 53.0911 94.9603 53.1427ZM93.7839 54.3659V55.2452H93.9294H94.0749L94.0892 54.8666C94.103 54.5026 94.1084 54.4875 94.2277 54.4737C94.3356 54.4611 94.3832 54.5107 94.5911 54.8522C94.8008 55.1968 94.8476 55.2452 94.9711 55.2452C95.0485 55.2452 95.1114 55.2287 95.1108 55.2086C95.1103 55.1884 95.0094 55.0181 94.8867 54.83L94.6635 54.4881L94.8101 54.4284C95.0016 54.3505 95.1119 54.1886 95.1119 53.9855C95.1119 53.6036 94.9107 53.4867 94.2536 53.4867H93.7839V54.3659ZM94.7216 53.7815C94.8347 53.8416 94.8507 54.0817 94.7474 54.1669C94.7093 54.1983 94.5488 54.2285 94.3908 54.234L94.1036 54.2438L94.0887 53.9874L94.0738 53.7309H94.3501C94.5021 53.7309 94.6693 53.7537 94.7216 53.7815Z" fill="white"/>
</svg>
