<svg width="138" height="34" viewBox="0 0 138 34" fill="none" xmlns="http://www.w3.org/2000/svg">
<path fill-rule="evenodd" clip-rule="evenodd" d="M23.5627 30.5992C22.9183 30.7597 22.4966 31.4138 22.6273 32.0502C22.7558 32.6758 23.2254 33.0656 23.8527 33.0674C24.118 33.0682 24.1823 33.0529 24.4198 32.9326C25.3192 32.477 25.3279 31.1722 24.4344 30.7239C24.1552 30.5838 23.8181 30.5355 23.5627 30.5992ZM24.2219 30.8575C24.3432 30.8985 24.4817 30.9898 24.5986 31.1056C25.0085 31.5124 25.0069 32.137 24.5949 32.5458C24.2572 32.8809 23.8016 32.9487 23.3706 32.728C22.6172 32.3421 22.6172 31.3057 23.3706 30.9199C23.6597 30.7718 23.9135 30.7532 24.2219 30.8575ZM23.2986 31.8239V32.5829H23.4163H23.5339V32.2715V31.9601H23.671C23.7848 31.9601 23.8265 31.9854 23.9172 32.1097C23.9772 32.1919 24.0595 32.332 24.0999 32.421C24.1652 32.5647 24.1884 32.5829 24.3065 32.5829H24.4394L24.3339 32.398C24.2759 32.2963 24.1784 32.1489 24.1174 32.0705L24.0064 31.9279L24.1404 31.8495C24.4327 31.6783 24.3971 31.2221 24.0831 31.1158C24.0076 31.0903 23.8002 31.0684 23.6222 31.0672L23.2986 31.065V31.8239ZM24.0506 31.3629C24.1398 31.443 24.1426 31.5621 24.0574 31.6555C24.0086 31.709 23.9355 31.7266 23.7632 31.7266H23.5339V31.5126V31.2985H23.7564C23.9084 31.2985 24.0016 31.319 24.0506 31.3629Z" fill="white"/>
<path fill-rule="evenodd" clip-rule="evenodd" d="M2.55808 1.29316C9.39957 2.46468 27.0467 5.26714 27.583 5.26714C27.873 5.26714 30.0652 4.95499 32.4547 4.57358C38.6754 3.58036 49.9934 1.73962 52.5546 1.30439L54.7385 0.933276L27.5953 0.932964L0.452148 0.932495L2.55808 1.29316ZM3.02607 2.20682C3.32636 2.32475 6.16938 3.34543 9.34388 4.47468C12.5184 5.60409 16.6025 7.05812 18.4197 7.70597L21.7238 8.88404L24.1608 7.40178C26.375 6.05507 26.5578 5.91093 26.1606 5.82622C25.9201 5.7749 23.1261 5.31534 19.9516 4.80508C16.7771 4.29482 12.4599 3.59674 10.3578 3.25371C8.25581 2.91067 5.83399 2.52084 4.97601 2.38731C4.11804 2.25362 3.20547 2.1101 2.94807 2.0683C2.50302 1.99592 2.50692 2.00262 3.02607 2.20682ZM50.9946 2.24254C49.4022 2.51819 41.6224 3.77847 34.6931 4.88339C31.7331 5.35543 29.1444 5.77896 28.9402 5.82435C28.6318 5.89315 28.982 6.15865 31.014 7.39694L33.4589 8.88685L36.7669 7.70737C38.5863 7.05874 42.6723 5.60409 45.8468 4.47468C52.7787 2.00871 52.7711 2.01152 52.4766 2.01994C52.3479 2.02353 51.681 2.12383 50.9946 2.24254ZM24.6642 7.86025C22.7944 8.99106 22.2188 9.41255 22.275 9.60942C22.3157 9.75216 22.8089 12.0451 23.3711 14.7049C24.8202 21.5616 26.8428 31.1134 27.021 31.9423C27.1231 32.417 27.1773 28.3881 27.1886 19.5017C27.1979 12.2732 27.1877 6.3616 27.1663 6.36472C27.145 6.36784 26.019 7.0408 24.6642 7.86025ZM28.0026 19.4058C28.0171 30.4331 28.0515 32.3535 28.2204 31.6303C28.3307 31.1585 28.9243 28.3856 29.5393 25.4685C31.8426 14.5453 32.839 9.86135 32.9132 9.60942C32.9714 9.41209 32.4731 9.04019 30.8385 8.06086C29.6554 7.35186 28.5294 6.67094 28.3363 6.54754L27.9853 6.32323L28.0026 19.4058Z" fill="white"/>
<path fill-rule="evenodd" clip-rule="evenodd" d="M98.8985 11.8933C97.1877 12.5967 96.1727 14.0013 95.8243 16.1478C95.4668 18.3512 96.0969 20.3807 97.5417 21.6799C98.4622 22.5074 99.3891 22.8232 100.834 22.8012C101.997 22.7835 102.727 22.5169 103.52 21.821C104.117 21.2967 104.266 21.3738 104.266 22.2054C104.266 22.5541 104.325 22.5826 105.046 22.5826H105.826V19.6967V16.8108H103.564H101.302V17.6688V18.5267H102.55C103.923 18.5267 104.008 18.6039 103.572 19.4473C102.71 21.1152 100.497 21.5009 99.0551 20.2347C98.2281 19.5086 97.9747 18.8099 97.9746 17.2555C97.9746 16.0982 98.0359 15.7807 98.4059 15.0246C99.0959 13.6144 100.35 13.0179 101.837 13.3925C102.567 13.5762 103.486 14.3978 103.486 14.8663C103.486 15.0452 103.723 15.0948 104.578 15.0948C105.822 15.0948 105.877 15.0153 105.378 13.9249C104.963 13.0156 103.831 12.0431 102.849 11.7514C101.601 11.3807 100.006 11.438 98.8985 11.8933ZM50.7599 12.5989V13.5349H51.7739H52.7879V12.5989V11.6629H51.7739H50.7599V12.5989ZM37.1632 12.7546L37.2161 13.6909H38.8449H40.4736L40.4299 18.1369L40.3863 22.5828H41.5172L42.6482 22.5826V18.1367V13.6909H44.2081H45.7681V12.7549V11.8189L41.4392 11.8186L37.1104 11.8183L37.1632 12.7546ZM84.1429 17.2008V22.5826L85.1179 22.5829L86.0929 22.5832L86.045 20.638C85.9891 18.367 86.1874 17.0573 86.6638 16.5501C87.075 16.1125 87.9306 15.9296 88.4528 16.1676C89.1632 16.4911 89.31 17.193 89.259 20.021L89.2128 22.5831L90.2851 22.5828L91.3574 22.5826L91.2914 19.3078C91.2309 16.3136 91.198 15.9962 90.9067 15.6029C90.3193 14.81 89.6444 14.4709 88.6538 14.4709C87.5684 14.4709 87.0647 14.6439 86.5576 15.1911C86.0442 15.745 85.982 15.5369 86.0436 13.4731L86.0929 11.8183L85.1179 11.8186L84.1429 11.8189V17.2008ZM114.83 14.4755C113.147 14.8991 112.143 16.1717 111.962 18.1112C111.791 19.9477 112.635 21.7588 113.963 22.4004C116.19 23.4766 118.806 22.6218 119.709 20.5232C120.397 18.922 120.046 16.5922 118.943 15.446C118.106 14.5754 116.21 14.1281 114.83 14.4755ZM48.8014 14.6205C48.6251 14.6919 48.2567 15.0058 47.9824 15.3179L47.484 15.8857V15.2563V14.6268H46.4701H45.4561V18.6047V22.5826H46.5481H47.64V20.1544C47.64 18.6734 47.708 17.5934 47.8143 17.3855C48.125 16.7779 48.6117 16.506 49.395 16.5022L50.136 16.4988V15.4848V14.4709L49.629 14.4807C49.3501 14.4861 48.9777 14.549 48.8014 14.6205ZM65.9695 14.6524C65.7979 14.7471 65.4644 15.0039 65.2285 15.2229L64.7995 15.6212V15.124V14.6268H63.7855H62.7716V18.6047V22.5826H63.7855H64.7995L64.8005 20.1257C64.8014 17.4995 64.9493 16.5966 65.4201 16.3447C65.9169 16.0787 66.7984 16.1578 67.1394 16.4988C67.429 16.7883 67.4514 17.0187 67.4514 19.6967V22.5826L68.5044 22.5823L69.5574 22.5821V19.8636C69.5574 17.3455 69.5816 17.1125 69.885 16.7049C70.2951 16.1539 71.3615 16.0065 71.8352 16.4351C72.106 16.6802 72.1313 16.954 72.1313 19.6429V22.5826H73.2345H74.3378L74.2875 19.3457C74.231 15.708 74.1302 15.3285 73.0698 14.7615C72.0121 14.196 70.2386 14.5053 69.6837 15.3521C69.3876 15.804 69.2193 15.8163 69.086 15.3961C68.8417 14.6264 66.8697 14.1557 65.9695 14.6524ZM78.5071 14.7838C78.1958 14.9482 77.8997 15.1908 77.849 15.3227C77.6928 15.73 77.4351 15.5881 77.4351 15.0948V14.6268H76.4992H75.5632V20.1647V25.7025H76.5772H77.5911V23.6398C77.5911 21.7262 77.6088 21.6023 77.8346 21.9248C77.9685 22.116 78.2809 22.3773 78.5288 22.5055C79.0904 22.7959 80.5549 22.808 81.2255 22.5279C82.4331 22.0234 83.207 20.4606 83.207 18.5267C83.207 16.59 82.593 15.4109 81.2258 14.7223C80.5454 14.3796 79.2149 14.4097 78.5071 14.7838ZM110.182 14.7287C109.961 14.866 109.645 15.1798 109.48 15.4262C109.074 16.0322 108.946 15.9902 108.946 15.2508V14.6268H108.01H107.074V18.6047V22.5826H108.088H109.102L109.103 20.4377C109.104 19.258 109.176 18.0327 109.264 17.7148C109.491 16.8988 110.06 16.4988 110.995 16.4988H111.754V15.4848V14.4709L111.169 14.4751C110.847 14.4772 110.403 14.5914 110.182 14.7287ZM132.735 14.6811C132.478 14.7994 132.134 15.0462 131.97 15.2295C131.564 15.6851 131.41 15.648 131.41 15.0948V14.6268H130.474H129.538V20.1647V25.7025H130.552H131.565V23.644V21.5855L132.12 22.123C132.656 22.642 132.717 22.6606 133.887 22.6606C135.466 22.6606 136.162 22.2452 136.813 20.9138C137.207 20.1099 137.255 19.8436 137.251 18.5269C137.247 17.2565 137.19 16.9334 136.852 16.2648C136.283 15.1404 135.421 14.5769 134.175 14.5147C133.58 14.485 133.022 14.5495 132.735 14.6811ZM50.7599 18.6047V22.5826H51.7739H52.7879V18.6047V14.6268H51.7739H50.7599V18.6047ZM54.1918 17.9695C54.2789 21.6995 54.3338 21.8958 55.4509 22.4653C56.4742 22.9873 58.4828 22.648 58.9121 21.8808C59.1267 21.4973 59.3397 21.6139 59.3397 22.1146V22.5826H60.3146H61.2896V18.6047V14.6268H60.2367H59.1837V17.3357C59.1837 19.8285 59.1583 20.077 58.8647 20.4503C58.1627 21.3426 56.529 21.2431 56.2649 20.292C56.1978 20.0503 56.1427 18.6771 56.1424 17.2402L56.1418 14.6276L55.1278 14.627L54.1138 14.6264L54.1918 17.9695ZM121.114 17.8634C121.198 21.3499 121.279 21.7268 122.071 22.3127C122.541 22.6604 123.641 22.826 124.461 22.6721C124.769 22.6144 125.256 22.3602 125.545 22.107C125.833 21.8538 126.112 21.6466 126.165 21.6466C126.218 21.6466 126.262 21.8572 126.262 22.1146V22.5826H127.198H128.134V18.6047V14.6268L127.159 14.6275L126.184 14.6279V17.2474C126.184 20.1823 126.078 20.5425 125.101 20.9509C124.476 21.212 123.54 21.0078 123.3 20.5581C123.21 20.3904 123.142 19.0473 123.142 17.4451V14.6268L122.089 14.6265L121.036 14.6264L121.114 17.8634ZM116.907 16.2674C117.602 16.627 117.907 17.3362 117.911 18.6047C117.915 19.8984 117.59 20.5707 116.771 20.9592C115.778 21.4303 114.748 21.0189 114.306 19.9747C114.024 19.308 114.035 17.6898 114.325 17.1289C114.85 16.1139 115.92 15.757 116.907 16.2674ZM80.3189 16.525C81.5951 17.5287 81.4155 20.2669 80.0306 20.9239C79.5691 21.1429 79.3543 21.1613 78.8492 21.0253C77.7559 20.7309 77.2623 19.5986 77.5094 17.9511C77.7353 16.4453 79.2439 15.6795 80.3189 16.525ZM134.136 16.3417C135.026 16.6801 135.469 18.9083 134.88 20.0867C134.337 21.1732 132.949 21.4273 132.114 20.5927C131.132 19.6109 131.286 17.1959 132.379 16.4303C132.776 16.1528 133.538 16.1143 134.136 16.3417Z" fill="white"/>
</svg>
