<svg width="109" height="22" viewBox="0 0 109 22" fill="none" xmlns="http://www.w3.org/2000/svg">
<path fill-rule="evenodd" clip-rule="evenodd" d="M42.3022 0.863734C39.8306 1.085 37.6794 2.05812 36.1202 3.6603C32.4206 7.46177 32.4589 14.0075 36.2041 18.0359C38.1357 20.1134 40.154 21.0574 42.9395 21.1858C45.1873 21.2894 47.3861 20.8299 50.1463 19.6799C50.3781 19.5831 50.397 19.1998 50.397 14.5857V9.596H46.6003H42.8036V10.8474V12.0987H45.1708H47.5378L47.4989 14.9231L47.46 17.7475L46.6923 18.02C44.1203 18.933 41.3191 18.591 39.2832 17.1156C37.9831 16.1734 37.1603 15.026 36.6652 13.4646C35.5227 9.86291 36.9534 5.74888 39.8538 4.29584C41.2191 3.61186 42.5495 3.38058 45.3386 3.3423L47.8018 3.30859L49.049 2.14615L50.2963 0.983717L48.9497 0.889792C47.5441 0.791744 43.2926 0.774961 42.3022 0.863734ZM60.641 0.927625C58.5165 1.19777 56.4064 2.23596 54.9912 3.70726C50.4161 8.46315 51.9243 17.0846 57.8569 20.0897C59.4458 20.8947 60.0103 21.0441 61.9304 21.1681C63.7561 21.286 65.3942 21.0038 67.6432 20.1837L69.3089 19.5762V14.5861V9.596H65.5122H61.7155V10.8474V12.0987L64.1153 12.0986L66.5151 12.0983L66.4435 14.9187L66.3718 17.7391L65.5838 18.0266C64.558 18.4008 61.9969 18.5404 60.8751 18.2832C58.2612 17.684 56.3776 15.8874 55.4717 13.1292C55.0594 11.8736 55.1105 9.54418 55.5805 8.18241C56.4487 5.66585 58.0427 4.18749 60.4977 3.62173C61.1042 3.48202 62.5569 3.35835 64.1729 3.30918L66.8451 3.22762L68.0329 2.10567L69.2206 0.983717L67.9395 0.888909C66.119 0.754204 61.8263 0.776873 60.641 0.927625ZM0.251953 10.9946V21.079H1.61174H2.97168L3.00864 13.166L3.04575 5.25305L5.1305 8.12381C6.27696 9.70273 7.58302 11.5081 8.03275 12.1355C8.48234 12.763 8.89826 13.2738 8.95671 13.2706C9.01531 13.2673 10.3526 11.482 11.9286 9.30333L14.794 5.34182L14.8311 13.2105L14.8681 21.079H16.228H17.5878V10.9946V0.910108L16.3342 0.917764L15.0806 0.925419L12.0041 4.97451C9.61476 8.11925 8.89482 8.97768 8.78049 8.81824C8.69954 8.70518 7.31167 6.88011 5.69628 4.76252L2.75921 0.91217L1.50558 0.911137L0.251953 0.910108V10.9946ZM21.5994 10.9946V21.079H27.7766H33.9538L33.75 20.7478C33.638 20.5655 33.2612 19.9363 32.9126 19.3492L32.2789 18.2819H28.2286H24.1783V15.1903V12.0987H27.2229H30.2674V10.8474V9.596H27.2229H24.1783V6.50441V3.41282H28.0944H32.0103L32.4918 2.78714C32.7566 2.44309 33.1943 1.87984 33.4643 1.53579L33.9553 0.910108H27.7773H21.5994V10.9946ZM72.4609 3.59537V6.28049L75.0398 3.63365C76.4582 2.17781 77.6187 0.969586 77.6187 0.948386C77.6187 0.927334 76.4582 0.910108 75.0398 0.910108H72.4609V3.59537ZM79.3379 2.16146L78.1264 3.41282H81.5976H85.0688V12.2459V21.079H86.4299H87.791V12.2459V3.41282H93.3786H98.9662V12.2459V21.079H100.471H101.975V12.2459V3.41282H105.413H108.852V2.16146V0.910108H94.7007H80.5494L79.3379 2.16146ZM73.8437 8.12308L72.4609 9.59467V15.3368V21.079H73.8936H75.3263V13.8653C75.3263 9.89779 75.3038 6.65163 75.2765 6.65163C75.249 6.65163 74.6042 7.31382 73.8437 8.12308Z" fill="white"/>
</svg>
