<svg width="25" height="25" viewBox="0 0 25 25" fill="none" xmlns="http://www.w3.org/2000/svg">
<circle cx="12.5" cy="12.5" r="12.5" fill="white"/>
<path fill-rule="evenodd" clip-rule="evenodd" d="M11.4508 0.015919C9.62063 0.205694 7.94823 0.713634 6.47987 1.52581C3.00172 3.44966 0.706359 6.7597 0.0918186 10.7378C-0.0309722 11.5328 -0.0305319 13.467 0.0926991 14.2567C0.524424 17.0236 1.729 19.4231 3.64947 21.3418C5.56804 23.2584 7.94867 24.4526 10.717 24.8868C11.415 24.9963 12.8441 25.0348 13.6068 24.9646C18.9832 24.47 23.4315 20.6313 24.6842 15.4052C24.9445 14.3193 25.0002 13.8063 25 12.4972C24.9998 11.1235 24.9358 10.5799 24.6347 9.39377C23.6221 5.40498 20.6826 2.16131 16.7831 0.730153C16.1485 0.497223 15.034 0.215469 14.3127 0.105601C13.8193 0.0304343 11.893 -0.0299241 11.4508 0.015919ZM8.18114 6.09898C8.73634 6.36495 9.05452 6.88159 9.05241 7.51362C9.05095 7.97229 8.8945 8.32472 8.54917 8.64738C7.76453 9.38062 6.51104 9.13191 6.05094 8.15171C5.94502 7.92616 5.92321 7.81077 5.92521 7.48771C5.92732 7.15767 5.94972 7.0525 6.06899 6.81307C6.46735 6.0134 7.36744 5.70907 8.18114 6.09898ZM16.8321 10.18C17.6315 10.3381 18.2649 10.8194 18.6188 11.5378C19.0314 12.3755 19.1192 13.3408 19.097 16.7981L19.0824 19.0707L17.7275 19.0837L16.3727 19.0966L16.3558 16.3956C16.3373 13.4262 16.3398 13.4519 16.0281 12.9818C15.7608 12.5786 15.2434 12.4003 14.6229 12.4975C14.0191 12.592 13.6327 12.9349 13.423 13.5623C13.316 13.8825 13.3131 13.9508 13.2963 16.4926L13.2792 19.0951H11.9369H10.5947V14.6965V10.2979H11.8911H13.1875V10.8844C13.1875 11.4352 13.2336 11.6131 13.3121 11.3659C13.3305 11.3081 13.4915 11.1156 13.6701 10.9382C14.4395 10.1735 15.506 9.91779 16.8321 10.18ZM8.83354 14.6965V19.0951H7.48823H6.14291V14.6965V10.2979H7.48823H8.83354V14.6965Z" fill="#303030"/>
</svg>
