<svg width="114" height="36" viewBox="0 0 114 36" fill="none" xmlns="http://www.w3.org/2000/svg">
<path d="M33.6983 16.0997V3.05176e-05H36.5652V16.0997H33.6983Z" fill="white"/>
<path d="M43.6796 16.0997V2.59602H38.611V3.05176e-05H51.5921V2.59602H46.5235V16.0997H43.6796Z" fill="white"/>
<path d="M50.5903 16.0997L56.8056 3.05176e-05H60.2229L66.4152 16.0997H63.319L62.2411 13.1166H54.7644L53.6635 16.0997H50.5903ZM55.6818 10.5434H61.3008L58.5028 2.86928L55.6818 10.5434Z" fill="white"/>
<path d="M68.3244 16.0997V3.05176e-05H74.7232C75.5488 3.05176e-05 76.3286 0.0835271 77.0625 0.25052C77.7964 0.402332 78.4462 0.675595 79.0119 1.07031C79.5777 1.44984 80.0211 1.97359 80.3421 2.64156C80.6632 3.30954 80.8238 4.13691 80.8238 5.12369C80.8238 5.94348 80.6785 6.66459 80.388 7.28702C80.0975 7.90945 79.6923 8.4332 79.1725 8.85828C78.6679 9.28335 78.064 9.60975 77.3606 9.83747L80.9155 16.0997H77.7047L74.5167 10.2929H71.1912V16.0997H68.3244ZM71.1912 7.76523H74.3333C74.8531 7.76523 75.3271 7.72727 75.7552 7.65137C76.1986 7.56028 76.5809 7.41606 76.9019 7.2187C77.2383 7.02135 77.4906 6.75568 77.6588 6.42169C77.8423 6.07252 77.9417 5.63227 77.9569 5.10092C77.9569 4.46331 77.8193 3.96233 77.5441 3.59798C77.2842 3.23363 76.9019 2.97555 76.3974 2.82374C75.9081 2.67193 75.3195 2.59602 74.6314 2.59602H71.1912V7.76523Z" fill="white"/>
<path d="M4.01626 36C3.19137 36 2.50562 35.8323 1.95901 35.4968C1.42234 35.1514 1.01984 34.6777 0.751501 34.0758C0.493103 33.4739 0.363904 32.793 0.363904 32.0332C0.363904 31.2931 0.498072 30.6221 0.766408 30.0201C1.04468 29.4083 1.46209 28.9248 2.01864 28.5696C2.58513 28.2045 3.30069 28.0219 4.16533 28.0219C4.702 28.0219 5.17904 28.1107 5.59646 28.2883C6.02381 28.466 6.37662 28.7275 6.65489 29.0728C6.93317 29.4083 7.12697 29.8327 7.23629 30.3458H5.93933C5.79025 29.9116 5.55173 29.6057 5.22377 29.4281C4.90574 29.2406 4.52808 29.1468 4.09079 29.1468C3.49449 29.1468 3.01745 29.285 2.65967 29.5613C2.30189 29.8376 2.03852 30.1978 1.86957 30.6418C1.71055 31.076 1.63105 31.5398 1.63105 32.0332C1.63105 32.5463 1.71552 33.02 1.88447 33.4541C2.05343 33.8883 2.31679 34.2386 2.67458 34.5051C3.03236 34.7616 3.49449 34.8899 4.06098 34.8899C4.47839 34.8899 4.87096 34.8011 5.23868 34.6235C5.61633 34.4459 5.86479 34.1301 5.98405 33.6762H7.29592C7.19653 34.209 6.98286 34.6481 6.65489 34.9935C6.33686 35.3389 5.9443 35.5955 5.4772 35.7632C5.02003 35.9211 4.53305 36 4.01626 36Z" fill="white"/>
<path d="M19.3074 36C18.4726 36 17.7819 35.8323 17.2353 35.4968C16.6887 35.1514 16.2812 34.6777 16.0129 34.0758C15.7445 33.4739 15.6104 32.7881 15.6104 32.0184C15.6104 31.2388 15.7495 30.553 16.0278 29.9609C16.316 29.359 16.7334 28.8854 17.28 28.54C17.8266 28.1946 18.4975 28.0219 19.2925 28.0219C19.9087 28.0219 20.4355 28.1403 20.8727 28.3772C21.32 28.6041 21.6877 28.91 21.9759 29.2949C22.2641 29.6797 22.4728 30.104 22.602 30.5678C22.7312 31.0217 22.7859 31.4806 22.766 31.9444C22.7561 32.0332 22.7461 32.122 22.7362 32.2108C22.7362 32.2996 22.7312 32.3884 22.7213 32.4772H16.8924C16.9322 32.9311 17.0465 33.3407 17.2353 33.7058C17.4241 34.0709 17.6925 34.362 18.0403 34.5791C18.3881 34.7863 18.8205 34.8899 19.3373 34.8899C19.5957 34.8899 19.8541 34.8603 20.1125 34.8011C20.3808 34.732 20.6193 34.6185 20.828 34.4607C21.0467 34.3028 21.2007 34.0906 21.2902 33.8242H22.5871C22.4678 34.3274 22.2442 34.7419 21.9163 35.0675C21.5883 35.3833 21.1957 35.6201 20.7386 35.778C20.2814 35.926 19.8044 36 19.3074 36ZM16.9222 31.3819H21.469C21.4591 30.9379 21.3597 30.5481 21.1709 30.2126C20.9821 29.8771 20.7237 29.6156 20.3957 29.4281C20.0777 29.2406 19.695 29.1468 19.2478 29.1468C18.7608 29.1468 18.3484 29.2505 18.0105 29.4577C17.6825 29.6649 17.4291 29.9363 17.2502 30.2718C17.0713 30.6073 16.962 30.9773 16.9222 31.3819Z" fill="white"/>
<path d="M31.4607 35.9112V28.1107H32.6831L32.7428 29.3245C32.9415 29.0186 33.1701 28.7719 33.4285 28.5844C33.6968 28.3969 33.99 28.2587 34.3081 28.1699C34.636 28.0713 34.9888 28.0219 35.3665 28.0219C35.4361 28.0219 35.5007 28.0219 35.5603 28.0219C35.6299 28.0219 35.6994 28.0219 35.769 28.0219V29.2061H35.3069C34.6907 29.2061 34.1888 29.3393 33.8012 29.6057C33.4235 29.8623 33.1502 30.2126 32.9813 30.6566C32.8123 31.0908 32.7279 31.5743 32.7279 32.1072V35.9112H31.4607Z" fill="white"/>
<path d="M47.67 35.9112C47.0737 35.9112 46.5917 35.8224 46.224 35.6448C45.8662 35.4672 45.6028 35.1909 45.4339 34.8159C45.2749 34.4409 45.1953 33.9673 45.1953 33.3949V29.2209H43.9133V28.1107H45.1953V25.7869H46.4625V28.1107H48.5645V29.2209H46.4625V33.2617C46.4625 33.7946 46.5569 34.1893 46.7457 34.4459C46.9445 34.6926 47.342 34.8159 47.9383 34.8159H48.5197V35.9112H47.67Z" fill="white"/>
<path d="M57.0039 35.9112V28.1107H58.271V35.9112H57.0039ZM57.63 26.9562C57.3716 26.9562 57.1629 26.8773 57.0039 26.7194C56.8548 26.5615 56.7803 26.3592 56.7803 26.1125C56.7803 25.8658 56.8598 25.6684 57.0188 25.5204C57.1778 25.3625 57.3815 25.2836 57.63 25.2836C57.8586 25.2836 58.0573 25.3625 58.2263 25.5204C58.4052 25.6783 58.4946 25.8757 58.4946 26.1125C58.4946 26.3592 58.4102 26.5615 58.2412 26.7194C58.0723 26.8773 57.8685 26.9562 57.63 26.9562Z" fill="white"/>
<path d="M68.0317 35.9112V29.2209H66.7497V28.1107H68.0317V27.2818C68.0317 26.6996 68.1113 26.226 68.2703 25.8609C68.4392 25.4859 68.7026 25.2096 69.0604 25.032C69.4281 24.8544 69.9101 24.7655 70.5064 24.7655H71.4008V25.8757H70.6406C70.2828 25.8757 70.0045 25.9349 69.8057 26.0533C69.6169 26.1717 69.4827 26.3493 69.4032 26.5862C69.3337 26.8131 69.2989 27.0943 69.2989 27.4298V28.1107H71.4008V29.2209H69.2989V35.9112H68.0317Z" fill="white"/>
<path d="M79.7373 35.9112V28.1107H81.0045V35.9112H79.7373ZM80.3634 26.9562C80.105 26.9562 79.8963 26.8773 79.7373 26.7194C79.5882 26.5615 79.5137 26.3592 79.5137 26.1125C79.5137 25.8658 79.5932 25.6684 79.7522 25.5204C79.9112 25.3625 80.115 25.2836 80.3634 25.2836C80.592 25.2836 80.7908 25.3625 80.9597 25.5204C81.1386 25.6783 81.2281 25.8757 81.2281 26.1125C81.2281 26.3592 81.1436 26.5615 80.9746 26.7194C80.8057 26.8773 80.602 26.9562 80.3634 26.9562Z" fill="white"/>
<path d="M93.4038 36C92.569 36 91.8783 35.8323 91.3317 35.4968C90.7851 35.1514 90.3776 34.6777 90.1093 34.0758C89.8409 33.4739 89.7067 32.7881 89.7067 32.0184C89.7067 31.2388 89.8459 30.553 90.1242 29.9609C90.4124 29.359 90.8298 28.8854 91.3764 28.54C91.923 28.1946 92.5938 28.0219 93.3889 28.0219C94.0051 28.0219 94.5318 28.1403 94.9691 28.3772C95.4163 28.6041 95.7841 28.91 96.0723 29.2949C96.3605 29.6797 96.5692 30.104 96.6984 30.5678C96.8276 31.0217 96.8822 31.4806 96.8624 31.9444C96.8524 32.0332 96.8425 32.122 96.8326 32.2108C96.8326 32.2996 96.8276 32.3884 96.8177 32.4772H90.9888C91.0285 32.9311 91.1428 33.3407 91.3317 33.7058C91.5205 34.0709 91.7888 34.362 92.1367 34.5791C92.4845 34.7863 92.9168 34.8899 93.4336 34.8899C93.692 34.8899 93.9504 34.8603 94.2088 34.8011C94.4772 34.732 94.7157 34.6185 94.9244 34.4607C95.143 34.3028 95.2971 34.0906 95.3865 33.8242H96.6835C96.5642 34.3274 96.3406 34.7419 96.0126 35.0675C95.6847 35.3833 95.2921 35.6201 94.8349 35.778C94.3778 35.926 93.9007 36 93.4038 36ZM91.0186 31.3819H95.5654C95.5555 30.9379 95.4561 30.5481 95.2673 30.2126C95.0784 29.8771 94.82 29.6156 94.4921 29.4281C94.174 29.2406 93.7914 29.1468 93.3442 29.1468C92.8572 29.1468 92.4448 29.2505 92.1069 29.4577C91.7789 29.6649 91.5255 29.9363 91.3466 30.2718C91.1677 30.6073 91.0584 30.9773 91.0186 31.3819Z" fill="white"/>
<path d="M108.703 36C107.917 36 107.271 35.8273 106.765 35.482C106.258 35.1267 105.88 34.6531 105.632 34.061C105.383 33.4591 105.259 32.7831 105.259 32.0332C105.259 31.2832 105.383 30.6073 105.632 30.0053C105.88 29.3935 106.263 28.91 106.78 28.5548C107.296 28.1995 107.957 28.0219 108.762 28.0219C109.07 28.0219 109.378 28.0614 109.686 28.1403C110.005 28.2094 110.303 28.3229 110.581 28.4808C110.859 28.6288 111.098 28.8311 111.297 29.0876V25.4464H112.564V35.9112H111.356L111.297 34.7419C111.118 35.0379 110.889 35.2797 110.611 35.4672C110.342 35.6448 110.044 35.778 109.716 35.8668C109.388 35.9556 109.05 36 108.703 36ZM108.881 34.8899C109.408 34.8899 109.85 34.7567 110.208 34.4903C110.566 34.2238 110.839 33.8686 111.028 33.4245C111.217 32.9805 111.311 32.497 111.311 31.974C111.311 31.4312 111.217 30.9477 111.028 30.5234C110.849 30.0991 110.581 29.7636 110.223 29.5169C109.865 29.2702 109.413 29.1468 108.867 29.1468C108.3 29.1468 107.843 29.2751 107.495 29.5317C107.157 29.7883 106.909 30.1386 106.75 30.5826C106.601 31.0168 106.526 31.5053 106.526 32.048C106.526 32.4427 106.566 32.8127 106.645 33.1581C106.735 33.4936 106.869 33.7946 107.048 34.061C107.237 34.3176 107.48 34.5199 107.778 34.6679C108.076 34.8159 108.444 34.8899 108.881 34.8899Z" fill="white"/>
<path d="M6.54366 1.6396L8.08841 6.36009H13.0873L9.04311 9.27751L10.5879 13.998L6.54366 11.0806L2.49946 13.998L4.0442 9.27751L0 6.36009H4.99891L6.54366 1.6396Z" fill="white"/>
<path d="M107.456 1.6396L109.001 6.36009H114L109.956 9.27751L111.501 13.998L107.456 11.0806L103.412 13.998L104.957 9.27751L100.913 6.36009H105.912L107.456 1.6396Z" fill="white"/>
</svg>
