<svg width="111" height="37" viewBox="0 0 111 37" fill="none" xmlns="http://www.w3.org/2000/svg">
<path d="M6.46247 16.1816L12.5871 0.2034H15.9545L22.0565 16.1816H19.0055L17.9433 13.221H10.5757L9.49087 16.1816H6.46247ZM11.4797 10.6672H17.0167L14.2595 3.051L11.4797 10.6672Z" fill="white"/>
<path d="M29.4181 16.3624C28.3483 16.3624 27.3389 16.2042 26.3897 15.8878C25.4555 15.5563 24.6721 15.0365 24.0393 14.3284C23.4065 13.6052 22.9921 12.6635 22.7963 11.5034H25.6665C25.8473 12.091 26.1335 12.5505 26.5253 12.882C26.9321 13.2135 27.4067 13.447 27.9491 13.5826C28.4915 13.7031 29.0414 13.7634 29.5989 13.7634C30.0961 13.7634 30.5631 13.7031 31.0001 13.5826C31.4521 13.447 31.8212 13.2285 32.1075 12.9272C32.4088 12.6259 32.5595 12.2266 32.5595 11.7294C32.5595 11.3527 32.4766 11.0514 32.3109 10.8254C32.1602 10.5843 31.9417 10.3885 31.6555 10.2378C31.3843 10.0721 31.0528 9.944 30.6611 9.8536C30.2844 9.73307 29.8776 9.6276 29.4407 9.5372C29.0037 9.4468 28.5743 9.34887 28.1525 9.2434C27.7306 9.13793 27.3313 9.00233 26.9547 8.8366C26.4725 8.67087 26.0055 8.48253 25.5535 8.2716C25.1165 8.0456 24.7323 7.7744 24.4009 7.458C24.0845 7.1416 23.8283 6.74987 23.6325 6.2828C23.4366 5.81573 23.3387 5.25827 23.3387 4.6104C23.3387 3.87213 23.4592 3.23933 23.7003 2.712C23.9564 2.1696 24.2879 1.72513 24.6947 1.3786C25.1165 1.03207 25.5836 0.760866 26.0959 0.564999C26.6232 0.369133 27.1656 0.225999 27.7231 0.1356C28.2956 0.0451999 28.838 0 29.3503 0C30.3447 0 31.2487 0.165733 32.0623 0.4972C32.8909 0.828666 33.5689 1.34093 34.0963 2.034C34.6236 2.72707 34.9249 3.616 35.0003 4.7008H32.2657C32.2054 4.18853 32.0246 3.78173 31.7233 3.4804C31.4219 3.164 31.0453 2.938 30.5933 2.8024C30.1413 2.65173 29.6516 2.5764 29.1243 2.5764C28.7627 2.5764 28.4011 2.60653 28.0395 2.6668C27.6929 2.72707 27.3765 2.83253 27.0903 2.9832C26.8191 3.13387 26.5931 3.33727 26.4123 3.5934C26.2465 3.83447 26.1637 4.14333 26.1637 4.52C26.1637 4.85147 26.2465 5.14527 26.4123 5.4014C26.578 5.64247 26.804 5.84587 27.0903 6.0116C27.3916 6.17733 27.7457 6.328 28.1525 6.4636C28.6798 6.67453 29.2523 6.83273 29.8701 6.9382C30.5029 7.04367 31.098 7.1868 31.6555 7.3676C32.1979 7.51827 32.6951 7.7066 33.1471 7.9326C33.6141 8.14353 34.0134 8.4072 34.3449 8.7236C34.6763 9.02493 34.9325 9.4016 35.1133 9.8536C35.3091 10.2905 35.4071 10.8179 35.4071 11.4356C35.4071 12.3396 35.2413 13.108 34.9099 13.7408C34.5935 14.3585 34.149 14.8633 33.5765 15.255C33.019 15.6467 32.3787 15.933 31.6555 16.1138C30.9473 16.2795 30.2015 16.3624 29.4181 16.3624Z" fill="white"/>
<path d="M43.0284 16.3624C42.26 16.3624 41.5217 16.2343 40.8136 15.9782C40.1205 15.7221 39.5179 15.3379 39.0056 14.8256C38.4933 14.2983 38.1393 13.6504 37.9434 12.882H40.113C40.3842 13.4545 40.8211 13.8839 41.4238 14.1702C42.0415 14.4414 42.6517 14.577 43.2544 14.577C44.068 14.577 44.7385 14.4113 45.2658 14.0798C45.8082 13.7333 46.2301 13.2662 46.5314 12.6786C46.8478 12.091 47.0738 11.4356 47.2094 10.7124C47.345 9.97413 47.4128 9.21327 47.4128 8.4298C47.4128 8.35447 47.4128 8.2716 47.4128 8.1812C47.4128 8.0908 47.4128 8.00793 47.4128 7.9326C47.1265 8.5202 46.7423 8.9948 46.2602 9.3564C45.7781 9.70293 45.2432 9.95907 44.6556 10.1248C44.068 10.2755 43.4729 10.3508 42.8702 10.3508C41.9361 10.3508 41.0773 10.1625 40.2938 9.7858C39.5254 9.39407 38.9077 8.82907 38.4406 8.0908C37.9886 7.33747 37.7626 6.42593 37.7626 5.3562C37.7626 4.28647 37.9961 3.35233 38.4632 2.5538C38.9303 1.75527 39.5781 1.13753 40.4068 0.700599C41.2505 0.248599 42.2223 0.0225997 43.3222 0.0225997C44.4974 0.0225997 45.4692 0.2712 46.2376 0.7684C47.0211 1.2656 47.6313 1.92853 48.0682 2.7572C48.5202 3.58587 48.8366 4.4974 49.0174 5.4918C49.1982 6.47113 49.2886 7.45047 49.2886 8.4298C49.2886 9.5598 49.1756 10.6069 48.9496 11.5712C48.7236 12.5204 48.362 13.3566 47.8648 14.0798C47.3676 14.803 46.7197 15.368 45.9212 15.7748C45.1227 16.1665 44.1584 16.3624 43.0284 16.3624ZM43.164 8.5428C43.8119 8.5428 44.3995 8.4072 44.9268 8.136C45.4692 7.8648 45.8986 7.48813 46.215 7.006C46.5465 6.52387 46.7122 5.95887 46.7122 5.311C46.7122 4.61793 46.5615 4.01527 46.2602 3.503C45.9589 2.97567 45.5445 2.56133 45.0172 2.26C44.5049 1.95867 43.9173 1.808 43.2544 1.808C42.5764 1.808 41.9737 1.95867 41.4464 2.26C40.9341 2.56133 40.5273 2.96813 40.226 3.4804C39.9247 3.99267 39.774 4.55767 39.774 5.1754C39.774 6.23007 40.0753 7.05873 40.678 7.6614C41.2957 8.249 42.1244 8.5428 43.164 8.5428Z" fill="white"/>
<path d="M54.3762 16.1816V3.3674H51.1218V2.034C51.7245 1.9888 52.2594 1.921 52.7264 1.8306C53.1935 1.72513 53.6078 1.55187 53.9694 1.3108C54.3461 1.05467 54.6776 0.685534 54.9638 0.2034H56.3424V16.1816H54.3762Z" fill="white"/>
<path d="M66.2928 16.3624C65.1779 16.3624 64.2211 16.159 63.4226 15.7522C62.6391 15.3303 61.9988 14.7503 61.5016 14.012C61.0044 13.2587 60.6353 12.3923 60.3942 11.413C60.1682 10.4186 60.0552 9.34887 60.0552 8.2038C60.0552 7.05873 60.1682 5.99653 60.3942 5.0172C60.6202 4.0228 60.9818 3.15647 61.479 2.4182C61.9762 1.66487 62.6165 1.07727 63.4 0.6554C64.1985 0.233533 65.1628 0.0225997 66.2928 0.0225997C67.4831 0.0225997 68.4775 0.256133 69.276 0.7232C70.0896 1.1752 70.7299 1.79293 71.197 2.5764C71.6791 3.35987 72.0181 4.24127 72.214 5.2206C72.4249 6.18487 72.5304 7.17927 72.5304 8.2038C72.5304 9.22833 72.4249 10.2303 72.214 11.2096C72.0181 12.1739 71.6791 13.0477 71.197 13.8312C70.7299 14.5996 70.0896 15.2173 69.276 15.6844C68.4775 16.1364 67.4831 16.3624 66.2928 16.3624ZM66.2928 14.577C67.1817 14.577 67.8974 14.3887 68.4398 14.012C68.9973 13.6203 69.4267 13.108 69.728 12.4752C70.0293 11.8424 70.2327 11.1569 70.3382 10.4186C70.4437 9.66527 70.4964 8.927 70.4964 8.2038C70.4964 7.49567 70.4437 6.77247 70.3382 6.0342C70.2327 5.28087 70.0293 4.5878 69.728 3.955C69.4267 3.30713 68.9973 2.78733 68.4398 2.3956C67.8974 2.00387 67.1817 1.808 66.2928 1.808C65.3888 1.808 64.6581 2.00387 64.1006 2.3956C63.5431 2.78733 63.1137 3.30713 62.8124 3.955C62.5261 4.5878 62.3303 5.28087 62.2248 6.0342C62.1193 6.77247 62.0666 7.49567 62.0666 8.2038C62.0666 8.927 62.1193 9.66527 62.2248 10.4186C62.3303 11.1569 62.5261 11.8424 62.8124 12.4752C63.1137 13.108 63.5431 13.6203 64.1006 14.012C64.6581 14.3887 65.3888 14.577 66.2928 14.577Z" fill="white"/>
<path d="M81.3227 16.3624C80.2077 16.3624 79.251 16.159 78.4525 15.7522C77.669 15.3303 77.0287 14.7503 76.5315 14.012C76.0343 13.2587 75.6651 12.3923 75.4241 11.413C75.1981 10.4186 75.0851 9.34887 75.0851 8.2038C75.0851 7.05873 75.1981 5.99653 75.4241 5.0172C75.6501 4.0228 76.0117 3.15647 76.5089 2.4182C77.0061 1.66487 77.6464 1.07727 78.4299 0.6554C79.2284 0.233533 80.1927 0.0225997 81.3227 0.0225997C82.5129 0.0225997 83.5073 0.256133 84.3059 0.7232C85.1195 1.1752 85.7598 1.79293 86.2269 2.5764C86.709 3.35987 87.048 4.24127 87.2439 5.2206C87.4548 6.18487 87.5603 7.17927 87.5603 8.2038C87.5603 9.22833 87.4548 10.2303 87.2439 11.2096C87.048 12.1739 86.709 13.0477 86.2269 13.8312C85.7598 14.5996 85.1195 15.2173 84.3059 15.6844C83.5073 16.1364 82.5129 16.3624 81.3227 16.3624ZM81.3227 14.577C82.2116 14.577 82.9273 14.3887 83.4697 14.012C84.0271 13.6203 84.4565 13.108 84.7579 12.4752C85.0592 11.8424 85.2626 11.1569 85.3681 10.4186C85.4735 9.66527 85.5263 8.927 85.5263 8.2038C85.5263 7.49567 85.4735 6.77247 85.3681 6.0342C85.2626 5.28087 85.0592 4.5878 84.7579 3.955C84.4565 3.30713 84.0271 2.78733 83.4697 2.3956C82.9273 2.00387 82.2116 1.808 81.3227 1.808C80.4187 1.808 79.6879 2.00387 79.1305 2.3956C78.573 2.78733 78.1436 3.30713 77.8423 3.955C77.556 4.5878 77.3601 5.28087 77.2547 6.0342C77.1492 6.77247 77.0965 7.49567 77.0965 8.2038C77.0965 8.927 77.1492 9.66527 77.2547 10.4186C77.3601 11.1569 77.556 11.8424 77.8423 12.4752C78.1436 13.108 78.573 13.6203 79.1305 14.012C79.6879 14.3887 80.4187 14.577 81.3227 14.577Z" fill="white"/>
<path d="M90.6122 16.1816V0.2034H96.5108C98.1832 0.2034 99.5994 0.527333 100.76 1.1752C101.92 1.808 102.801 2.72707 103.404 3.9324C104.021 5.12267 104.33 6.554 104.33 8.2264C104.33 9.86867 104.029 11.2849 103.426 12.4752C102.839 13.6655 101.965 14.5845 100.805 15.2324C99.6446 15.8652 98.2208 16.1816 96.5334 16.1816H90.6122ZM93.4372 13.6052H96.4656C97.6558 13.6052 98.6126 13.3792 99.3358 12.9272C100.074 12.4601 100.609 11.8273 100.94 11.0288C101.287 10.2152 101.46 9.27353 101.46 8.2038C101.46 7.1642 101.294 6.2376 100.963 5.424C100.631 4.6104 100.097 3.97007 99.3584 3.503C98.6352 3.02087 97.6784 2.7798 96.4882 2.7798H93.4372V13.6052Z" fill="white"/>
<path d="M3.59905 36.3898C2.7862 36.3898 2.11046 36.2233 1.57183 35.8903C1.04299 35.5475 0.64636 35.0774 0.38194 34.4801C0.127313 33.8827 0 33.2069 0 32.4528C0 31.7183 0.13221 31.0524 0.39663 30.455C0.670843 29.8478 1.08216 29.3679 1.63059 29.0154C2.18881 28.653 2.89393 28.4718 3.74595 28.4718C4.27479 28.4718 4.74487 28.56 5.15619 28.7363C5.5773 28.9125 5.92497 29.1721 6.19918 29.5148C6.47339 29.8478 6.66436 30.2689 6.77209 30.7782H5.49406C5.34716 30.3473 5.11212 30.0437 4.78894 29.8674C4.47555 29.6813 4.10341 29.5883 3.6725 29.5883C3.0849 29.5883 2.61482 29.7254 2.26226 29.9996C1.9097 30.2738 1.65018 30.6313 1.48369 31.072C1.327 31.5029 1.24865 31.9632 1.24865 32.4528C1.24865 32.9621 1.33189 33.4322 1.49838 33.8631C1.66487 34.294 1.92439 34.6416 2.27695 34.9061C2.62951 35.1607 3.0849 35.288 3.64312 35.288C4.05444 35.288 4.44128 35.1999 4.80363 35.0236C5.17578 34.8473 5.42061 34.5339 5.53813 34.0834H6.83085C6.73292 34.6123 6.52236 35.0481 6.19918 35.3908C5.88579 35.7336 5.49896 35.9882 5.03867 36.1547C4.58818 36.3114 4.1083 36.3898 3.59905 36.3898Z" fill="white"/>
<path d="M18.6671 36.3898C17.8444 36.3898 17.1638 36.2233 16.6252 35.8903C16.0865 35.5475 15.685 35.0774 15.4206 34.4801C15.1562 33.8827 15.024 33.202 15.024 32.4381C15.024 31.6645 15.1611 30.9838 15.4353 30.3962C15.7193 29.7988 16.1306 29.3288 16.6692 28.986C17.2079 28.6432 17.8689 28.4718 18.6524 28.4718C19.2596 28.4718 19.7786 28.5894 20.2095 28.8244C20.6502 29.0497 21.0126 29.3532 21.2966 29.7352C21.5806 30.1171 21.7863 30.5382 21.9136 30.9985C22.0409 31.449 22.0948 31.9044 22.0752 32.3647C22.0654 32.4528 22.0556 32.541 22.0458 32.6291C22.0458 32.7173 22.0409 32.8054 22.0311 32.8935H16.2873C16.3265 33.344 16.4391 33.7505 16.6252 34.1128C16.8113 34.4752 17.0757 34.7641 17.4184 34.9795C17.7612 35.1852 18.1872 35.288 18.6965 35.288C18.9511 35.288 19.2057 35.2586 19.4603 35.1999C19.7248 35.1313 19.9598 35.0187 20.1655 34.862C20.3809 34.7053 20.5327 34.4947 20.6209 34.2303H21.8989C21.7814 34.7298 21.561 35.1411 21.2378 35.4643C20.9147 35.7777 20.5278 36.0127 20.0773 36.1694C19.6268 36.3163 19.1568 36.3898 18.6671 36.3898ZM16.3167 31.8065H20.7971C20.7873 31.3658 20.6894 30.9789 20.5033 30.646C20.3173 30.313 20.0626 30.0535 19.7395 29.8674C19.4261 29.6813 19.049 29.5883 18.6083 29.5883C18.1285 29.5883 17.722 29.6911 17.3891 29.8968C17.0659 30.1024 16.8161 30.3718 16.6399 30.7047C16.4636 31.0377 16.3559 31.4049 16.3167 31.8065Z" fill="white"/>
<path d="M30.643 36.3016V28.56H31.8476L31.9063 29.7646C32.1022 29.461 32.3274 29.2161 32.5821 29.0301C32.8465 28.844 33.1354 28.7069 33.4488 28.6187C33.772 28.5208 34.1196 28.4718 34.4918 28.4718C34.5603 28.4718 34.624 28.4718 34.6827 28.4718C34.7513 28.4718 34.8199 28.4718 34.8884 28.4718V29.647H34.433C33.8258 29.647 33.3313 29.7793 32.9493 30.0437C32.5772 30.2983 32.3079 30.646 32.1414 31.0867C31.9749 31.5176 31.8916 31.9974 31.8916 32.5263V36.3016H30.643Z" fill="white"/>
<path d="M46.6157 36.3016C46.0281 36.3016 45.5532 36.2135 45.1908 36.0372C44.8382 35.8609 44.5787 35.5867 44.4122 35.2146C44.2555 34.8424 44.1772 34.3723 44.1772 33.8043V29.6617H42.9139V28.56H44.1772V26.2537H45.4258V28.56H47.4971V29.6617H45.4258V33.6721C45.4258 34.2009 45.5189 34.5927 45.705 34.8473C45.9008 35.0921 46.2926 35.2146 46.8802 35.2146H47.4531V36.3016H46.6157Z" fill="white"/>
<path d="M55.8134 36.3016V28.56H57.062V36.3016H55.8134ZM56.4304 27.4142C56.1757 27.4142 55.9701 27.3358 55.8134 27.1791C55.6665 27.0224 55.593 26.8217 55.593 26.5768C55.593 26.332 55.6714 26.1361 55.8281 25.9892C55.9848 25.8325 56.1855 25.7542 56.4304 25.7542C56.6556 25.7542 56.8515 25.8325 57.018 25.9892C57.1943 26.1459 57.2824 26.3418 57.2824 26.5768C57.2824 26.8217 57.1991 27.0224 57.0327 27.1791C56.8662 27.3358 56.6654 27.4142 56.4304 27.4142Z" fill="white"/>
<path d="M66.6803 36.3016V29.6617H65.417V28.56H66.6803V27.7373C66.6803 27.1595 66.7587 26.6895 66.9154 26.3271C67.0818 25.955 67.3414 25.6807 67.6939 25.5045C68.0563 25.3282 68.5313 25.24 69.1189 25.24H70.0003V26.3418H69.2511C68.8985 26.3418 68.6243 26.4006 68.4284 26.5181C68.2424 26.6356 68.1101 26.8119 68.0318 27.0469C67.9632 27.2722 67.929 27.5513 67.929 27.8842V28.56H70.0003V29.6617H67.929V36.3016H66.6803Z" fill="white"/>
<path d="M78.2151 36.3016V28.56H79.4637V36.3016H78.2151ZM78.8321 27.4142C78.5774 27.4142 78.3718 27.3358 78.2151 27.1791C78.0682 27.0224 77.9947 26.8217 77.9947 26.5768C77.9947 26.332 78.0731 26.1361 78.2298 25.9892C78.3865 25.8325 78.5872 25.7542 78.8321 25.7542C79.0573 25.7542 79.2532 25.8325 79.4197 25.9892C79.5959 26.1459 79.6841 26.3418 79.6841 26.5768C79.6841 26.8217 79.6008 27.0224 79.4343 27.1791C79.2679 27.3358 79.0671 27.4142 78.8321 27.4142Z" fill="white"/>
<path d="M91.6821 36.3898C90.8595 36.3898 90.1789 36.2233 89.6402 35.8903C89.1016 35.5475 88.7001 35.0774 88.4356 34.4801C88.1712 33.8827 88.039 33.202 88.039 32.4381C88.039 31.6645 88.1761 30.9838 88.4503 30.3962C88.7343 29.7988 89.1457 29.3288 89.6843 28.986C90.2229 28.6432 90.884 28.4718 91.6674 28.4718C92.2746 28.4718 92.7937 28.5894 93.2246 28.8244C93.6653 29.0497 94.0276 29.3532 94.3116 29.7352C94.5956 30.1171 94.8013 30.5382 94.9286 30.9985C95.0559 31.449 95.1098 31.9044 95.0902 32.3647C95.0804 32.4528 95.0706 32.541 95.0608 32.6291C95.0608 32.7173 95.0559 32.8054 95.0461 32.8935H89.3024C89.3415 33.344 89.4541 33.7505 89.6402 34.1128C89.8263 34.4752 90.0907 34.7641 90.4335 34.9795C90.7762 35.1852 91.2023 35.288 91.7115 35.288C91.9661 35.288 92.2208 35.2586 92.4754 35.1999C92.7398 35.1313 92.9749 35.0187 93.1805 34.862C93.396 34.7053 93.5478 34.4947 93.6359 34.2303H94.9139C94.7964 34.7298 94.5761 35.1411 94.2529 35.4643C93.9297 35.7777 93.5429 36.0127 93.0924 36.1694C92.6419 36.3163 92.1718 36.3898 91.6821 36.3898ZM89.3317 31.8065H93.8122C93.8024 31.3658 93.7045 30.9789 93.5184 30.646C93.3323 30.313 93.0777 30.0535 92.7545 29.8674C92.4411 29.6813 92.0641 29.5883 91.6234 29.5883C91.1435 29.5883 90.7371 29.6911 90.4041 29.8968C90.0809 30.1024 89.8312 30.3718 89.6549 30.7047C89.4786 31.0377 89.3709 31.4049 89.3317 31.8065Z" fill="white"/>
<path d="M106.758 36.3898C105.984 36.3898 105.347 36.2184 104.848 35.8756C104.348 35.523 103.976 35.053 103.731 34.4654C103.487 33.868 103.364 33.1971 103.364 32.4528C103.364 31.7085 103.487 31.0377 103.731 30.4403C103.976 29.8331 104.353 29.3532 104.863 29.0007C105.372 28.6481 106.023 28.4718 106.816 28.4718C107.12 28.4718 107.424 28.511 107.727 28.5894C108.041 28.6579 108.334 28.7705 108.609 28.9272C108.883 29.0741 109.118 29.2749 109.314 29.5295V25.9158H110.562V36.3016H109.372L109.314 35.1411C109.137 35.4349 108.912 35.6748 108.638 35.8609C108.374 36.0372 108.08 36.1694 107.757 36.2575C107.433 36.3457 107.1 36.3898 106.758 36.3898ZM106.934 35.288C107.453 35.288 107.889 35.1558 108.241 34.8914C108.594 34.627 108.863 34.2744 109.049 33.8337C109.235 33.393 109.328 32.9131 109.328 32.3941C109.328 31.8554 109.235 31.3756 109.049 30.9545C108.873 30.5333 108.609 30.2004 108.256 29.9555C107.903 29.7107 107.458 29.5883 106.919 29.5883C106.361 29.5883 105.91 29.7156 105.568 29.9702C105.235 30.2249 104.99 30.5725 104.833 31.0132C104.686 31.4441 104.613 31.9289 104.613 32.4675C104.613 32.8593 104.652 33.2265 104.73 33.5693C104.819 33.9022 104.951 34.2009 105.127 34.4654C105.313 34.72 105.553 34.9208 105.847 35.0677C106.141 35.2146 106.503 35.288 106.934 35.288Z" fill="white"/>
</svg>
