<svg width="110" height="36" viewBox="0 0 110 36" fill="none" xmlns="http://www.w3.org/2000/svg">
<path d="M6.97643 16.3935C5.9173 16.3935 4.91784 16.235 3.97805 15.918C3.05317 15.5859 2.27747 15.0652 1.65094 14.3557C1.02442 13.6311 0.614191 12.6877 0.420266 11.5253H3.26201C3.44102 12.114 3.72445 12.5744 4.1123 12.9065C4.51507 13.2386 4.98496 13.4726 5.52199 13.6085C6.05901 13.7292 6.60349 13.7896 7.15543 13.7896C7.64771 13.7896 8.11014 13.7292 8.54275 13.6085C8.99026 13.4726 9.35574 13.2537 9.63917 12.9518C9.93751 12.6499 10.0867 12.2499 10.0867 11.7517C10.0867 11.3744 10.0046 11.0725 9.84055 10.846C9.69138 10.6045 9.47508 10.4083 9.19165 10.2573C8.92314 10.0913 8.59495 9.96295 8.2071 9.87238C7.83417 9.75162 7.4314 9.64595 6.9988 9.55538C6.5662 9.46481 6.14106 9.36669 5.72337 9.26102C5.30569 9.15535 4.91038 9.0195 4.53745 8.85345C4.06009 8.6874 3.59765 8.49871 3.15013 8.28737C2.71753 8.06094 2.33714 7.78923 2.00896 7.47223C1.6957 7.15523 1.4421 6.76275 1.24818 6.2948C1.05425 5.82684 0.95729 5.26832 0.95729 4.61922C0.95729 3.87955 1.07663 3.24555 1.31531 2.71721C1.5689 2.17378 1.89708 1.72847 2.29985 1.38128C2.71753 1.03409 3.17997 0.762373 3.68716 0.566134C4.20926 0.369895 4.74629 0.22649 5.29823 0.135918C5.86509 0.0453468 6.40211 6.10352e-05 6.9093 6.10352e-05C7.89384 6.10352e-05 8.78888 0.166109 9.59442 0.498206C10.4149 0.830302 11.0861 1.34354 11.6083 2.03792C12.1304 2.73231 12.4287 3.62293 12.5033 4.70979H9.7958C9.73613 4.19655 9.55712 3.78898 9.25878 3.48707C8.96043 3.17007 8.5875 2.94364 8.13998 2.80779C7.69246 2.65683 7.20765 2.58135 6.68554 2.58135C6.32752 2.58135 5.96951 2.61155 5.61149 2.67193C5.26839 2.73231 4.95513 2.83797 4.6717 2.98893C4.40319 3.13988 4.17943 3.34367 4.00042 3.60029C3.83633 3.84181 3.75429 4.15127 3.75429 4.52865C3.75429 4.86074 3.83633 5.1551 4.00042 5.41172C4.16451 5.65325 4.38827 5.85703 4.6717 6.02308C4.97005 6.18913 5.3206 6.34008 5.72337 6.47594C6.24548 6.68727 6.81234 6.84577 7.42395 6.95144C8.05047 7.05711 8.63971 7.20051 9.19165 7.38166C9.72867 7.53261 10.2209 7.7213 10.6685 7.94773C11.1309 8.15907 11.5262 8.42323 11.8544 8.74023C12.1826 9.04214 12.4362 9.41952 12.6152 9.87238C12.8091 10.3101 12.9061 10.8385 12.9061 11.4574C12.9061 12.3631 12.742 13.133 12.4138 13.767C12.1005 14.3859 11.6605 14.8916 11.0936 15.284C10.5417 15.6765 9.90768 15.9633 9.19165 16.1445C8.49053 16.3105 7.75213 16.3935 6.97643 16.3935Z" fill="white"/>
<path d="M15.7753 16.2124V0.203848H22.2643C22.9952 0.203848 23.6665 0.271776 24.2781 0.407634C24.9046 0.528396 25.4417 0.747277 25.8892 1.06428C26.3516 1.38128 26.7096 1.80395 26.9632 2.33228C27.2168 2.86062 27.3436 3.51726 27.3436 4.30222C27.3436 5.02679 27.1795 5.69098 26.8514 6.2948C26.5232 6.88351 26.0384 7.32882 25.3969 7.63073C26.2621 7.85716 26.9259 8.29492 27.3884 8.94402C27.8508 9.57802 28.082 10.4083 28.082 11.4347C28.082 12.3556 27.9105 13.1254 27.5674 13.7443C27.2392 14.3481 26.7768 14.8312 26.1801 15.1935C25.5983 15.5558 24.9196 15.8199 24.1439 15.986C23.3682 16.1369 22.5403 16.2124 21.6601 16.2124H15.7753ZM18.5723 13.6311H21.9063C22.324 13.6311 22.7342 13.6009 23.1369 13.5405C23.5397 13.4802 23.9052 13.3745 24.2334 13.2235C24.5616 13.0726 24.8151 12.8537 24.9942 12.5669C25.1881 12.265 25.285 11.8801 25.285 11.4121C25.285 10.9894 25.2105 10.6422 25.0613 10.3705C24.9121 10.0988 24.7033 9.88748 24.4348 9.73652C24.1812 9.57047 23.8754 9.45726 23.5173 9.39688C23.1593 9.3214 22.7864 9.28366 22.3985 9.28366H18.5723V13.6311ZM18.5723 6.90616H21.5259C21.9883 6.90616 22.406 6.86087 22.7789 6.7703C23.1519 6.67973 23.4726 6.54387 23.7411 6.36272C24.0096 6.16649 24.2185 5.93251 24.3676 5.66079C24.5168 5.37398 24.5914 5.02679 24.5914 4.61922C24.5914 4.09088 24.472 3.69841 24.2334 3.44179C23.9947 3.17007 23.6665 2.99648 23.2488 2.921C22.8461 2.83043 22.3911 2.78514 21.8839 2.78514H18.5723V6.90616Z" fill="white"/>
<path d="M30.7659 16.2124V0.203848H41.9315V2.78514H33.5629V6.99673H40.8351V9.53274H33.5629V13.6311H41.9315V16.2124H30.7659Z" fill="white"/>
<path d="M50.5037 5.28492C50.186 5.28492 49.8861 5.23737 49.6042 5.14227C49.3267 5.04264 49.094 4.88641 48.906 4.67356C48.7181 4.45619 48.595 4.17315 48.5368 3.82445H49.3894C49.4431 4.00107 49.5281 4.13919 49.6445 4.23882C49.7653 4.33845 49.9062 4.40864 50.0674 4.4494C50.2285 4.48563 50.3918 4.50374 50.5574 4.50374C50.7051 4.50374 50.8438 4.48563 50.9736 4.4494C51.1078 4.40864 51.2175 4.34298 51.3025 4.2524C51.392 4.16183 51.4368 4.04183 51.4368 3.89238C51.4368 3.77917 51.4122 3.6886 51.3629 3.62067C51.3182 3.54821 51.2533 3.48934 51.1683 3.44405C51.0877 3.39424 50.9892 3.35574 50.8729 3.32857C50.761 3.29234 50.6402 3.26064 50.5104 3.23347C50.3806 3.2063 50.2531 3.17686 50.1278 3.14516C50.0025 3.11346 49.8839 3.07271 49.772 3.02289C49.6288 2.97308 49.4901 2.91647 49.3558 2.85307C49.226 2.78514 49.1119 2.70363 49.0134 2.60853C48.9195 2.51343 48.8434 2.39568 48.7852 2.2553C48.727 2.11491 48.6979 1.94735 48.6979 1.75262C48.6979 1.53072 48.7337 1.34052 48.8054 1.18202C48.8814 1.01899 48.9799 0.8854 49.1007 0.781242C49.226 0.677085 49.3647 0.59557 49.5169 0.536699C49.6735 0.477827 49.8346 0.434805 50.0002 0.407634C50.1703 0.380463 50.3314 0.366877 50.4836 0.366877C50.7789 0.366877 51.0474 0.416691 51.2891 0.51632C51.5352 0.615949 51.7366 0.769921 51.8932 0.978236C52.0499 1.18655 52.1394 1.45374 52.1618 1.7798H51.3495C51.3316 1.62582 51.2779 1.50355 51.1884 1.41298C51.0989 1.31788 50.987 1.24995 50.8528 1.20919C50.7185 1.16391 50.5731 1.14126 50.4164 1.14126C50.309 1.14126 50.2016 1.15032 50.0942 1.16844C49.9913 1.18655 49.8973 1.21825 49.8123 1.26354C49.7317 1.30882 49.6646 1.36996 49.6109 1.44694C49.5617 1.5194 49.537 1.61224 49.537 1.72545C49.537 1.82508 49.5617 1.91339 49.6109 1.99038C49.6601 2.06283 49.7272 2.12397 49.8123 2.17378C49.9018 2.2236 50.0069 2.26888 50.1278 2.30964C50.2844 2.37304 50.4545 2.42059 50.6379 2.45229C50.8259 2.48399 51.0027 2.52701 51.1683 2.58136C51.3294 2.62664 51.477 2.68325 51.6113 2.75118C51.75 2.81458 51.8686 2.89383 51.9671 2.98893C52.0655 3.0795 52.1416 3.19271 52.1953 3.32857C52.2535 3.4599 52.2826 3.6184 52.2826 3.80407C52.2826 4.07579 52.2333 4.30675 52.1349 4.49695C52.0409 4.68262 51.9089 4.83433 51.7388 4.95207C51.5733 5.06981 51.3831 5.15586 51.1683 5.2102C50.9579 5.26002 50.7364 5.28492 50.5037 5.28492Z" fill="white"/>
<path d="M53.4186 5.23058V0.428013H54.5664L55.8822 2.85307L57.1844 0.428013H58.2988V5.23058H57.4597V1.50129L56.0433 4.09617H55.6875L54.2577 1.50129V5.23058H53.4186Z" fill="white"/>
<path d="M59.1229 5.23058L60.942 0.428013H61.9422L63.7547 5.23058H62.8485L62.533 4.34071H60.3446L60.0224 5.23058H59.1229ZM60.6131 3.57312H62.2577L61.4388 1.28392L60.6131 3.57312Z" fill="white"/>
<path d="M64.582 5.23058V0.428013H65.4211V4.45619H67.8914V5.23058H64.582Z" fill="white"/>
<path d="M68.7903 5.23058V0.428013H69.6294V4.45619H72.0997V5.23058H68.7903Z" fill="white"/>
<path d="M75.1288 5.23058V0.428013H77.0755C77.2948 0.428013 77.4962 0.448391 77.6796 0.489149C77.8676 0.525377 78.0287 0.591042 78.163 0.686142C78.3017 0.781243 78.4091 0.908043 78.4852 1.06654C78.5612 1.22504 78.5993 1.42204 78.5993 1.65752C78.5993 1.8749 78.5501 2.07415 78.4516 2.2553C78.3532 2.43191 78.2077 2.56551 78.0153 2.65608C78.2748 2.72401 78.474 2.85534 78.6127 3.05006C78.7514 3.24027 78.8208 3.48934 78.8208 3.79728C78.8208 4.07353 78.7693 4.30448 78.6664 4.49016C78.568 4.6713 78.4292 4.81621 78.2502 4.9249C78.0757 5.03359 77.8721 5.11284 77.6394 5.16265C77.4066 5.20794 77.1583 5.23058 76.8942 5.23058H75.1288ZM75.9679 4.45619H76.9681C77.0934 4.45619 77.2165 4.44713 77.3373 4.42902C77.4581 4.4109 77.5678 4.3792 77.6662 4.33392C77.7647 4.28863 77.8407 4.22297 77.8944 4.13693C77.9526 4.04635 77.9817 3.93087 77.9817 3.79049C77.9817 3.66369 77.9593 3.55953 77.9146 3.47802C77.8698 3.3965 77.8072 3.3331 77.7266 3.28782C77.6506 3.238 77.5588 3.20404 77.4514 3.18592C77.344 3.16328 77.2321 3.15196 77.1158 3.15196H75.9679V4.45619ZM75.9679 2.43871H76.854C76.9927 2.43871 77.118 2.42512 77.2299 2.39795C77.3418 2.37078 77.438 2.33002 77.5185 2.27568C77.5991 2.2168 77.6617 2.14661 77.7065 2.0651C77.7512 1.97905 77.7736 1.8749 77.7736 1.75262C77.7736 1.59412 77.7378 1.47638 77.6662 1.39939C77.5946 1.31788 77.4962 1.2658 77.3708 1.24316C77.25 1.21599 77.1135 1.2024 76.9614 1.2024H75.9679V2.43871Z" fill="white"/>
<path d="M81.8278 5.28492C81.3758 5.28492 81.0043 5.19661 80.7135 5.02C80.4226 4.83886 80.2078 4.58526 80.069 4.2592C79.9303 3.93314 79.8609 3.54821 79.8609 3.10441V0.428013H80.7V3.12479C80.7 3.36933 80.7336 3.59802 80.8007 3.81087C80.8723 4.01918 80.9909 4.18674 81.1565 4.31354C81.3266 4.44034 81.5548 4.50374 81.8412 4.50374C82.1321 4.50374 82.3559 4.44034 82.5125 4.31354C82.6736 4.18221 82.7855 4.01239 82.8481 3.80407C82.9153 3.59576 82.9488 3.36933 82.9488 3.12479V0.428013H83.7946V3.10441C83.7946 3.54368 83.7253 3.92635 83.5865 4.2524C83.4478 4.57846 83.2352 4.83206 82.9488 5.01321C82.6624 5.19435 82.2887 5.28492 81.8278 5.28492Z" fill="white"/>
<path d="M86.8582 5.28492C86.5404 5.28492 86.2406 5.23737 85.9587 5.14227C85.6812 5.04264 85.4485 4.88641 85.2605 4.67356C85.0726 4.45619 84.9495 4.17315 84.8913 3.82445H85.7439C85.7976 4.00107 85.8826 4.13919 85.9989 4.23882C86.1198 4.33845 86.2607 4.40864 86.4218 4.4494C86.583 4.48563 86.7463 4.50374 86.9119 4.50374C87.0596 4.50374 87.1983 4.48563 87.3281 4.4494C87.4623 4.40864 87.572 4.34298 87.657 4.2524C87.7465 4.16183 87.7913 4.04183 87.7913 3.89238C87.7913 3.77917 87.7666 3.6886 87.7174 3.62067C87.6727 3.54821 87.6078 3.48934 87.5227 3.44405C87.4422 3.39424 87.3437 3.35574 87.2274 3.32857C87.1155 3.29234 86.9947 3.26064 86.8649 3.23347C86.7351 3.2063 86.6076 3.17686 86.4823 3.14516C86.357 3.11346 86.2384 3.07271 86.1265 3.02289C85.9833 2.97308 85.8446 2.91647 85.7103 2.85307C85.5805 2.78514 85.4664 2.70363 85.3679 2.60853C85.274 2.51343 85.1979 2.39568 85.1397 2.2553C85.0815 2.11491 85.0524 1.94735 85.0524 1.75262C85.0524 1.53072 85.0882 1.34052 85.1598 1.18202C85.2359 1.01899 85.3344 0.8854 85.4552 0.781242C85.5805 0.677085 85.7192 0.59557 85.8714 0.536699C86.028 0.477827 86.1891 0.434805 86.3547 0.407634C86.5248 0.380463 86.6859 0.366877 86.838 0.366877C87.1334 0.366877 87.4019 0.416691 87.6436 0.51632C87.8897 0.615949 88.0911 0.769921 88.2477 0.978236C88.4044 1.18655 88.4939 1.45374 88.5162 1.7798H87.704C87.6861 1.62582 87.6324 1.50355 87.5429 1.41298C87.4534 1.31788 87.3415 1.24995 87.2072 1.20919C87.073 1.16391 86.9275 1.14126 86.7709 1.14126C86.6635 1.14126 86.5561 1.15032 86.4487 1.16844C86.3458 1.18655 86.2518 1.21825 86.1668 1.26354C86.0862 1.30882 86.0191 1.36996 85.9654 1.44694C85.9161 1.5194 85.8915 1.61224 85.8915 1.72545C85.8915 1.82508 85.9161 1.91339 85.9654 1.99038C86.0146 2.06283 86.0817 2.12397 86.1668 2.17378C86.2563 2.2236 86.3614 2.26888 86.4823 2.30964C86.6389 2.37304 86.809 2.42059 86.9924 2.45229C87.1804 2.48399 87.3572 2.52701 87.5227 2.58136C87.6838 2.62664 87.8315 2.68325 87.9658 2.75118C88.1045 2.81458 88.2231 2.89383 88.3216 2.98893C88.42 3.0795 88.4961 3.19271 88.5498 3.32857C88.608 3.4599 88.6371 3.6184 88.6371 3.80407C88.6371 4.07579 88.5878 4.30675 88.4894 4.49695C88.3954 4.68262 88.2634 4.83433 88.0933 4.95207C87.9277 5.06981 87.7375 5.15586 87.5227 5.2102C87.3124 5.26002 87.0909 5.28492 86.8582 5.28492Z" fill="white"/>
<path d="M89.773 5.23058V0.428013H90.6121V5.23058H89.773Z" fill="white"/>
<path d="M91.9426 5.23058V0.428013H92.8422L95.1312 3.92635V0.428013H95.9703V5.23058H95.0909L92.7817 1.75262V5.23058H91.9426Z" fill="white"/>
<path d="M97.2982 5.23058V0.428013H100.648V1.2024H98.1373V2.46588H100.319V3.22668H98.1373V4.45619H100.648V5.23058H97.2982Z" fill="white"/>
<path d="M103.482 5.28492C103.164 5.28492 102.864 5.23737 102.582 5.14227C102.305 5.04264 102.072 4.88641 101.884 4.67356C101.696 4.45619 101.573 4.17315 101.515 3.82445H102.367C102.421 4.00107 102.506 4.13919 102.623 4.23882C102.743 4.33845 102.884 4.40864 103.045 4.4494C103.207 4.48563 103.37 4.50374 103.535 4.50374C103.683 4.50374 103.822 4.48563 103.952 4.4494C104.086 4.40864 104.196 4.34298 104.281 4.2524C104.37 4.16183 104.415 4.04183 104.415 3.89238C104.415 3.77917 104.39 3.6886 104.341 3.62067C104.296 3.54821 104.231 3.48934 104.146 3.44405C104.066 3.39424 103.967 3.35574 103.851 3.32857C103.739 3.29234 103.618 3.26064 103.488 3.23347C103.359 3.2063 103.231 3.17686 103.106 3.14516C102.981 3.11346 102.862 3.07271 102.75 3.02289C102.607 2.97308 102.468 2.91647 102.334 2.85307C102.204 2.78514 102.09 2.70363 101.992 2.60853C101.898 2.51343 101.821 2.39568 101.763 2.2553C101.705 2.11491 101.676 1.94735 101.676 1.75262C101.676 1.53072 101.712 1.34052 101.783 1.18202C101.86 1.01899 101.958 0.8854 102.079 0.781242C102.204 0.677085 102.343 0.59557 102.495 0.536699C102.652 0.477827 102.813 0.434805 102.978 0.407634C103.148 0.380463 103.309 0.366877 103.462 0.366877C103.757 0.366877 104.026 0.416691 104.267 0.51632C104.513 0.615949 104.715 0.769921 104.871 0.978236C105.028 1.18655 105.117 1.45374 105.14 1.7798H104.328C104.31 1.62582 104.256 1.50355 104.166 1.41298C104.077 1.31788 103.965 1.24995 103.831 1.20919C103.697 1.16391 103.551 1.14126 103.395 1.14126C103.287 1.14126 103.18 1.15032 103.072 1.16844C102.969 1.18655 102.875 1.21825 102.79 1.26354C102.71 1.30882 102.643 1.36996 102.589 1.44694C102.54 1.5194 102.515 1.61224 102.515 1.72545C102.515 1.82508 102.54 1.91339 102.589 1.99038C102.638 2.06283 102.705 2.12397 102.79 2.17378C102.88 2.2236 102.985 2.26888 103.106 2.30964C103.262 2.37304 103.433 2.42059 103.616 2.45229C103.804 2.48399 103.981 2.52701 104.146 2.58136C104.307 2.62664 104.455 2.68325 104.589 2.75118C104.728 2.81458 104.847 2.89383 104.945 2.98893C105.044 3.0795 105.12 3.19271 105.173 3.32857C105.232 3.4599 105.261 3.6184 105.261 3.80407C105.261 4.07579 105.211 4.30675 105.113 4.49695C105.019 4.68262 104.887 4.83433 104.717 4.95207C104.551 5.06981 104.361 5.15586 104.146 5.2102C103.936 5.26002 103.714 5.28492 103.482 5.28492Z" fill="white"/>
<path d="M108.221 5.28492C107.903 5.28492 107.604 5.23737 107.322 5.14227C107.044 5.04264 106.811 4.88641 106.623 4.67356C106.436 4.45619 106.312 4.17315 106.254 3.82445H107.107C107.16 4.00107 107.246 4.13919 107.362 4.23882C107.483 4.33845 107.624 4.40864 107.785 4.4494C107.946 4.48563 108.109 4.50374 108.275 4.50374C108.423 4.50374 108.561 4.48563 108.691 4.4494C108.825 4.40864 108.935 4.34298 109.02 4.2524C109.109 4.16183 109.154 4.04183 109.154 3.89238C109.154 3.77917 109.13 3.6886 109.08 3.62067C109.036 3.54821 108.971 3.48934 108.886 3.44405C108.805 3.39424 108.707 3.35574 108.59 3.32857C108.478 3.29234 108.358 3.26064 108.228 3.23347C108.098 3.2063 107.97 3.17686 107.845 3.14516C107.72 3.11346 107.601 3.07271 107.489 3.02289C107.346 2.97308 107.207 2.91647 107.073 2.85307C106.943 2.78514 106.829 2.70363 106.731 2.60853C106.637 2.51343 106.561 2.39568 106.503 2.2553C106.444 2.11491 106.415 1.94735 106.415 1.75262C106.415 1.53072 106.451 1.34052 106.523 1.18202C106.599 1.01899 106.697 0.8854 106.818 0.781242C106.943 0.677085 107.082 0.59557 107.234 0.536699C107.391 0.477827 107.552 0.434805 107.718 0.407634C107.888 0.380463 108.049 0.366877 108.201 0.366877C108.496 0.366877 108.765 0.416691 109.007 0.51632C109.253 0.615949 109.454 0.769921 109.611 0.978236C109.767 1.18655 109.857 1.45374 109.879 1.7798H109.067C109.049 1.62582 108.995 1.50355 108.906 1.41298C108.816 1.31788 108.704 1.24995 108.57 1.20919C108.436 1.16391 108.29 1.14126 108.134 1.14126C108.026 1.14126 107.919 1.15032 107.812 1.16844C107.709 1.18655 107.615 1.21825 107.53 1.26354C107.449 1.30882 107.382 1.36996 107.328 1.44694C107.279 1.5194 107.254 1.61224 107.254 1.72545C107.254 1.82508 107.279 1.91339 107.328 1.99038C107.378 2.06283 107.445 2.12397 107.53 2.17378C107.619 2.2236 107.724 2.26888 107.845 2.30964C108.002 2.37304 108.172 2.42059 108.355 2.45229C108.543 2.48399 108.72 2.52701 108.886 2.58136C109.047 2.62664 109.194 2.68325 109.329 2.75118C109.467 2.81458 109.586 2.89383 109.685 2.98893C109.783 3.0795 109.859 3.19271 109.913 3.32857C109.971 3.4599 110 3.6184 110 3.80407C110 4.07579 109.951 4.30675 109.852 4.49695C109.758 4.68262 109.626 4.83433 109.456 4.95207C109.291 5.06981 109.1 5.15586 108.886 5.2102C108.675 5.26002 108.454 5.28492 108.221 5.28492Z" fill="white"/>
<path d="M48.7382 16.0992V11.2966H52.0879V12.071H49.5773V13.3345H51.759V14.0953H49.5773V15.3248H52.0879V16.0992H48.7382Z" fill="white"/>
<path d="M53.1563 16.0992V11.2966H54.0559L56.3449 14.795V11.2966H57.184V16.0992H56.3046L53.9954 12.6212V16.0992H53.1563Z" fill="white"/>
<path d="M59.5322 16.0992V12.071H58.0487V11.2966H61.8481V12.071H60.3646V16.0992H59.5322Z" fill="white"/>
<path d="M62.7137 16.0992V11.2966H66.0634V12.071H63.5528V13.3345H65.7344V14.0953H63.5528V15.3248H66.0634V16.0992H62.7137Z" fill="white"/>
<path d="M67.1318 16.0992V11.2966H69.0047C69.2463 11.2966 69.4746 11.3215 69.6894 11.3713C69.9042 11.4166 70.0944 11.4981 70.26 11.6159C70.4255 11.7291 70.5553 11.8853 70.6493 12.0846C70.7433 12.2839 70.7903 12.5307 70.7903 12.825C70.7903 13.0696 70.7478 13.2847 70.6627 13.4703C70.5777 13.656 70.4591 13.8123 70.3069 13.9391C70.1593 14.0659 69.9825 14.1632 69.7766 14.2311L70.8171 16.0992H69.8773L68.9443 14.367H67.9709V16.0992H67.1318ZM67.9709 13.613H68.8905C69.0427 13.613 69.1814 13.6017 69.3067 13.579C69.4365 13.5519 69.5484 13.5088 69.6424 13.45C69.7408 13.3911 69.8147 13.3118 69.8639 13.2122C69.9176 13.1081 69.9467 12.9767 69.9512 12.8182C69.9512 12.628 69.9109 12.4786 69.8303 12.3699C69.7543 12.2612 69.6424 12.1842 69.4947 12.1389C69.3515 12.0937 69.1792 12.071 68.9778 12.071H67.9709V13.613Z" fill="white"/>
<path d="M71.9564 16.0992V11.2966H73.742C74.1 11.2966 74.4088 11.3532 74.6683 11.4664C74.9324 11.5751 75.136 11.7495 75.2792 11.9895C75.4269 12.2295 75.5007 12.5442 75.5007 12.9337C75.5007 13.305 75.4202 13.6153 75.259 13.8643C75.0979 14.1134 74.8787 14.3013 74.6012 14.4281C74.3237 14.5504 74.006 14.6115 73.648 14.6115H72.7955V16.0992H71.9564ZM72.7955 13.8507H73.6346C73.9433 13.8507 74.1917 13.776 74.3797 13.6266C74.5676 13.4771 74.6616 13.2416 74.6616 12.9201C74.6616 12.6393 74.5833 12.4288 74.4267 12.2884C74.27 12.1435 74.0284 12.071 73.7017 12.071H72.7955V13.8507Z" fill="white"/>
<path d="M76.5646 16.0992V11.2966H78.4375C78.6791 11.2966 78.9073 11.3215 79.1222 11.3713C79.337 11.4166 79.5272 11.4981 79.6927 11.6159C79.8583 11.7291 79.9881 11.8853 80.0821 12.0846C80.1761 12.2839 80.2231 12.5307 80.2231 12.825C80.2231 13.0696 80.1805 13.2847 80.0955 13.4703C80.0105 13.656 79.8919 13.8123 79.7397 13.9391C79.592 14.0659 79.4153 14.1632 79.2094 14.2311L80.2499 16.0992H79.3101L78.377 14.367H77.4037V16.0992H76.5646ZM77.4037 13.613H78.3233C78.4755 13.613 78.6142 13.6017 78.7395 13.579C78.8693 13.5519 78.9812 13.5088 79.0752 13.45C79.1736 13.3911 79.2475 13.3118 79.2967 13.2122C79.3504 13.1081 79.3795 12.9767 79.3839 12.8182C79.3839 12.628 79.3437 12.4786 79.2631 12.3699C79.187 12.2612 79.0752 12.1842 78.9275 12.1389C78.7843 12.0937 78.612 12.071 78.4106 12.071H77.4037V13.613Z" fill="white"/>
<path d="M81.3891 16.0992V11.2966H82.2282V16.0992H81.3891Z" fill="white"/>
<path d="M85.3242 16.1535C85.0065 16.1535 84.7066 16.106 84.4247 16.0109C84.1472 15.9113 83.9145 15.755 83.7266 15.5422C83.5386 15.3248 83.4155 15.0418 83.3574 14.6931H84.2099C84.2636 14.8697 84.3486 15.0078 84.465 15.1074C84.5858 15.2071 84.7268 15.2772 84.8879 15.318C85.049 15.3542 85.2123 15.3723 85.3779 15.3723C85.5256 15.3723 85.6643 15.3542 85.7941 15.318C85.9284 15.2772 86.038 15.2116 86.123 15.121C86.2125 15.0304 86.2573 14.9104 86.2573 14.761C86.2573 14.6478 86.2327 14.5572 86.1834 14.4893C86.1387 14.4168 86.0738 14.3579 85.9888 14.3127C85.9082 14.2628 85.8098 14.2244 85.6934 14.1972C85.5815 14.161 85.4607 14.1293 85.3309 14.1021C85.2011 14.0749 85.0736 14.0455 84.9483 14.0138C84.823 13.9821 84.7044 13.9413 84.5925 13.8915C84.4493 13.8417 84.3106 13.7851 84.1763 13.7217C84.0465 13.6538 83.9324 13.5722 83.834 13.4771C83.74 13.382 83.6639 13.2643 83.6057 13.1239C83.5475 12.9835 83.5185 12.816 83.5185 12.6212C83.5185 12.3993 83.5543 12.2091 83.6259 12.0506C83.7019 11.8876 83.8004 11.754 83.9212 11.6498C84.0465 11.5457 84.1853 11.4642 84.3374 11.4053C84.4941 11.3464 84.6552 11.3034 84.8207 11.2762C84.9908 11.2491 85.1519 11.2355 85.3041 11.2355C85.5994 11.2355 85.8679 11.2853 86.1096 11.3849C86.3557 11.4846 86.5571 11.6385 86.7138 11.8468C86.8704 12.0552 86.9599 12.3223 86.9823 12.6484H86.17C86.1521 12.4944 86.0984 12.3722 86.0089 12.2816C85.9194 12.1865 85.8075 12.1186 85.6733 12.0778C85.539 12.0325 85.3936 12.0099 85.2369 12.0099C85.1295 12.0099 85.0221 12.0189 84.9147 12.037C84.8118 12.0552 84.7178 12.0869 84.6328 12.1321C84.5522 12.1774 84.4851 12.2386 84.4314 12.3156C84.3822 12.388 84.3576 12.4808 84.3576 12.5941C84.3576 12.6937 84.3822 12.782 84.4314 12.859C84.4806 12.9314 84.5478 12.9926 84.6328 13.0424C84.7223 13.0922 84.8275 13.1375 84.9483 13.1782C85.1049 13.2416 85.275 13.2892 85.4585 13.3209C85.6464 13.3526 85.8232 13.3956 85.9888 13.45C86.1499 13.4952 86.2976 13.5519 86.4318 13.6198C86.5705 13.6832 86.6891 13.7624 86.7876 13.8575C86.886 13.9481 86.9621 14.0613 87.0158 14.1972C87.074 14.3285 87.1031 14.487 87.1031 14.6727C87.1031 14.9444 87.0539 15.1754 86.9554 15.3656C86.8614 15.5512 86.7294 15.7029 86.5594 15.8207C86.3938 15.9384 86.2036 16.0245 85.9888 16.0788C85.7784 16.1286 85.5569 16.1535 85.3242 16.1535Z" fill="white"/>
<path d="M88.2391 16.0992V11.2966H91.5888V12.071H89.0782V13.3345H91.2598V14.0953H89.0782V15.3248H91.5888V16.0992H88.2391Z" fill="white"/>
<path d="M3.56337 36.0001C2.75858 36.0001 2.08954 35.8333 1.55625 35.4996C1.03265 35.1562 0.639953 34.6853 0.378154 34.0867C0.126051 33.4882 0 32.8112 0 32.0557C0 31.3198 0.130899 30.6526 0.392698 30.054C0.664193 29.4457 1.07144 28.9649 1.61443 28.6117C2.16711 28.2486 2.86524 28.0671 3.70882 28.0671C4.23242 28.0671 4.69784 28.1554 5.10508 28.332C5.52202 28.5086 5.86623 28.7687 6.13773 29.1121C6.40922 29.4457 6.5983 29.8676 6.70496 30.3778H5.4396C5.29416 29.9461 5.06145 29.6419 4.74147 29.4653C4.43119 29.2789 4.06273 29.1857 3.6361 29.1857C3.05432 29.1857 2.5889 29.323 2.23984 29.5978C1.89077 29.8725 1.63382 30.2306 1.46898 30.6722C1.31384 31.1039 1.23627 31.5651 1.23627 32.0557C1.23627 32.5659 1.31869 33.0369 1.48353 33.4686C1.64836 33.9003 1.90531 34.2486 2.25438 34.5136C2.60344 34.7687 3.05432 34.8962 3.60701 34.8962C4.01425 34.8962 4.39725 34.8079 4.75601 34.6313C5.12447 34.4547 5.36688 34.1407 5.48323 33.6894H6.76314C6.66618 34.2192 6.45771 34.6558 6.13773 34.9992C5.82745 35.3427 5.44445 35.5978 4.98872 35.7646C4.5427 35.9216 4.06758 36.0001 3.56337 36.0001Z" fill="white"/>
<path d="M18.482 36.0001C17.6676 36.0001 16.9937 35.8333 16.4604 35.4996C15.9271 35.1562 15.5295 34.6853 15.2677 34.0867C15.0059 33.4882 14.875 32.8063 14.875 32.0409C14.875 31.2658 15.0108 30.5839 15.2823 29.9952C15.5635 29.3966 15.9707 28.9257 16.504 28.5822C17.0373 28.2388 17.6918 28.0671 18.4675 28.0671C19.0687 28.0671 19.5826 28.1849 20.0092 28.4203C20.4455 28.646 20.8043 28.9502 21.0855 29.3328C21.3667 29.7155 21.5703 30.1374 21.6964 30.5986C21.8224 31.0499 21.8757 31.5062 21.8563 31.9674C21.8466 32.0557 21.837 32.144 21.8273 32.2323C21.8273 32.3206 21.8224 32.4089 21.8127 32.4972H16.1259C16.1646 32.9485 16.2761 33.3557 16.4604 33.7188C16.6446 34.0818 16.9064 34.3713 17.2458 34.5871C17.5851 34.7932 18.0069 34.8962 18.5111 34.8962C18.7632 34.8962 19.0153 34.8668 19.2674 34.8079C19.5292 34.7392 19.762 34.6264 19.9656 34.4694C20.1789 34.3124 20.3292 34.1014 20.4165 33.8365H21.6818C21.5655 34.3369 21.3473 34.749 21.0273 35.0728C20.7073 35.3868 20.3243 35.6223 19.8783 35.7793C19.4323 35.9265 18.9669 36.0001 18.482 36.0001ZM16.1549 31.4081H20.591C20.5813 30.9665 20.4843 30.579 20.3001 30.2454C20.1159 29.9118 19.8638 29.6517 19.5438 29.4653C19.2335 29.2789 18.8602 29.1857 18.4239 29.1857C17.9488 29.1857 17.5464 29.2887 17.2167 29.4947C16.8967 29.7008 16.6495 29.9706 16.4749 30.3042C16.3004 30.6378 16.1937 31.0058 16.1549 31.4081Z" fill="white"/>
<path d="M30.3392 35.9118V28.1554H31.5319L31.5901 29.3623C31.784 29.0581 32.007 28.8128 32.2591 28.6264C32.5209 28.44 32.8069 28.3026 33.1172 28.2143C33.4372 28.1162 33.7814 28.0671 34.1499 28.0671C34.2177 28.0671 34.2808 28.0671 34.3389 28.0671C34.4068 28.0671 34.4747 28.0671 34.5426 28.0671V29.2445H34.0917C33.4905 29.2445 33.0009 29.377 32.6227 29.6419C32.2543 29.897 31.9876 30.2454 31.8228 30.6869C31.6579 31.1186 31.5755 31.5994 31.5755 32.1293V35.9118H30.3392Z" fill="white"/>
<path d="M46.1536 35.9118C45.5719 35.9118 45.1016 35.8234 44.7428 35.6468C44.3938 35.4702 44.1368 35.1955 43.972 34.8226C43.8168 34.4498 43.7393 33.9788 43.7393 33.4097V29.2593H42.4885V28.1554H43.7393V25.8447H44.9755V28.1554H47.0263V29.2593H44.9755V33.2772C44.9755 33.8071 45.0677 34.1996 45.2519 34.4547C45.4458 34.7 45.8337 34.8226 46.4154 34.8226H46.9827V35.9118H46.1536Z" fill="white"/>
<path d="M55.2601 35.9118V28.1554H56.4964V35.9118H55.2601ZM55.871 27.0074C55.6189 27.0074 55.4153 26.9289 55.2601 26.7719C55.1147 26.6149 55.042 26.4138 55.042 26.1685C55.042 25.9232 55.1195 25.727 55.2747 25.5798C55.4298 25.4228 55.6286 25.3443 55.871 25.3443C56.094 25.3443 56.2879 25.4228 56.4528 25.5798C56.6273 25.7368 56.7146 25.933 56.7146 26.1685C56.7146 26.4138 56.6322 26.6149 56.4673 26.7719C56.3025 26.9289 56.1037 27.0074 55.871 27.0074Z" fill="white"/>
<path d="M66.0193 35.9118V29.2593H64.7685V28.1554H66.0193V27.3312C66.0193 26.7523 66.0969 26.2813 66.252 25.9183C66.4169 25.5454 66.6738 25.2707 67.0229 25.0941C67.3817 24.9175 67.8519 24.8292 68.4337 24.8292H69.3064V25.933H68.5646C68.2155 25.933 67.944 25.9919 67.7501 26.1096C67.5659 26.2274 67.435 26.404 67.3574 26.6395C67.2895 26.8651 67.2556 27.1448 67.2556 27.4784V28.1554H69.3064V29.2593H67.2556V35.9118H66.0193Z" fill="white"/>
<path d="M77.4397 35.9118V28.1554H78.676V35.9118H77.4397ZM78.0506 27.0074C77.7985 27.0074 77.5949 26.9289 77.4397 26.7719C77.2943 26.6149 77.2216 26.4138 77.2216 26.1685C77.2216 25.9232 77.2991 25.727 77.4543 25.5798C77.6094 25.4228 77.8082 25.3443 78.0506 25.3443C78.2736 25.3443 78.4675 25.4228 78.6324 25.5798C78.8069 25.7368 78.8942 25.933 78.8942 26.1685C78.8942 26.4138 78.8118 26.6149 78.6469 26.7719C78.4821 26.9289 78.2833 27.0074 78.0506 27.0074Z" fill="white"/>
<path d="M90.7733 36.0001C89.9588 36.0001 89.2849 35.8333 88.7516 35.4996C88.2183 35.1562 87.8208 34.6853 87.559 34.0867C87.2972 33.4882 87.1663 32.8063 87.1663 32.0409C87.1663 31.2658 87.302 30.5839 87.5735 29.9952C87.8547 29.3966 88.262 28.9257 88.7953 28.5822C89.3286 28.2388 89.9831 28.0671 90.7588 28.0671C91.3599 28.0671 91.8738 28.1849 92.3005 28.4203C92.7368 28.646 93.0956 28.9502 93.3768 29.3328C93.6579 29.7155 93.8616 30.1374 93.9876 30.5986C94.1137 31.0499 94.167 31.5062 94.1476 31.9674C94.1379 32.0557 94.1282 32.144 94.1185 32.2323C94.1185 32.3206 94.1137 32.4089 94.104 32.4972H88.4171C88.4559 32.9485 88.5674 33.3557 88.7516 33.7188C88.9359 34.0818 89.1977 34.3713 89.537 34.5871C89.8764 34.7932 90.2982 34.8962 90.8024 34.8962C91.0545 34.8962 91.3066 34.8668 91.5587 34.8079C91.8205 34.7392 92.0532 34.6264 92.2568 34.4694C92.4702 34.3124 92.6204 34.1014 92.7077 33.8365H93.9731C93.8567 34.3369 93.6385 34.749 93.3186 35.0728C92.9986 35.3868 92.6156 35.6223 92.1696 35.7793C91.7235 35.9265 91.2581 36.0001 90.7733 36.0001ZM88.4462 31.4081H92.8822C92.8726 30.9665 92.7756 30.579 92.5914 30.2454C92.4071 29.9118 92.155 29.6517 91.835 29.4653C91.5248 29.2789 91.1515 29.1857 90.7151 29.1857C90.24 29.1857 89.8376 29.2887 89.5079 29.4947C89.188 29.7008 88.9407 29.9706 88.7662 30.3042C88.5917 30.6378 88.485 31.0058 88.4462 31.4081Z" fill="white"/>
<path d="M105.699 36.0001C104.933 36.0001 104.303 35.8284 103.809 35.4849C103.314 35.1317 102.946 34.6607 102.703 34.072C102.461 33.4735 102.34 32.8014 102.34 32.0557C102.34 31.31 102.461 30.6378 102.703 30.0393C102.946 29.431 103.319 28.9502 103.823 28.597C104.327 28.2437 104.972 28.0671 105.758 28.0671C106.058 28.0671 106.359 28.1064 106.659 28.1849C106.97 28.2535 107.26 28.3664 107.532 28.5234C107.803 28.6705 108.036 28.8717 108.23 29.1268V25.5062H109.466V35.9118H108.288L108.23 34.749C108.056 35.0434 107.833 35.2838 107.561 35.4702C107.299 35.6468 107.008 35.7793 106.688 35.8676C106.368 35.9559 106.039 36.0001 105.699 36.0001ZM105.874 34.8962C106.388 34.8962 106.819 34.7638 107.168 34.4988C107.517 34.2339 107.784 33.8807 107.968 33.4391C108.153 32.9976 108.245 32.5168 108.245 31.9968C108.245 31.4571 108.153 30.9763 107.968 30.5544C107.794 30.1325 107.532 29.7989 107.183 29.5536C106.834 29.3083 106.393 29.1857 105.859 29.1857C105.307 29.1857 104.861 29.3132 104.521 29.5683C104.192 29.8234 103.949 30.1718 103.794 30.6133C103.649 31.045 103.576 31.5307 103.576 32.0704C103.576 32.4629 103.615 32.8308 103.692 33.1742C103.78 33.5078 103.91 33.8071 104.085 34.072C104.269 34.3271 104.507 34.5283 104.798 34.6754C105.088 34.8226 105.447 34.8962 105.874 34.8962Z" fill="white"/>
</svg>
