<svg width="1020" height="350" viewBox="0 0 1020 350" fill="none" xmlns="http://www.w3.org/2000/svg">
<rect x="1.5" y="-1.5" width="322" height="56.9236" rx="8.5" transform="matrix(1 0 0 -1 234 132.368)" stroke="white" stroke-width="3"/>
<rect x="1.5" y="-1.5" width="254" height="56.9236" rx="8.5" transform="matrix(1 0 0 -1 763 229.244)" stroke="white" stroke-width="3"/>
<rect x="1.5" y="-1.5" width="305" height="56.9236" rx="8.5" transform="matrix(1 0 0 -1 0 284.174)" stroke="white" stroke-width="3"/>
<rect x="1.5" y="-1.5" width="92" height="321" rx="8.5" transform="matrix(1 0 0 -1 381 321)" stroke="white" stroke-width="3"/>
<rect x="1.5" y="-1.5" width="92.6118" height="274.462" rx="8.5" transform="matrix(1 0 0 -1 618.852 327.312)" stroke="white" stroke-width="3"/>
<rect x="1.5" y="-1.5" width="92.6118" height="159.153" rx="8.5" transform="matrix(1 0 0 -1 880.389 212.003)" stroke="white" stroke-width="3"/>
<rect x="1.5" y="-1.5" width="92.6118" height="159.153" rx="8.5" transform="matrix(1 0 0 -1 136 346.831)" stroke="white" stroke-width="3"/>
<rect x="1.5" y="-1.5" width="510" height="149" rx="8.5" transform="matrix(1 0 0 -1 305 254)" stroke="white" stroke-width="3"/>
</svg>
