<svg width="788" height="425" viewBox="0 0 788 425" fill="none" xmlns="http://www.w3.org/2000/svg">
<rect x="-1.5" y="1.5" width="383" height="57" rx="8.5" transform="matrix(-1 0 0 1 785 288.541)" stroke="#3938FE" stroke-width="3"/>
<rect x="-1.5" y="1.5" width="305" height="57" rx="8.5" transform="matrix(-1 0 0 1 305 192)" stroke="#3938FE" stroke-width="3"/>
<rect x="-1.5" y="1.5" width="92.6118" height="421.54" rx="8.5" transform="matrix(-1 0 0 1 638.275 0)" stroke="#3938FE" stroke-width="3"/>
<rect x="-1.5" y="1.5" width="92.6118" height="274.815" rx="8.5" transform="matrix(-1 0 0 1 400.147 93.8076)" stroke="#3938FE" stroke-width="3"/>
<rect x="-1.5" y="1.5" width="92.6118" height="159.36" rx="8.5" transform="matrix(-1 0 0 1 138.611 209.264)" stroke="#3938FE" stroke-width="3"/>
<rect x="-1.5" y="1.5" width="510.538" height="161.765" rx="8.5" transform="matrix(-1 0 0 1 714.043 154.542)" stroke="#3938FE" stroke-width="3"/>
</svg>
