<svg width="260" height="260" viewBox="0 0 260 260" fill="none" xmlns="http://www.w3.org/2000/svg">
<circle cx="130" cy="130" r="130" fill="white"/>
<path fill-rule="evenodd" clip-rule="evenodd" d="M123.319 0.0615335C99.9871 1.52721 79.887 7.89305 60.716 19.8881C52.4531 25.0581 45.3692 30.7386 38.0399 38.0716C24.4397 51.6789 14.7449 66.757 7.97347 84.8326C4.0785 95.2303 1.60203 106.179 0.393581 118.345C-0.129343 123.61 -0.131641 136.432 0.389401 141.651C2.09549 158.739 6.26717 173.417 13.5787 188.058C19.3164 199.548 26.3322 209.597 35.3684 219.266C41.7073 226.049 49.7121 232.819 57.7026 238.154C76.6257 250.788 97.9575 258.094 120.811 259.768C125.037 260.077 135.097 260.077 139.203 259.768C162.053 258.048 183.34 250.749 202.218 238.162C213.682 230.518 224.267 220.626 233.022 209.375C235.493 206.2 240.461 198.78 242.641 195.01C257.676 169.005 263.197 138.269 258.213 108.312C256.879 100.29 255.021 93.3621 251.794 84.3786C249.678 78.4856 245.546 69.8625 241.929 63.7897C230.244 44.1745 214.189 28.3969 194.179 16.8661C192.145 15.6941 183.798 11.4291 183.538 11.4291C183.482 11.4291 182.842 11.1549 182.116 10.8196C179.876 9.78598 175.52 8.0979 172.017 6.90562C161.952 3.47971 152.579 1.48771 141.607 0.441749C138.348 0.131139 126.225 -0.120945 123.319 0.0615335ZM138.472 4.00582C146.397 4.57416 152.34 5.48216 159.706 7.24988C187.943 14.0275 213.216 30.6688 230.859 54.1027C245.416 73.4366 253.874 95.7807 255.841 120.097C256.276 125.475 256.163 137.729 255.634 142.592C253.93 158.242 250.107 171.696 243.519 185.233C233.618 205.575 218.424 222.893 199.501 235.403C181.557 247.266 161.91 254.016 139.831 255.903C134.773 256.335 122.097 256.214 117.258 255.687C96.0648 253.381 76.9428 246.492 59.7826 234.983C36.3817 219.288 18.8974 196.352 10.1101 169.823C4.4267 152.664 2.46793 134.296 4.4106 116.37C6.58193 96.3348 13.5929 76.905 24.628 60.3408C44.7397 30.1521 76.5611 9.995 112.033 4.97486C120.765 3.73911 130.019 3.39986 138.472 4.00582ZM115.168 11.7845C109.307 12.3168 103.563 14.8536 100.932 18.0713C99.7549 19.5117 98.6594 21.7175 98.3275 23.3161C97.9711 25.0337 98.1835 28.3981 98.7402 29.8511C102.317 39.1855 118.64 42.1264 128.303 35.1774C135.169 30.2396 135.757 21.2023 129.589 15.4313C127.99 13.9357 126.508 13.0689 124.573 12.4974C122.097 11.7663 118.429 11.4881 115.168 11.7845ZM148.504 12.9926C148.504 13.0478 147.887 15.7992 147.132 19.1066C145.774 25.0577 145.457 26.45 144.033 32.7431C143.63 34.5215 143.325 36.0008 143.355 36.0307C143.579 36.2547 151.522 38.3811 151.642 38.249C151.726 38.1558 152.381 35.2109 153.098 31.7045C153.814 28.1981 154.425 25.3025 154.455 25.2699C154.56 25.1553 154.754 26.852 155.33 32.9325L155.911 39.0726L159.763 40.9277C161.882 41.9479 163.747 42.7828 163.909 42.7828C164.07 42.7828 166.787 40.7841 169.947 38.341C177.295 32.6593 176.63 33.1085 176.198 34.1227C175.793 35.0748 172.241 43.882 171.681 45.3233L171.302 46.2961L175.004 48.2262C177.039 49.2878 179.098 50.3785 179.578 50.6498L180.451 51.1433L182.062 48.0604C184.09 44.1814 185.777 40.931 188.11 36.4075C189.118 34.4532 190.406 31.9835 190.971 30.9196C191.537 29.8555 191.949 28.9033 191.888 28.8034C191.785 28.6377 190.122 27.7282 181.074 22.8916C179.389 21.9905 177.884 21.2581 177.73 21.2639C177.577 21.27 174.347 24.0824 170.554 27.514C166.76 30.9455 163.628 33.7255 163.592 33.6917C163.556 33.658 163.459 29.6272 163.375 24.7341C163.292 19.8411 163.168 15.7831 163.101 15.7162C162.965 15.5795 149.439 12.8975 148.87 12.8944C148.669 12.8931 148.504 12.9374 148.504 12.9926ZM119.065 18.3194C123.645 19.7351 125.938 23.7935 124.184 27.3796C121.328 33.2168 110.974 33.4308 107.865 27.7169C106.966 26.0652 106.888 24.2302 107.645 22.5421C108.573 20.4755 110.83 18.7257 113.329 18.138C114.811 17.7891 117.639 17.8786 119.065 18.3194ZM75.0939 25.3976C70.6407 28.349 63.9397 32.777 60.2025 35.2376C56.4656 37.6983 53.4081 39.7741 53.4081 39.8506C53.4081 40.0736 57.371 45.8072 57.5731 45.8765C57.674 45.911 59.7494 44.5171 62.1853 42.7786C64.621 41.0399 66.7292 39.6618 66.8701 39.7158C67.011 39.7699 69.3127 42.8789 71.985 46.6249C74.6575 50.3706 76.9398 53.4946 77.0569 53.567C77.2218 53.669 84.0024 49.2621 86.0845 47.7001C86.4885 47.3968 86.3077 47.1104 78.2668 35.3127C77.543 34.2506 76.991 33.347 77.0404 33.3048C77.0895 33.2626 79.4811 31.8412 82.3549 30.146C85.2287 28.4506 87.6449 27.0027 87.7243 26.9281C87.8038 26.8534 87.2668 25.8518 86.5314 24.7022C85.7959 23.5525 84.8414 22.0241 84.4102 21.3055C83.9792 20.5871 83.5284 20.0064 83.4087 20.0152C83.2889 20.024 79.5473 22.446 75.0939 25.3976ZM196.784 46.5833C193.048 51.3143 189.667 55.6006 189.27 56.1083L188.549 57.0316L189.788 58.1114C190.47 58.7052 192.063 60.1109 193.329 61.2348C194.595 62.3587 195.739 63.2523 195.872 63.2206C196.004 63.1888 199.521 59.3062 203.687 54.5927C207.853 49.8792 211.444 45.8212 211.667 45.5749L212.071 45.1272L207.931 41.5512C205.653 39.5845 203.742 37.9767 203.683 37.9784C203.624 37.98 200.52 41.8522 196.784 46.5833ZM122.113 44.0501C100.33 46.2816 81.0965 55.8062 66.5288 71.5759L64.9358 73.3003H61.4026H57.8696L53.4501 78.4737L49.0307 83.647L49.0249 89.4475L49.019 95.2479H49.9595C50.4768 95.2479 50.9 95.2905 50.9 95.3426C50.9 95.3946 50.4822 96.4571 49.9718 97.7037C46.9077 105.186 44.7875 114.006 44.0055 122.526C43.683 126.037 43.7436 134.909 44.1144 138.47C45.8025 154.687 51.4886 169.209 61.1719 182.034C73.7137 198.644 92.2685 210.375 112.504 214.487C125.388 217.105 138.354 216.818 151.077 213.631C162.293 210.822 172.54 205.888 182.134 198.677L184.308 197.043H187.779H191.251L195.532 192.014L199.814 186.986L199.985 183.601L200.157 180.216L202.004 177.395C214.109 158.905 218.643 137.137 214.955 115.21C212.836 102.612 207.36 89.7345 199.625 79.1551C186.59 61.3291 167.228 49.1273 145.737 45.1953C140.025 44.1502 138.104 43.9861 130.843 43.9226C127.05 43.8894 123.121 43.9466 122.113 44.0501ZM136.904 47.7998C145.239 48.5579 153.446 50.5112 160.69 53.4606C162.069 54.022 163.246 54.5299 163.305 54.5893C163.364 54.6487 148.377 54.6972 130 54.6972C111.06 54.6972 96.6738 54.6184 96.7865 54.5155C97.0968 54.2315 102.142 52.3185 105.032 51.3889C110.557 49.6116 115.887 48.5098 121.856 47.911C125.174 47.5782 133.769 47.5147 136.904 47.7998ZM167.79 56.7094C170.398 58.0186 176.312 61.6205 177.231 62.4589C177.343 62.5611 156.721 62.6401 129.894 62.6401H82.358L84.3421 61.3136C86.6392 59.7775 91.4379 56.9594 92.7444 56.3792C93.6144 55.9927 94.713 55.9804 129.96 55.9662L166.28 55.9513L167.79 56.7094ZM181.953 66.0108C184.453 68.0726 186.961 70.3458 186.961 70.5494C186.961 70.6252 161.285 70.6875 129.903 70.6875C98.5212 70.6875 72.8453 70.634 72.8453 70.5684C72.8453 70.503 73.104 70.2281 73.42 69.9576C73.736 69.6871 74.7472 68.7917 75.6668 67.9677C76.5864 67.1437 78.0442 65.9136 78.9065 65.2341L80.4743 63.9988L130.121 64.1033L179.768 64.2078L181.953 66.0108ZM190.013 73.5616C191.25 74.8333 192.462 76.2093 194.247 78.3692C194.535 78.7174 192.548 78.735 153.03 78.735H111.511V76.0177V73.3003H90.7804H70.0501L70.6507 72.6733L71.2514 72.0462H129.895H188.538L190.013 73.5616ZM110.092 79.2255C110.125 81.6797 110.122 83.8431 110.085 84.0331C110.023 84.3483 109.185 84.3786 100.523 84.3786H91.0285V106.64V128.901H82.8774H74.7263V106.64V84.3786H66.5752H58.4241V79.5711V74.7635H84.228H110.032L110.092 79.2255ZM197.091 82.1279C197.899 83.2468 198.913 84.7283 199.345 85.42L200.129 86.6779H155.063H109.997L110.754 85.7544L111.511 84.8307V82.4094V79.9881L153.566 80.041L195.622 80.0936L197.091 82.1279ZM202.573 90.9111C203.401 92.434 204.174 93.939 204.292 94.255L204.506 94.8298H153.818C111.214 94.8298 103.156 94.7847 103.297 94.5464C103.389 94.3905 104.64 92.8882 106.077 91.2081L108.689 88.153L154.879 88.1476L201.068 88.1419L202.573 90.9111ZM65.3212 99.4284V102.773H58.7376C55.1166 102.773 52.154 102.71 52.154 102.634C52.154 102.557 52.7307 101.052 53.4352 99.2892L54.7164 96.084H60.0188H65.3212V99.4284ZM206.001 98.0697C206.431 99.1044 207.021 100.586 207.312 101.362L207.842 102.773H184.353H160.864L160.798 102.302L160.731 101.832L137.471 101.779L114.211 101.726L113.687 102.249L113.164 102.773H102.845C96.2569 102.773 92.5011 102.698 92.4566 102.567C92.4183 102.454 92.4152 100.948 92.4497 99.2221L92.5124 96.0832L148.866 96.1358L205.219 96.1885L206.001 98.0697ZM159.372 107.998V112.806H145.892H132.411V118.032V123.257H145.892H159.372V128.483V133.708H145.892H132.411V140.92V148.131H145.892H159.372V153.043V157.955H137.009H114.646V130.573V103.191H137.009H159.372V107.998ZM65.2742 107.398C65.3308 110.627 65.3262 110.666 64.8635 110.787C64.606 110.854 61.1635 110.901 57.2136 110.892C51.4491 110.878 50.0107 110.82 49.9252 110.597C49.8299 110.349 50.9891 105.965 51.5183 104.573L51.7279 104.021L58.4724 104.076L65.2167 104.131L65.2742 107.398ZM111.894 104.211C111.856 104.313 110.625 105.804 109.158 107.526L106.493 110.656L105.209 110.791C103.588 110.96 93.5921 110.962 92.9617 110.793C92.499 110.669 92.4915 110.613 92.4915 107.347V104.027H102.227C107.762 104.027 111.934 104.107 111.894 104.211ZM208.568 105.02C209.277 107.199 210.147 110.567 210.045 110.733C209.922 110.932 162.136 110.997 161.346 110.799L160.835 110.67V107.349V104.027H184.54H208.245L208.568 105.02ZM65.3212 115.523V118.868H56.7481H48.1751L48.2781 118.397C48.3347 118.139 48.5749 116.798 48.8115 115.419C49.0483 114.039 49.2922 112.746 49.3536 112.545C49.4573 112.205 50.0245 112.179 57.3931 112.179H65.3212V115.523ZM105.241 115.523V118.868H98.8661H92.4915V115.523V112.179H98.8661H105.241V115.523ZM210.862 114.008C211.505 117.592 211.668 118.683 211.576 118.775C211.524 118.827 199.006 118.845 183.758 118.816L156.035 118.763L158.435 115.974C160.057 114.089 160.835 113.021 160.835 112.681V112.179H185.685H210.534L210.862 114.008ZM239.42 117.606V119.704H241.669H243.917L243.875 117.666L243.833 115.628L241.627 115.568L239.42 115.509V117.606ZM65.3212 123.466V126.811H56.4097H47.4983L47.626 125.295C47.6962 124.462 47.8162 122.957 47.8927 121.951L48.0315 120.122H56.6764H65.3212V123.466ZM105.241 123.466V126.811H98.8661H92.4915V123.466V120.122H98.8661H105.241V123.466ZM211.928 121.115C212.003 121.661 212.13 123.166 212.212 124.459L212.36 126.811H186.605H160.849L160.79 124.459L160.731 122.108L157.011 122.05L153.291 121.993L154.058 121.058L154.825 120.122H183.309H211.792L211.928 121.115ZM232.21 123.038C229.639 123.245 228.832 123.875 228.199 126.169C227.879 127.329 227.82 128.371 227.82 132.872C227.82 138.042 227.835 138.232 228.311 139.198C228.889 140.373 230.015 141.125 231.662 141.438C232.263 141.552 234.434 141.655 236.486 141.667C240.542 141.691 241.473 141.491 242.549 140.371C243.705 139.166 243.861 138.383 244.081 132.687C244.299 127.022 244.205 125.933 243.379 124.596C242.807 123.67 241.521 123.108 239.577 122.935L237.957 122.79V125.114C237.957 127.323 237.978 127.438 238.389 127.438C239.058 127.438 239.628 127.826 239.864 128.443C240.002 128.806 240.025 130.23 239.928 132.448C239.78 135.846 239.771 135.898 239.197 136.472C238.632 137.037 238.555 137.053 236.294 137.053C233.721 137.053 232.773 136.792 232.208 135.93C231.91 135.476 231.871 134.885 231.93 131.818C231.998 128.346 232.016 128.224 232.494 127.837C232.765 127.617 233.212 127.438 233.487 127.438C233.983 127.438 233.986 127.423 233.986 125.138C233.986 123.874 233.963 122.854 233.934 122.872C233.905 122.889 233.129 122.964 232.21 123.038ZM19.7064 123.623L14.7426 123.683L14.7431 126.24C14.7433 127.646 14.8053 131.266 14.8812 134.283L15.0187 139.77H16.9861H18.9534L18.8023 134.106C18.6322 127.734 18.5519 128.073 20.2289 128.068L21.2217 128.065L21.2535 132.088C21.271 134.301 21.3072 136.206 21.3339 136.321C21.3607 136.436 21.3933 137.071 21.4067 137.732L21.4307 138.934H22.133C22.5194 138.934 23.277 138.873 23.8169 138.799L24.7982 138.665L24.6512 133.365L24.5045 128.065H25.789H27.0738L27.1034 131.566C27.1195 133.491 27.1505 135.255 27.1722 135.485C27.1937 135.715 27.2274 136.679 27.247 137.628L27.2828 139.352H29.1751H31.0672L30.9347 131.67C30.8617 127.446 30.7656 123.871 30.7211 123.727C30.6602 123.531 29.8949 123.478 27.655 123.514C26.0135 123.541 22.4366 123.59 19.7064 123.623ZM65.2742 131.566L65.2167 134.858H56.4386H47.6605L47.603 131.566L47.5453 128.274H56.4386H65.3318L65.2742 131.566ZM105.194 131.566L105.136 134.858L96.5148 134.913C91.625 134.944 87.8934 134.887 87.8934 134.783C87.8934 134.681 88.8826 133.461 90.0915 132.071C91.4596 130.499 92.3377 129.304 92.4167 128.909L92.5437 128.274H98.8974H105.251L105.194 131.566ZM212.457 130.521C212.456 131.757 212.396 133.262 212.323 133.865L212.191 134.963H206.473H200.755V132.35V129.737H190.625H180.495L176.82 132.35L173.145 134.963H166.781C160.916 134.963 159.918 134.878 160.626 134.44C160.75 134.363 160.835 133.079 160.835 131.292V128.274H186.647H212.459L212.457 130.521ZM198.665 158.948V186.174L190.2 186.193C185.545 186.203 181.43 186.22 181.056 186.231L180.377 186.25L180.324 158.986L180.271 131.723H189.468H198.665V158.948ZM65.3212 137.889V139.561H74.493H83.6651L85.0978 137.889L86.5305 136.217H95.8855H105.241V139.561V142.905H76.842H48.4436L48.2102 140.972C48.0818 139.909 47.9161 138.404 47.8419 137.628L47.7073 136.217H56.5142H65.3212V137.889ZM171.118 136.468C170.946 136.64 170.867 137.684 170.867 139.812V142.905H162.612C158.071 142.905 154.356 142.853 154.356 142.788C154.356 142.724 155.461 141.219 156.812 139.444L159.268 136.217L165.318 136.217C170.024 136.217 171.313 136.273 171.118 136.468ZM212.137 136.896C212.089 137.27 211.948 138.563 211.823 139.77C211.698 140.977 211.544 142.177 211.482 142.435L211.368 142.905H205.957H200.546V139.701C200.546 137.938 200.608 136.433 200.685 136.356C200.762 136.279 203.389 136.217 206.524 136.217H212.223L212.137 136.896ZM105.194 147.556L105.251 150.848H77.6575C62.4811 150.848 50.064 150.801 50.064 150.742C50.064 150.684 49.7819 149.368 49.437 147.818C49.0922 146.267 48.81 144.81 48.81 144.579C48.81 144.159 48.8806 144.158 76.9731 144.211L105.136 144.264L105.194 147.556ZM170.82 147.556L170.878 150.848H165.864H160.85L160.791 148.81L160.731 146.772L156.053 146.668L151.376 146.563L152.357 145.359L153.338 144.155L162.05 144.21L170.763 144.264L170.82 147.556ZM211.042 144.891C210.973 145.647 210.212 149.219 209.919 150.169L209.709 150.848H204.999H200.288L200.414 150.378C200.483 150.12 200.541 148.613 200.543 147.03L200.546 144.153L205.823 144.208L211.1 144.264L211.042 144.891ZM28.7458 147.212C21.5459 149.21 16.5603 150.633 16.4794 150.714C16.4078 150.785 17.4131 154.816 17.5393 154.964C17.5579 154.985 20.0398 154.319 23.0549 153.482C26.0699 152.646 28.5368 151.997 28.5368 152.04C28.5368 152.083 27.5306 153.361 26.3009 154.88C25.0711 156.399 23.0967 158.84 21.9133 160.305L19.7616 162.968L20.6194 166.053C21.0911 167.75 21.5371 169.243 21.6107 169.372C21.7028 169.534 22.8778 169.288 25.4017 168.581C27.4134 168.016 30.7522 167.083 32.8213 166.505C34.8905 165.928 36.6931 165.42 36.8275 165.377C37.0008 165.32 36.9192 164.735 36.5451 163.351C36.2557 162.28 35.9399 161.321 35.8435 161.218C35.7426 161.111 33.4241 161.658 30.3783 162.507C27.4688 163.319 25.0538 163.948 25.0115 163.905C24.9363 163.83 25.7349 162.82 31.0212 156.302L33.6337 153.081L33.148 151.181C32.3266 147.967 31.8263 146.458 31.5872 146.473C31.4614 146.481 30.1827 146.814 28.7458 147.212ZM226.479 148.818C226.028 150.004 225.407 152.335 225.501 152.488C225.558 152.58 227.961 153.354 230.841 154.206C233.72 155.059 236.076 155.807 236.076 155.868C236.076 155.93 233.201 156.963 229.687 158.165C226.174 159.368 223.218 160.401 223.119 160.463C222.92 160.586 220.955 166.94 221.078 167.064C221.209 167.194 235.831 171.542 236.139 171.542C236.493 171.542 237.693 167.63 237.414 167.386C237.311 167.295 234.896 166.53 232.048 165.686C229.2 164.842 226.943 164.081 227.032 163.994C227.166 163.863 230.627 162.655 238.48 160.001C239.169 159.767 239.836 159.45 239.961 159.295C240.206 158.991 242.02 152.954 241.897 152.849C241.857 152.814 240.366 152.351 238.584 151.821C236.802 151.29 233.451 150.289 231.136 149.598C228.822 148.906 226.868 148.34 226.794 148.34C226.721 148.34 226.579 148.555 226.479 148.818ZM105.241 155.657V159.002L78.9586 158.949L52.6765 158.896L51.693 155.969C51.1521 154.36 50.7052 152.878 50.7002 152.677C50.6914 152.331 52.1256 152.312 77.9658 152.312H105.241V155.657ZM170.867 155.656V159H165.724C161.121 159 160.595 158.966 160.708 158.67C160.778 158.488 160.835 156.983 160.835 155.325V152.312H165.851H170.867V155.656ZM209.324 152.364C209.324 152.57 208.421 155.471 207.86 157.067L207.181 159H203.759H200.337V155.656V152.312H204.83C207.302 152.312 209.324 152.335 209.324 152.364ZM105.241 163.599V166.943H80.7132H56.1857L55.3401 165.114C54.2288 162.711 53.4081 160.738 53.4081 160.47C53.4081 160.323 61.6808 160.254 79.3243 160.254H105.241V163.599ZM170.867 163.599V166.943H162.288C155.018 166.943 153.734 166.899 153.875 166.652C153.967 166.492 155.218 164.99 156.655 163.313L159.268 160.263L165.068 160.259L170.867 160.254V163.599ZM206.607 160.37C206.607 160.571 204.908 164.494 204.279 165.741L203.675 166.943H201.954H200.232L200.258 166.316C200.273 165.971 200.296 164.466 200.311 162.972L200.337 160.254H203.472C205.196 160.254 206.607 160.306 206.607 160.37ZM105.165 168.511C105.271 168.787 108.066 168.824 128.574 168.824C148.998 168.824 151.922 168.786 152.345 168.509C152.759 168.237 154.083 168.201 161.795 168.247L170.763 168.302L170.82 171.699L170.878 175.095H115.919H60.9606L60.4959 174.442C59.5876 173.167 56.9899 168.529 57.0915 168.365C57.1484 168.273 67.9611 168.197 81.1197 168.197C102.194 168.197 105.059 168.235 105.165 168.511ZM202.742 168.41C202.86 168.601 200.649 172.707 200.318 172.912C200.11 173.041 200.045 168.559 200.252 168.352C200.448 168.156 202.617 168.207 202.742 168.41ZM36.7924 173.592C35.5898 174.01 30.2903 177.152 29.2591 178.058C27.7955 179.343 27.3791 181.137 28.0791 183.143C28.4804 184.293 32.3074 190.854 33.6034 192.614C35.1314 194.689 36.7002 195.072 38.9407 193.919C40.8468 192.937 43.4836 191.265 43.4449 191.062C43.3651 190.645 38.5348 182.728 38.3831 182.766C38.1643 182.82 35.6429 184.324 35.6429 184.401C35.6429 184.433 36.2502 185.481 36.9928 186.728C38.2067 188.767 38.3079 189.022 37.9979 189.257C37.4219 189.693 36.5997 189.563 36.0157 188.943C35.2573 188.138 32.5404 183.462 32.3879 182.7C32.2071 181.796 32.9599 180.998 35.3248 179.587C37.5128 178.281 38.5083 178.006 39.2611 178.499C39.8762 178.902 43.1195 184.212 43.299 185.11C43.4025 185.627 43.3287 185.883 42.9634 186.272C42.7059 186.546 42.5287 186.853 42.5698 186.953C42.8658 187.675 44.5656 190.349 44.7301 190.351C45.1888 190.357 46.9225 188.967 47.4469 188.173C47.9343 187.435 47.9949 187.168 47.9084 186.143C47.7894 184.738 47.394 183.912 44.5683 179.171C42.2572 175.293 40.9875 173.801 39.6935 173.442C38.5898 173.135 38.0184 173.165 36.7924 173.592ZM216.789 174.938C216.505 175.427 216.029 176.312 215.731 176.904C215.237 177.886 215.221 177.994 215.548 178.118C215.746 178.193 218.891 179.855 222.538 181.811C226.185 183.768 229.258 185.313 229.367 185.246C229.575 185.118 231.528 181.544 231.43 181.472C231.399 181.449 230.386 180.906 229.179 180.265C227.972 179.624 224.868 177.963 222.282 176.575C219.695 175.186 217.518 174.05 217.442 174.05C217.367 174.05 217.073 174.45 216.789 174.938ZM170.867 179.694V183.038H118.83H66.7919L65.2299 181.076C64.3708 179.996 63.233 178.491 62.7018 177.731L61.7358 176.349H116.302H170.867V179.694ZM170.867 187.637V190.981H122.61H74.3532L71.799 188.421C70.3943 187.012 68.9656 185.507 68.6241 185.076L68.0031 184.292H119.435H170.867V187.637ZM170.867 194.739V197.033L174.36 197.09L177.853 197.147L176.398 198.141L174.943 199.134L129.941 199.133L84.9381 199.133L82.915 197.723C81.8023 196.948 79.953 195.56 78.8056 194.64C77.6582 193.72 76.5766 192.852 76.4021 192.712C76.1525 192.512 86.1878 192.456 123.476 192.451L170.867 192.444V194.739ZM51.0045 196.354C49.2803 197.916 47.0241 199.956 45.9908 200.888C44.9575 201.82 43.7411 202.922 43.2875 203.338L42.4628 204.094L43.9076 205.689C44.7023 206.567 45.4141 207.285 45.4894 207.285C45.5648 207.285 46.7423 206.283 48.1065 205.059C49.4705 203.835 51.8092 201.735 53.3036 200.393C54.7979 199.051 56.3439 197.667 56.7391 197.318L57.4579 196.682L56.0122 195.086C55.2172 194.208 54.4704 193.495 54.353 193.502C54.2357 193.509 52.7288 194.793 51.0045 196.354ZM199.707 198.808C198.784 199.289 197.332 200.498 193.147 204.27C189.956 207.147 189.202 208.958 190.238 211.256C190.962 212.862 195.429 217.817 196.983 218.738C198.196 219.456 199.656 219.463 201.074 218.758C202.052 218.272 205.804 215.122 208.843 212.235C211.132 210.061 211.663 208.585 210.781 206.856C210.385 206.08 206.965 202.039 206.574 201.885C206.417 201.823 205.289 202.764 202.325 205.426C201.864 205.84 200.953 206.64 200.302 207.202C199.65 207.765 199.113 208.273 199.108 208.33C199.103 208.388 199.603 208.996 200.22 209.681L201.34 210.928L203.372 209.063L205.404 207.198L205.796 207.683C206.528 208.586 206.321 209.145 204.673 210.707C200.206 214.943 199.792 215.092 197.782 213.19C196.279 211.768 194.694 209.695 194.694 209.153C194.694 208.32 195.282 207.607 197.794 205.4C200.518 203.006 201.014 202.766 201.927 203.405C202.324 203.683 202.454 203.62 203.697 202.547C205.871 200.672 205.761 200.924 204.822 199.953C203.178 198.255 201.492 197.877 199.707 198.808ZM172.748 200.473C172.748 200.813 165.63 204.462 161.931 206.018L159.416 207.076H129.926H100.437L97.666 205.897C93.8682 204.28 87.2664 200.838 87.2664 200.474C87.2664 200.426 106.5 200.387 130.007 200.387C153.515 200.387 172.748 200.426 172.748 200.473ZM58.3052 208.279C55.9194 211.468 53.7498 214.366 53.4839 214.718L53.0003 215.359L54.7463 216.652C55.7067 217.363 56.5402 217.945 56.5985 217.945C56.6568 217.945 58.1838 215.97 59.9916 213.556C61.7995 211.141 63.3561 209.166 63.4508 209.166C63.5455 209.166 63.5854 209.472 63.5399 209.846C63.4941 210.219 63.4076 213.318 63.3474 216.733L63.2379 222.941L65.8786 224.937C67.3312 226.035 68.6228 226.929 68.7492 226.924C68.9831 226.915 78.1362 214.723 78.2219 214.307C78.2862 213.993 74.9884 211.617 74.7198 211.783C74.6011 211.856 73.1312 213.767 71.4533 216.028C69.7754 218.29 68.2625 220.281 68.0911 220.454C67.8152 220.731 67.7941 220.47 67.907 218.154C67.977 216.717 68.0462 213.519 68.0608 211.047L68.0873 206.553L66.2341 205.146C65.2146 204.373 63.9896 203.456 63.5116 203.109L62.6428 202.479L58.3052 208.279ZM155.077 208.507C154.64 208.898 147.661 210.657 144.22 211.245C134.05 212.981 123.96 212.878 114.077 210.936C110.996 210.331 105.23 208.809 104.938 208.524C104.816 208.405 114.485 208.33 130.007 208.33C143.905 208.33 155.186 208.41 155.077 208.507ZM179.802 214.3L177.974 215.232L180.494 220.269C181.88 223.04 182.978 225.342 182.934 225.386C182.89 225.43 180.098 223.993 176.729 222.193L170.604 218.919L167.525 220.47L164.446 222.021L167.929 229.069C169.845 232.946 171.468 236.174 171.536 236.242C171.69 236.396 175.465 234.517 175.465 234.286C175.465 234.193 174.38 231.925 173.054 229.244C171.728 226.564 170.68 224.334 170.725 224.289C170.77 224.244 173.544 225.669 176.89 227.457L182.973 230.707L185.96 229.214C187.602 228.393 188.988 227.683 189.039 227.635C189.198 227.487 182.072 213.346 181.845 213.357C181.727 213.363 180.808 213.787 179.802 214.3ZM84.5711 217.985C84.4307 218.348 79.3822 230.619 78.7642 232.1C78.6442 232.387 79.3158 232.724 82.9819 234.218C84.3613 234.78 87.2426 235.957 89.3847 236.835C91.5269 237.712 93.3609 238.429 93.4602 238.428C93.7146 238.426 95.029 235.028 94.8407 234.859C94.7556 234.783 92.9931 234.038 90.924 233.203C84.595 230.652 84.4388 230.579 84.507 230.199C84.5412 230.009 84.7293 229.484 84.925 229.032L85.2809 228.211L90.088 230.187C92.7318 231.273 94.996 232.124 95.1193 232.077C95.2428 232.03 95.5392 231.488 95.7783 230.873C96.0174 230.258 96.2751 229.601 96.3509 229.413C96.4569 229.151 96.2803 228.997 95.5874 228.748C93.8811 228.135 86.9611 225.248 86.7912 225.078C86.547 224.834 87.3889 222.844 87.7037 222.921C87.8475 222.957 90.1287 223.874 92.773 224.959C95.4175 226.045 97.6879 226.933 97.8183 226.933C98.0959 226.933 99.4028 223.758 99.2074 223.558C99.1346 223.484 95.9243 222.133 92.0735 220.555C88.2226 218.978 85.0013 217.646 84.9147 217.595C84.8284 217.544 84.6738 217.719 84.5711 217.985ZM156.172 224.17C154.755 224.592 154.351 224.793 154.423 225.042C154.475 225.22 155.458 228.639 156.607 232.64C157.757 236.641 158.745 239.962 158.802 240.02C158.86 240.078 159.835 239.855 160.969 239.524C162.558 239.061 163.016 238.846 162.972 238.586C162.925 238.313 161.48 233.217 159.031 224.686C158.662 223.402 158.717 223.412 156.172 224.17ZM106.386 225.735C106.183 226.3 103.967 241.198 104.071 241.301C104.178 241.408 119.725 243.878 119.79 243.799C119.807 243.777 119.96 242.929 120.13 241.913C120.351 240.589 120.373 240.042 120.207 239.981C120.012 239.909 109.336 238.221 109.076 238.221C108.945 238.221 109.242 236.048 109.394 235.89C109.466 235.816 111.829 236.116 114.646 236.557C117.462 236.998 119.824 237.294 119.893 237.215C120.047 237.041 120.514 234.196 120.406 234.088C120.365 234.047 118.276 233.692 115.764 233.3C113.252 232.908 110.901 232.536 110.539 232.472C109.898 232.36 109.883 232.332 109.994 231.474C110.213 229.787 109.785 229.847 115.377 230.729C118.136 231.164 120.636 231.523 120.932 231.526C121.446 231.532 121.482 231.455 121.73 229.833C121.874 228.898 121.913 228.067 121.819 227.985C121.725 227.903 119.296 227.482 116.422 227.049C111.581 226.32 108.49 225.835 107.061 225.581C106.706 225.518 106.443 225.578 106.386 225.735ZM135.076 227.723L129.276 228.255L129.277 228.901C129.277 229.444 129.99 237.996 130.443 242.879L130.574 244.298L131.858 244.177C132.565 244.11 133.556 244.005 134.061 243.943L134.98 243.83L134.844 241.757L134.708 239.684L135.284 239.677C135.6 239.674 137.262 239.541 138.976 239.382C142.008 239.1 142.852 239.161 143.176 239.686C143.256 239.816 143.405 240.589 143.508 241.404C143.61 242.219 143.737 242.928 143.789 242.98C143.841 243.032 144.842 243.006 146.014 242.922L148.144 242.77L148.016 241.114C147.946 240.203 147.776 239.08 147.637 238.618C147.376 237.747 146.421 236.757 145.841 236.757C145.629 236.757 145.791 236.511 146.288 236.078C147.313 235.185 147.53 234.213 147.253 231.766C147.018 229.69 146.68 228.715 145.962 228.045C144.809 226.968 143.678 226.934 135.076 227.723ZM142.514 231.704C142.704 231.913 142.918 232.517 142.991 233.046C143.107 233.894 143.059 234.07 142.583 234.546C142.287 234.843 141.875 235.086 141.669 235.086C141.462 235.086 139.751 235.229 137.865 235.402C135.98 235.576 134.415 235.693 134.39 235.663C134.307 235.567 134.042 231.951 134.116 231.933C134.466 231.849 140.094 231.373 141 231.351C141.891 231.329 142.251 231.413 142.514 231.704Z" fill="#2322FE"/>
</svg>
