<svg width="120" height="120" viewBox="0 0 120 120" fill="none" xmlns="http://www.w3.org/2000/svg">
<path fill-rule="evenodd" clip-rule="evenodd" d="M56.9166 0.0284001C46.1479 0.704867 36.8709 3.64295 28.0228 9.17913C24.2091 11.5653 20.9396 14.187 17.5569 17.5715C11.2799 23.8518 6.80535 30.8109 3.68006 39.1535C1.88239 43.9525 0.7394 49.0059 0.181653 54.6208C-0.0596966 57.0509 -0.0607576 62.9688 0.179724 65.3775C0.967148 73.264 2.89254 80.0385 6.26709 86.7961C8.91528 92.0993 12.1533 96.7369 16.3239 101.2C19.2495 104.33 22.944 107.455 26.632 109.917C35.3657 115.748 45.2112 119.12 55.7591 119.893C57.7093 120.036 62.3523 120.036 64.2478 119.893C74.7936 119.099 84.6186 115.73 93.3312 109.921C98.6226 106.393 103.508 101.828 107.549 96.6347C108.689 95.1692 110.982 91.7444 111.988 90.0046C118.927 78.0024 121.475 63.8163 119.175 49.9901C118.559 46.2876 117.702 43.0902 116.213 38.944C115.236 36.2241 113.329 32.2442 111.659 29.4414C106.267 20.3882 98.8565 13.1063 89.6211 7.78433C88.6825 7.24341 84.8298 5.27498 84.7097 5.27498C84.684 5.27498 84.3888 5.1484 84.0535 4.99366C83.0195 4.5166 81.0093 3.73749 79.3924 3.18721C74.747 1.60602 70.4212 0.686634 65.3571 0.203884C63.853 0.0605255 58.2575 -0.0558207 56.9166 0.0284001ZM63.9102 1.84884C67.5677 2.11115 70.3108 2.53023 73.7104 3.3461C86.7431 6.47423 98.4074 14.1548 106.55 24.9705C113.269 33.8938 117.173 44.2065 118.08 55.4293C118.281 57.9113 118.229 63.5674 117.985 65.8117C117.199 73.0346 115.434 79.2443 112.393 85.4921C107.824 94.8807 100.811 102.874 92.0772 108.648C83.7953 114.123 74.7279 117.238 64.5372 118.109C62.203 118.308 56.3525 118.253 54.1192 118.01C44.3376 116.945 35.512 113.766 27.592 108.454C16.7915 101.21 8.72187 90.6239 4.6662 78.3797C2.04309 70.4605 1.13904 61.9826 2.03566 53.7092C3.03781 44.4622 6.27365 35.4946 11.3668 27.8496C20.6491 13.9163 35.3359 4.61308 51.7076 2.29609C55.7377 1.72574 60.0089 1.56917 63.9102 1.84884ZM53.1546 5.43898C50.4493 5.6847 47.7983 6.85549 46.5842 8.34059C46.0407 9.00539 45.5351 10.0235 45.3819 10.7613C45.2174 11.554 45.3154 13.1068 45.5724 13.7774C47.2231 18.0856 54.7569 19.443 59.2167 16.2357C62.3856 13.9568 62.6573 9.78566 59.8103 7.12214C59.0725 6.43188 58.3884 6.03181 57.4954 5.76805C56.3525 5.43059 54.6596 5.30218 53.1546 5.43898ZM68.5404 5.99659C68.5404 6.02206 68.2553 7.29193 67.907 8.81842C67.2802 11.5651 67.1341 12.2077 66.4766 15.1122C66.2908 15.933 66.1501 16.6157 66.1639 16.6295C66.2672 16.733 69.9334 17.7144 69.9885 17.6534C70.0272 17.6104 70.3296 16.2512 70.6605 14.6328C70.9913 13.0145 71.2732 11.6781 71.287 11.663C71.3356 11.6102 71.4249 12.3932 71.6906 15.1996L71.959 18.0335L73.7368 18.8897C74.7145 19.3606 75.5756 19.7459 75.6501 19.7459C75.7246 19.7459 76.9787 18.8234 78.437 17.6959C81.8286 15.0735 81.5213 15.2808 81.3222 15.7489C81.1352 16.1884 79.4957 20.2532 79.2372 20.9184L79.0626 21.3674L80.771 22.2582C81.7105 22.7482 82.6606 23.2516 82.8821 23.3768L83.285 23.6046L84.0288 22.1817C84.9646 20.3914 85.7431 18.8912 86.82 16.8035C87.2854 15.9015 87.8797 14.7616 88.1407 14.2706C88.4017 13.7794 88.592 13.34 88.5636 13.2939C88.5162 13.2174 87.7486 12.7976 83.5728 10.5654C82.7949 10.1495 82.1004 9.81142 82.0294 9.81412C81.9585 9.81692 80.468 11.115 78.7172 12.6988C76.9664 14.2825 75.5205 15.5656 75.504 15.55C75.4876 15.5345 75.4426 13.6741 75.404 11.4158C75.3654 9.15743 75.3085 7.28451 75.2776 7.25363C75.2145 7.19054 68.9719 5.9527 68.7092 5.95125C68.6164 5.95067 68.5404 5.97113 68.5404 5.99659ZM54.9531 8.45511C57.0671 9.10852 58.1254 10.9816 57.3157 12.6367C55.9977 15.3308 51.2189 15.4296 49.7837 12.7924C49.3688 12.0301 49.3329 11.1832 49.6825 10.404C50.1105 9.45022 51.1525 8.64265 52.3055 8.37137C52.9896 8.21035 54.2948 8.25165 54.9531 8.45511ZM34.6587 11.722C32.6034 13.0842 29.5106 15.1278 27.7858 16.2635C26.061 17.3992 24.6499 18.3573 24.6499 18.3926C24.6499 18.4955 26.4789 21.1418 26.5722 21.1738C26.6188 21.1897 27.5766 20.5463 28.7009 19.744C29.8251 18.9415 30.7981 18.3055 30.8631 18.3304C30.9281 18.3553 31.9905 19.7903 33.2239 21.5192C34.4573 23.248 35.5107 24.6898 35.5647 24.7232C35.6408 24.7703 38.7704 22.7364 39.7313 22.0154C39.9178 21.8754 39.8343 21.7433 36.1231 16.2982C35.7891 15.808 35.5343 15.3909 35.5571 15.3714C35.5798 15.3519 36.6836 14.6959 38.0099 13.9135C39.3363 13.131 40.4515 12.4628 40.4882 12.4283C40.5248 12.3939 40.277 11.9316 39.9376 11.401C39.5981 10.8704 39.1576 10.165 38.9586 9.83332C38.7597 9.50174 38.5516 9.23374 38.4963 9.23779C38.441 9.24184 36.7142 10.3597 34.6587 11.722ZM90.8232 21.5C89.0989 23.6835 87.5385 25.6618 87.3555 25.8961L87.0228 26.3223L87.5945 26.8206C87.9091 27.0947 88.6444 27.7435 89.2288 28.2622C89.8131 28.781 90.3412 29.1934 90.4024 29.1787C90.4634 29.1641 92.0867 27.3721 94.0095 25.1966C95.9324 23.0211 97.5896 21.1482 97.6923 21.0346L97.879 20.8279L95.9679 19.1775C94.9168 18.2698 94.0347 17.5277 94.0075 17.5285C93.9804 17.5292 92.5475 19.3164 90.8232 21.5ZM56.3597 20.3308C46.3061 21.3608 37.4291 25.7567 30.7056 33.035L29.9704 33.8309H28.3397H26.7091L24.6693 36.2186L22.6296 38.6063L22.6269 41.2834L22.6242 43.9606H23.0582C23.297 43.9606 23.4923 43.9802 23.4923 44.0043C23.4923 44.0283 23.2995 44.5187 23.0639 45.094C21.6497 48.5474 20.6712 52.6181 20.3102 56.5503C20.1614 58.1708 20.1893 62.2657 20.3605 63.909C21.1396 71.394 23.764 78.0965 28.2332 84.0156C34.0217 91.682 42.5855 97.0961 51.9251 98.9941C57.8716 100.202 63.8558 100.07 69.728 98.5988C74.9044 97.3024 79.6337 95.0253 84.0617 91.6971L85.0654 90.9428H86.6674H88.2695L90.2457 88.6221L92.2219 86.3012L92.3009 84.739L92.3799 83.1768L93.2327 81.8744C98.8198 73.3408 100.912 63.2939 99.2099 53.1737C98.2319 47.3596 95.7047 41.4159 92.1345 36.5331C86.1186 28.3057 77.1823 22.6741 67.2632 20.8594C64.6268 20.377 63.7403 20.3013 60.3893 20.272C58.6385 20.2566 56.8252 20.2831 56.3597 20.3308ZM63.1867 22.0614C67.0333 22.4113 70.8214 23.3129 74.1646 24.6741C74.8011 24.9332 75.3443 25.1677 75.3716 25.1951C75.3989 25.2225 68.4818 25.2448 60.0002 25.2448C51.2584 25.2448 44.6187 25.2085 44.6707 25.161C44.8139 25.0299 47.1423 24.147 48.4761 23.718C51.0264 22.8977 53.4864 22.3892 56.2414 22.1128C57.7725 21.9592 61.7396 21.9298 63.1867 22.0614ZM77.4414 26.1736C78.645 26.7778 81.375 28.4402 81.7991 28.8272C81.8508 28.8743 72.3329 28.9108 59.9511 28.9108H38.0114L38.9271 28.2986C39.9873 27.5896 42.2021 26.289 42.8051 26.0212C43.2067 25.8428 43.7137 25.8371 59.9817 25.8305L76.7445 25.8237L77.4414 26.1736ZM83.9785 30.4665C85.132 31.4181 86.2895 32.4673 86.2895 32.5612C86.2895 32.5963 74.439 32.625 59.9552 32.625C45.4713 32.625 33.6209 32.6003 33.6209 32.57C33.6209 32.5398 33.7403 32.413 33.8862 32.2881C34.032 32.1633 34.4987 31.75 34.9231 31.3697C35.3476 30.9894 36.0204 30.4217 36.4184 30.108L37.142 29.5379L60.0559 29.5861L82.9698 29.6344L83.9785 30.4665ZM87.6981 33.9515C88.2691 34.5385 88.8285 35.1735 89.6525 36.1704C89.7853 36.3311 88.8684 36.3392 70.6293 36.3392H51.4665V35.0851V33.8309H41.8986H32.3308L32.608 33.5415L32.8853 33.2521H59.9515H87.0178L87.6981 33.9515ZM50.8117 36.5656C50.8269 37.6983 50.8255 38.6968 50.8083 38.7845C50.7799 38.93 50.3932 38.944 46.3951 38.944H42.0131V49.2183V59.4927H38.2511H34.4891V49.2183V38.944H30.727H26.965V36.7251V34.5062H38.8744H50.7839L50.8117 36.5656ZM90.9651 37.9052C91.338 38.4216 91.8061 39.1054 92.0052 39.4246L92.3673 40.0052H71.5676H50.768L51.1173 39.579L51.4665 39.1527V38.0351V36.9176L70.8768 36.942L90.2871 36.9663L90.9651 37.9052ZM93.4952 41.959C93.8772 42.6619 94.2342 43.3565 94.2886 43.5023L94.3875 43.7676H70.993C51.3294 43.7676 47.6107 43.7468 47.6755 43.6368C47.7179 43.5648 48.2953 42.8715 48.9585 42.096L50.1642 40.686L71.4825 40.6835L92.8007 40.6809L93.4952 41.959ZM30.1482 45.89V47.4336H27.1097C25.4385 47.4336 24.0711 47.4046 24.0711 47.3693C24.0711 47.3339 24.3372 46.6393 24.6624 45.8258L25.2537 44.3465H27.701H30.1482V45.89ZM95.0773 45.263C95.2757 45.7405 95.548 46.4243 95.6826 46.7824L95.927 47.4336H85.0861H74.2451L74.2143 47.2165L74.1834 46.9995L63.448 46.975L52.7126 46.9504L52.4709 47.192L52.2294 47.4336H47.4669C44.4263 47.4336 42.6928 47.3992 42.6723 47.3386C42.6546 47.2863 42.6532 46.5916 42.6691 45.7948L42.698 44.3461L68.7072 44.3704L94.7164 44.3947L95.0773 45.263ZM73.5564 49.8454V52.0643H67.3346H61.1127V54.4761V56.8879H67.3346H73.5564V59.2997V61.7116H67.3346H61.1127V65.0399V68.3682H67.3346H73.5564V70.6353V72.9024H63.2349H52.9134V60.2645V47.6265H63.2349H73.5564V49.8454ZM30.1265 49.5682C30.1527 51.0587 30.1506 51.0764 29.937 51.1323C29.8181 51.1634 28.2293 51.1852 26.4063 51.1809C23.7457 51.1745 23.0819 51.1477 23.0424 51.0449C22.9984 50.9301 23.5334 48.9067 23.7777 48.2643L23.8744 48.0097L26.9873 48.0352L30.1 48.0607L30.1265 49.5682ZM51.6433 48.0975C51.6256 48.1443 51.0575 48.8327 50.3808 49.6274L49.1504 51.0722L48.5579 51.1341C47.81 51.2123 43.1964 51.2132 42.9054 51.1353C42.6919 51.0779 42.6884 51.0523 42.6884 49.5447V48.0124H47.1819C49.7364 48.0124 51.6616 48.0492 51.6433 48.0975ZM96.2622 48.4707C96.5893 49.4765 96.991 51.0309 96.9437 51.1075C96.8869 51.1995 74.8318 51.2293 74.4674 51.1379L74.2317 51.0786V49.5456V48.0124H85.1724H96.1131L96.2622 48.4707ZM30.1482 53.3184V54.862H26.1914H22.2346L22.2822 54.6449C22.3083 54.5256 22.4192 53.9069 22.5284 53.2702C22.6377 52.6335 22.7502 52.0365 22.7786 51.9437C22.8264 51.7867 23.0882 51.7749 26.4891 51.7749H30.1482V53.3184ZM48.5726 53.3184V54.862H45.6305H42.6884V53.3184V51.7749H45.6305H48.5726V53.3184ZM97.3211 52.619C97.6178 54.2731 97.6931 54.7766 97.6504 54.8194C97.6265 54.8432 91.8491 54.8517 84.8116 54.8383L72.0161 54.8138L73.1239 53.5262C73.8724 52.6562 74.2317 52.1636 74.2317 52.0068V51.7749H85.7007H97.1697L97.3211 52.619ZM110.502 54.2799V55.2479H111.539H112.577L112.558 54.3073L112.538 53.3667L111.52 53.3393L110.502 53.3119V54.2799ZM30.1482 56.9844V58.528H26.0353H21.9223L21.9812 57.8285C22.0136 57.4439 22.069 56.7493 22.1043 56.285L22.1684 55.4408H26.1584H30.1482V56.9844ZM48.5726 56.9844V58.528H45.6305H42.6884V56.9844V55.4408H45.6305H48.5726V56.9844ZM97.813 55.8991C97.8474 56.1511 97.9064 56.8458 97.944 57.4426L98.0124 58.528H86.1252H74.238L74.2107 57.4426L74.1834 56.3573L72.4666 56.331L70.7497 56.3046L71.1037 55.8727L71.4575 55.4408H84.604H97.7504L97.813 55.8991ZM107.174 56.7869C105.987 56.8823 105.615 57.1731 105.323 58.232C105.175 58.767 105.148 59.2482 105.148 61.3257C105.148 63.7117 105.155 63.7995 105.374 64.2453C105.641 64.7875 106.161 65.1347 106.921 65.2789C107.199 65.3315 108.2 65.3791 109.147 65.3847C111.019 65.3957 111.449 65.3037 111.946 64.7866C112.479 64.2304 112.551 63.8691 112.653 61.2401C112.754 58.6256 112.71 58.1229 112.329 57.5059C112.065 57.0784 111.471 56.8191 110.574 56.7391L109.826 56.6723V57.7449C109.826 58.7644 109.836 58.8174 110.026 58.8174C110.335 58.8174 110.598 58.9968 110.706 59.2815C110.77 59.4487 110.781 60.1061 110.736 61.1298C110.668 62.6981 110.663 62.7223 110.399 62.9869C110.138 63.248 110.102 63.2551 109.059 63.2551C107.871 63.2551 107.434 63.1349 107.173 62.737C107.036 62.5273 107.017 62.2544 107.045 60.8391C107.076 59.2367 107.084 59.1802 107.305 59.0016C107.43 58.9003 107.636 58.8174 107.763 58.8174C107.992 58.8174 107.994 58.8107 107.994 57.7562C107.994 57.1725 107.983 56.7017 107.969 56.7099C107.956 56.7181 107.598 56.7528 107.174 56.7869ZM9.09528 57.0567L6.80429 57.0843L6.80449 58.2644C6.80458 58.9135 6.83323 60.5841 6.86825 61.9769L6.93172 64.5093H7.83972H8.74772L8.67798 61.8951C8.59946 58.954 8.56242 59.1108 9.33644 59.1082L9.79463 59.1068L9.8093 60.9639C9.8174 61.9853 9.83409 62.8644 9.84643 62.9175C9.85878 62.9705 9.87383 63.2635 9.88 63.5687L9.8911 64.1234H10.2152C10.3936 64.1234 10.7432 64.0954 10.9924 64.0613L11.4453 63.9992L11.3775 61.553L11.3098 59.1068H11.9026H12.4956L12.5093 60.7227C12.5167 61.6114 12.531 62.4255 12.541 62.5316C12.551 62.6377 12.5665 63.0826 12.5756 63.5204L12.592 64.3163H13.4654H14.3387L14.2775 60.771C14.2439 58.821 14.1995 57.1714 14.179 57.105C14.1509 57.0145 13.7976 56.99 12.7638 57.0067C12.0062 57.0189 10.3554 57.0414 9.09528 57.0567ZM30.1265 60.7227L30.1 62.2422H26.0486H21.9972L21.9706 60.7227L21.944 59.2033H26.0486H30.1532L30.1265 60.7227ZM48.5509 60.7227L48.5244 62.2422L44.5453 62.2673C42.2884 62.2816 40.5662 62.2557 40.5662 62.2073C40.5662 62.1605 41.0228 61.5973 41.5807 60.9559C42.2121 60.2301 42.6174 59.679 42.6538 59.4965L42.7125 59.2033H45.645H48.5775L48.5509 60.7227ZM98.057 60.2404C98.0567 60.8108 98.0289 61.5053 97.9954 61.7839L97.9345 62.2904H95.2953H92.656V61.0845V59.8786H87.9807H83.3053L81.6091 61.0845L79.913 62.2904H76.9758C74.269 62.2904 73.8083 62.2513 74.1352 62.0492C74.1923 62.0139 74.2317 61.4212 74.2317 60.5964V59.2033H86.1448H98.0579L98.057 60.2404ZM91.6914 73.3607V85.9262L87.7846 85.935C85.6359 85.9398 83.7369 85.9478 83.5644 85.9526L83.2509 85.9614L83.2264 73.3782L83.202 60.7951H87.4466H91.6914V73.3607ZM30.1482 63.641V64.4128H34.3814H38.6147L39.2759 63.641L39.9372 62.8692H44.2548H48.5726V64.4128V65.9564H35.4655H22.3586L22.2508 65.064C22.1916 64.5732 22.1151 63.8785 22.0809 63.5204L22.0188 62.8692H26.0835H30.1482V63.641ZM78.9776 62.985C78.898 63.0646 78.8619 63.5467 78.8619 64.5286V65.9564H75.0516C72.9559 65.9564 71.2413 65.9321 71.2413 65.9023C71.2413 65.8725 71.7514 65.178 72.3747 64.3589L73.5082 62.8695L76.3008 62.8693C78.4728 62.8692 79.0676 62.895 78.9776 62.985ZM97.9094 63.1828C97.8874 63.3553 97.8222 63.9521 97.7644 64.5093C97.7067 65.0664 97.6359 65.62 97.607 65.7393L97.5547 65.9564H95.0572H92.5595V64.4771C92.5595 63.6635 92.5885 62.9689 92.6239 62.9336C92.6592 62.8982 93.8719 62.8692 95.3188 62.8692H97.9493L97.9094 63.1828ZM48.5509 68.1029L48.5775 69.6223H35.8419C28.8374 69.6223 23.1065 69.6003 23.1065 69.5734C23.1065 69.5465 22.9762 68.939 22.8171 68.2235C22.6579 67.5079 22.5277 66.8352 22.5277 66.7285C22.5277 66.535 22.5603 66.5345 35.526 66.5589L48.5244 66.5834L48.5509 68.1029ZM78.8402 68.1029L78.8668 69.6223H76.5527H74.2386L74.211 68.6817L74.1834 67.7411L72.0245 67.6929L69.8657 67.6446L70.3185 67.0889L70.7713 66.5331L74.7925 66.5583L78.8136 66.5834L78.8402 68.1029ZM97.4042 66.8729C97.3721 67.2217 97.0211 68.8704 96.8858 69.3088L96.7889 69.6223H94.6148H92.4406L92.4988 69.4053C92.5307 69.2859 92.5575 68.5906 92.5582 67.8601L92.5595 66.5319L94.9952 66.5577L97.4309 66.5834L97.4042 66.8729ZM13.2673 67.9442C9.94425 68.8661 7.64323 69.5229 7.6059 69.5602C7.57281 69.5933 8.03679 71.4535 8.09506 71.5217C8.10364 71.5316 9.24914 71.224 10.6407 70.838C12.0323 70.452 13.1708 70.1525 13.1708 70.1722C13.1708 70.192 12.7065 70.7818 12.1389 71.483C11.5713 72.1841 10.66 73.3108 10.1138 73.9869L9.12075 75.216L9.51663 76.6399C9.73434 77.4229 9.9402 78.1123 9.97415 78.1717C10.0167 78.2462 10.559 78.133 11.7239 77.8064C12.6523 77.546 14.1933 77.1151 15.1483 76.8486C16.1033 76.5822 16.9353 76.3477 16.9973 76.3277C17.0773 76.3017 17.0396 76.0313 16.867 75.3927C16.7334 74.8985 16.5876 74.4556 16.5432 74.4083C16.4966 74.359 15.4265 74.6113 14.0208 75.0033C12.6779 75.3778 11.5633 75.6682 11.5438 75.6486C11.5091 75.6139 11.8776 75.1475 14.3175 72.1393L15.5233 70.6526L15.2991 69.7757C14.92 68.2926 14.689 67.5961 14.5787 67.6031C14.5206 67.6067 13.9305 67.7602 13.2673 67.9442ZM104.529 68.6852C104.321 69.2325 104.034 70.3085 104.077 70.3789C104.104 70.4215 105.213 70.7786 106.542 71.1722C107.871 71.5658 108.958 71.911 108.958 71.9392C108.958 71.9675 107.631 72.4446 106.01 72.9995C104.388 73.5544 103.024 74.0314 102.978 74.0597C102.886 74.1167 101.979 77.0493 102.036 77.1063C102.096 77.1663 108.845 79.1731 108.987 79.1731C109.151 79.1731 109.705 77.3677 109.576 77.2549C109.528 77.213 108.413 76.86 107.099 76.4706C105.785 76.0811 104.743 75.7296 104.784 75.6896C104.846 75.6289 106.443 75.0717 110.067 73.8464C110.386 73.7387 110.694 73.5922 110.751 73.5206C110.864 73.3804 111.701 70.594 111.645 70.5457C111.626 70.5297 110.938 70.3161 110.116 70.071C109.293 69.8261 107.747 69.3644 106.678 69.0451C105.61 68.7259 104.708 68.4647 104.674 68.4647C104.64 68.4647 104.575 68.5639 104.529 68.6852ZM48.5726 71.8416V73.3855L36.4424 73.361L24.3123 73.3365L23.8583 71.9859C23.6087 71.2431 23.4024 70.5593 23.4001 70.4665C23.3961 70.3065 24.058 70.2976 35.9842 70.2976H48.5726V71.8416ZM78.8619 71.8412V73.3848H76.4882C74.3633 73.3848 74.1207 73.3688 74.1731 73.2322C74.2053 73.1482 74.2317 72.4536 74.2317 71.6886V70.2976H76.5468H78.8619V71.8412ZM96.611 70.3221C96.611 70.4168 96.1942 71.756 95.9355 72.4924L95.6221 73.3848H94.0427H92.4631V71.8412V70.2976H94.537C95.6777 70.2976 96.611 70.3086 96.611 70.3221ZM48.5726 75.5072V77.0507H37.2522H25.9319L25.5416 76.2066C25.0287 75.0973 24.6499 74.1867 24.6499 74.063C24.6499 73.9954 28.4681 73.9636 36.6112 73.9636H48.5726V75.5072ZM78.8619 75.5072V77.0507H74.9021C71.5467 77.0507 70.9541 77.0303 71.0194 76.9165C71.0619 76.8426 71.6392 76.149 72.3024 75.375L73.5082 73.9677L76.185 73.9656L78.8619 73.9636V75.5072ZM95.357 74.0168C95.357 74.1099 94.5727 75.9201 94.2828 76.496L94.0037 77.0507H93.2093H92.4148L92.4269 76.7613C92.4336 76.6021 92.4444 75.9075 92.451 75.2178L92.4631 73.9636H93.91C94.7058 73.9636 95.357 73.9875 95.357 74.0168ZM48.5377 77.7743C48.5866 77.9017 49.8765 77.919 59.3419 77.919C68.7681 77.919 70.1179 77.9011 70.313 77.7732C70.5042 77.6479 71.1152 77.631 74.6745 77.6526L78.8136 77.6778L78.8402 79.2455L78.8667 80.8132H53.5012H28.1356L27.9212 80.5119C27.502 79.9232 26.303 77.7826 26.3499 77.7068C26.3762 77.6643 31.3667 77.6296 37.4398 77.6296C47.1663 77.6296 48.4888 77.6469 48.5377 77.7743ZM93.5734 77.7276C93.6279 77.8158 92.6072 79.7111 92.4545 79.8055C92.3584 79.865 92.3285 77.7963 92.424 77.7008C92.5144 77.6104 93.5154 77.6338 93.5734 77.7276ZM16.9811 80.1192C16.4261 80.3124 13.9801 81.7625 13.5042 82.1805C12.8287 82.7736 12.6365 83.6016 12.9596 84.5274C13.1448 85.0582 14.9111 88.0867 15.5093 88.8988C16.2145 89.8563 16.9386 90.0334 17.9726 89.501C18.8524 89.048 20.0693 88.2762 20.0515 88.1826C20.0147 87.9901 17.7853 84.3359 17.7153 84.3533C17.6143 84.3785 16.4506 85.0728 16.4506 85.108C16.4506 85.1231 16.7309 85.6064 17.0736 86.182C17.6339 87.1233 17.6805 87.2408 17.5375 87.3492C17.2716 87.5507 16.8922 87.4906 16.6226 87.2045C16.2726 86.8329 15.0187 84.6748 14.9482 84.3229C14.8648 83.9057 15.2123 83.5376 16.3037 82.8861C17.3136 82.2834 17.7731 82.1566 18.1205 82.3842C18.4044 82.5702 19.9013 85.0209 19.9842 85.4353C20.0319 85.6742 19.9979 85.7923 19.8293 85.9718C19.7104 86.0983 19.6286 86.2397 19.6476 86.286C19.7842 86.6194 20.5687 87.8536 20.6447 87.8545C20.8564 87.8571 21.6565 87.2155 21.8986 86.849C22.1235 86.5084 22.1515 86.3853 22.1116 85.9121C22.0567 85.2636 21.8742 84.8826 20.57 82.6944C19.5033 80.9045 18.9173 80.2158 18.3201 80.05C17.8107 79.9086 17.5469 79.9222 16.9811 80.1192ZM100.057 80.7408C99.9255 80.9663 99.7057 81.3747 99.5681 81.6482C99.3402 82.1013 99.3327 82.1511 99.4837 82.2084C99.575 82.2429 101.027 83.01 102.71 83.9128C104.393 84.8158 105.811 85.5292 105.862 85.498C105.958 85.4389 106.859 83.7895 106.814 83.7561C106.799 83.7456 106.332 83.4949 105.775 83.1991C105.218 82.9034 103.785 82.137 102.592 81.4961C101.398 80.8552 100.393 80.3308 100.358 80.3308C100.323 80.3308 100.188 80.5154 100.057 80.7408ZM78.8619 82.9356V84.4791H54.8445H30.827L30.1061 83.5735C29.7096 83.0753 29.1845 82.3807 28.9393 82.0299L28.4934 81.392H53.6777H78.8619V82.9356ZM78.8619 86.6015V88.1451H56.5894H34.3169L33.138 86.9633C32.4897 86.3134 31.8303 85.6188 31.6726 85.4198L31.3861 85.058H55.124H78.8619V86.6015ZM78.8619 89.8793V90.9382L80.474 90.9646L82.0862 90.9911L81.4145 91.4495L80.7429 91.908L59.9725 91.9077L39.2022 91.9076L38.2685 91.2568C37.7549 90.899 36.9014 90.2586 36.3718 89.8339C35.8422 89.4091 35.343 89.0087 35.2625 88.9441C35.1473 88.8516 39.779 88.8259 56.989 88.8235L78.8619 88.8204V89.8793ZM23.5406 90.6251C22.7447 91.3458 21.7034 92.2874 21.2265 92.7174C20.7496 93.1475 20.1882 93.6564 19.9789 93.8483L19.5982 94.1972L20.2651 94.9336C20.6318 95.3386 20.9604 95.67 20.9951 95.67C21.0299 95.67 21.5734 95.2077 22.203 94.6426C22.8325 94.0775 23.9119 93.1084 24.6016 92.4891C25.2913 91.8697 26.0049 91.231 26.1873 91.0697L26.519 90.7763L25.8518 90.0396C25.4849 89.6344 25.1402 89.3055 25.086 89.3088C25.0319 89.312 24.3364 89.9045 23.5406 90.6251ZM92.1723 91.7576C91.7467 91.9795 91.0764 92.5376 89.1449 94.2787C87.672 95.6063 87.3239 96.4421 87.8021 97.503C88.1362 98.244 90.1982 100.531 90.9152 100.956C91.4749 101.287 92.1489 101.291 92.8033 100.965C93.2547 100.741 94.9864 99.2869 96.389 97.9546C97.4454 96.9511 97.6908 96.2701 97.2837 95.4721C97.1009 95.1137 95.5223 93.2486 95.3417 93.1776C95.2694 93.1492 94.7486 93.5832 93.3808 94.8119C93.1678 95.0032 92.7475 95.3722 92.4469 95.6319C92.1461 95.8916 91.8982 96.1258 91.896 96.1524C91.8937 96.1789 92.1246 96.4595 92.4091 96.776L92.9262 97.3514L93.8639 96.4905L94.8016 95.6297L94.9829 95.8535C95.3206 96.2706 95.2249 96.5285 94.4647 97.2493C92.4026 99.2046 92.2116 99.2733 91.2838 98.3953C90.5902 97.7389 89.8586 96.7825 89.8586 96.5322C89.8586 96.1477 90.1303 95.8188 91.2894 94.7999C92.5467 93.6949 92.7758 93.5843 93.1969 93.8792C93.3801 94.0076 93.4404 93.9784 94.0141 93.4833C95.0172 92.6178 94.9668 92.734 94.5331 92.2858C93.7747 91.5021 92.9965 91.3279 92.1723 91.7576ZM79.73 92.5261C79.73 92.6831 76.4447 94.367 74.7374 95.0852L73.5766 95.5735H59.9661H46.3555L45.0766 95.0292C43.3238 94.2831 40.2768 92.6943 40.2768 92.5263C40.2768 92.5043 49.1538 92.4864 60.0034 92.4864C70.8531 92.4864 79.73 92.5043 79.73 92.5261ZM26.9101 96.1286C25.809 97.6008 24.8076 98.9383 24.6849 99.1008L24.4617 99.3962L25.2675 99.9931C25.7108 100.322 26.0955 100.59 26.1224 100.59C26.1493 100.59 26.854 99.6784 27.6884 98.5642C28.5228 97.4499 29.2413 96.5382 29.285 96.5382C29.3287 96.5382 29.3471 96.6793 29.3261 96.8518C29.305 97.0242 29.265 98.4547 29.2372 100.031L29.1867 102.896L30.4055 103.817C31.0759 104.324 31.6721 104.737 31.7304 104.734C31.8384 104.73 36.0628 99.1031 36.1024 98.9108C36.1321 98.7661 34.61 97.6694 34.4861 97.746C34.4313 97.7799 33.7529 98.6616 32.9785 99.7053C32.2041 100.749 31.5058 101.668 31.4267 101.748C31.2993 101.876 31.2896 101.755 31.3417 100.687C31.374 100.023 31.4059 98.5473 31.4127 97.4065L31.4249 95.3323L30.5696 94.683C30.099 94.3258 29.5337 93.9027 29.3131 93.7428L28.9121 93.4519L26.9101 96.1286ZM71.5741 96.2342C71.3722 96.4143 68.1512 97.2264 66.5629 97.4976C61.8694 98.2989 57.2123 98.2512 52.6507 97.3553C51.2289 97.076 48.5677 96.3735 48.4327 96.2418C48.3764 96.1869 52.839 96.1524 60.0034 96.1524C66.4177 96.1524 71.6245 96.1892 71.5741 96.2342ZM82.9857 98.9077L82.1418 99.3379L83.3048 101.663C83.9446 102.941 84.4514 104.004 84.4311 104.024C84.4109 104.045 83.1221 103.381 81.5672 102.55L78.7402 101.04L77.3193 101.755L75.8983 102.471L77.5059 105.724C78.39 107.514 79.1391 109.003 79.1704 109.035C79.2416 109.106 80.984 108.238 80.984 108.132C80.984 108.089 80.4833 107.042 79.8711 105.805C79.2591 104.568 78.7753 103.539 78.7962 103.518C78.8169 103.497 80.0974 104.155 81.6416 104.98L84.4493 106.48L85.8275 105.791C86.5856 105.412 87.2253 105.084 87.2489 105.062C87.3221 104.994 84.0334 98.4674 83.9285 98.4726C83.8741 98.4752 83.4499 98.6711 82.9857 98.9077ZM39.0328 100.608C38.968 100.776 36.638 106.44 36.3527 107.123C36.2973 107.256 36.6073 107.411 38.2993 108.101C38.936 108.36 40.2658 108.903 41.2545 109.308C42.2432 109.713 43.0897 110.044 43.1355 110.044C43.2529 110.043 43.8595 108.474 43.7726 108.396C43.7334 108.361 42.9199 108.017 41.9649 107.632C39.0438 106.455 38.9718 106.421 39.0032 106.246C39.019 106.158 39.1059 105.916 39.1961 105.707L39.3604 105.328L41.5791 106.24C42.7993 106.741 43.8443 107.134 43.9012 107.112C43.9582 107.091 44.095 106.841 44.2054 106.557C44.3157 106.273 44.4346 105.97 44.4697 105.883C44.5186 105.762 44.4371 105.691 44.1173 105.576C43.3298 105.293 40.1359 103.961 40.0575 103.882C39.9448 103.77 40.3333 102.851 40.4786 102.887C40.545 102.903 41.5979 103.326 42.8183 103.827C44.0389 104.329 45.0867 104.738 45.1469 104.738C45.275 104.738 45.8782 103.273 45.788 103.181C45.7544 103.146 44.2728 102.523 42.4955 101.795C40.7181 101.067 39.2314 100.452 39.1914 100.428C39.1516 100.405 39.0802 100.486 39.0328 100.608ZM72.0792 103.463C71.4254 103.658 71.239 103.751 71.2723 103.866C71.2961 103.948 71.7497 105.526 72.2803 107.372C72.8109 109.219 73.2668 110.752 73.2935 110.778C73.3202 110.805 73.7701 110.702 74.2933 110.55C75.0268 110.336 75.2383 110.237 75.2177 110.117C75.196 109.991 74.529 107.639 73.3987 103.701C73.2286 103.109 73.2541 103.113 72.0792 103.463ZM49.1013 104.185C49.0075 104.446 47.985 111.322 48.0329 111.37C48.0822 111.419 55.2577 112.559 55.2876 112.522C55.2956 112.513 55.3663 112.121 55.4446 111.652C55.5466 111.041 55.5567 110.789 55.4801 110.76C55.3901 110.727 50.4626 109.948 50.3429 109.948C50.2825 109.948 50.4195 108.945 50.4897 108.872C50.5229 108.838 51.6136 108.976 52.9134 109.18C54.2132 109.384 55.3032 109.52 55.3354 109.484C55.4063 109.403 55.6218 108.09 55.5722 108.041C55.553 108.021 54.5888 107.858 53.4295 107.677C52.2703 107.496 51.185 107.324 51.0178 107.295C50.7224 107.243 50.7153 107.23 50.7666 106.834C50.8675 106.056 50.67 106.083 53.251 106.49C54.5243 106.691 55.678 106.857 55.8147 106.858C56.052 106.861 56.0688 106.825 56.1833 106.077C56.2494 105.645 56.2677 105.262 56.2241 105.224C56.1806 105.186 55.0597 104.992 53.7333 104.792C51.4989 104.455 50.0721 104.231 49.413 104.114C49.249 104.085 49.1274 104.113 49.1013 104.185ZM62.3426 105.103L59.6658 105.349L59.6661 105.646C59.6663 105.897 59.9955 109.844 60.2043 112.098L60.2649 112.753L60.8576 112.697C61.1836 112.666 61.6412 112.618 61.8743 112.589L62.2983 112.537L62.2356 111.58L62.1729 110.623L62.4386 110.62C62.5848 110.619 63.3515 110.557 64.1426 110.484C65.542 110.354 65.9315 110.382 66.081 110.624C66.1182 110.684 66.1871 111.041 66.2344 111.417C66.2817 111.793 66.34 112.121 66.364 112.145C66.388 112.169 66.8501 112.157 67.3909 112.118L68.3743 112.048L68.3153 111.283C68.2829 110.863 68.2042 110.345 68.1402 110.131C68.0198 109.73 67.5787 109.273 67.3111 109.273C67.2132 109.273 67.288 109.159 67.5176 108.959C67.9904 108.547 68.0908 108.098 67.9629 106.969C67.8544 106.011 67.6982 105.561 67.3671 105.251C66.835 104.754 66.3128 104.739 62.3426 105.103ZM65.7757 106.94C65.8632 107.037 65.9622 107.316 65.9957 107.56C66.0493 107.951 66.0271 108.033 65.8076 108.252C65.6708 108.389 65.4809 108.501 65.3855 108.501C65.2903 108.501 64.5003 108.567 63.6301 108.647C62.7598 108.727 62.0379 108.781 62.0259 108.767C61.9878 108.723 61.8656 107.054 61.8999 107.046C62.0614 107.007 64.659 106.788 65.0769 106.777C65.4882 106.767 65.6545 106.806 65.7757 106.94Z" fill="white"/>
</svg>
